SplineFontDB: 3.0
FontName: Alegreya-BoldItalic
FullName: Alegreya Bold Italic
FamilyName: Alegreya
Weight: Bold
Copyright: Copyright (c) 2011, Juan Pablo del Peral (juan@huertatipografica.com.ar), with Reserved Font Names "Alegreya" "Alegreya SC"
Version: 1.003
ItalicAngle: 0
UnderlinePosition: -59
UnderlineWidth: 56
Ascent: 800
Descent: 200
sfntRevision: 0x000100c5
LayerCount: 2
Layer: 0 1 "Back"  1
Layer: 1 1 "Fore"  0
XUID: [1021 118 1891956408 174038]
FSType: 0
OS2Version: 2
OS2_WeightWidthSlopeOnly: 0
OS2_UseTypoMetrics: 1
CreationTime: 1325707237
ModificationTime: 1325707762
PfmFamily: 17
TTFWeight: 700
TTFWidth: 5
LineGap: 0
VLineGap: 0
Panose: 2 0 5 3 5 0 0 2 0 4
OS2TypoAscent: 216
OS2TypoAOffset: 1
OS2TypoDescent: -145
OS2TypoDOffset: 1
OS2TypoLinegap: 0
OS2WinAscent: 39
OS2WinAOffset: 1
OS2WinDescent: 27
OS2WinDOffset: 1
HheadAscent: 39
HheadAOffset: 1
HheadDescent: -27
HheadDOffset: 1
OS2SubXSize: 700
OS2SubYSize: 650
OS2SubXOff: 0
OS2SubYOff: 140
OS2SupXSize: 700
OS2SupYSize: 650
OS2SupXOff: 0
OS2SupYOff: 477
OS2StrikeYSize: 50
OS2StrikeYPos: 250
OS2FamilyClass: 258
OS2Vendor: 'pyrs'
OS2CodePages: 20000093.00000000
OS2UnicodeRanges: a00000ef.4000204b.00000000.00000000
Lookup: 258 0 0 "'kern' Horizontal Kerning lookup 0"  {"'kern' Horizontal Kerning lookup 0 subtable"  } ['kern' ('DFLT' <'dflt' > ) ]
DEI: 91125
TtTable: prep
PUSHW_1
 511
SCANCTRL
PUSHB_1
 4
SCANTYPE
EndTTInstrs
ShortTable: maxp 16
  1
  0
  501
  86
  7
  0
  0
  2
  0
  1
  1
  0
  64
  0
  0
  0
EndShort
LangName: 1033 "" "" "Bold Italic" "FONTLAB:OTFEXPORT" "" "Version 1.003" "" "Alegreya is a trademark of Juan Pablo del Peral" "Juan Pablo del Peral" "Juan Pablo del Peral" "" "www.huertatipografica.com.ar" "www.huertatipografica.com.ar" "This Font Software is licensed under the SIL Open Font License, Version 1.1. This license is available with a FAQ at: http://scripts.sil.org/OFL" "http://scripts.sil.org/OFL" 
GaspTable: 1 65535 15 1
Encoding: UnicodeBmp
UnicodeInterp: none

StartChar: exclam
Encoding: 33 33 4
Width: 274
GlyphClass: 2
Flags: W
LayerCount: 2
Fore
SplineSet
157 15.5 m 128,-1,1
 132 -11 132 -11 96 -11 c 128,-1,2
 60 -11 60 -11 43 7 c 128,-1,3
 26 25 26 25 26 60 c 128,-1,4
 26 95 26 95 51.5 121 c 128,-1,5
 77 147 77 147 112.5 147 c 128,-1,6
 148 147 148 147 165 129.5 c 128,-1,7
 182 112 182 112 182 77 c 128,-1,0
 182 42 182 42 157 15.5 c 128,-1,1
89 236 m 1,8,-1
 121 666 l 1,9,-1
 136 683 l 1,10,-1
 271 705 l 1,11,-1
 286 687 l 1,12,-1
 169 234 l 1,13,-1
 103 223 l 1,14,-1
 89 236 l 1,8,-1
EndSplineSet
EndChar

StartChar: quotedbl
Encoding: 34 34 5
Width: 311
GlyphClass: 2
Flags: W
LayerCount: 2
Fore
SplineSet
192 654 m 1,0,-1
 198 644 l 1,1,2
 170 534 170 534 135 428 c 1,3,-1
 84 408 l 1,4,-1
 70 412 l 1,5,6
 85 505 85 505 91 640 c 1,7,-1
 192 654 l 1,0,-1
334 654 m 1,8,-1
 340 644 l 1,9,10
 312 534 312 534 277 428 c 1,11,-1
 226 408 l 1,12,-1
 212 412 l 1,13,14
 226 514 226 514 232 640 c 1,15,-1
 334 654 l 1,8,-1
EndSplineSet
EndChar

StartChar: numbersign
Encoding: 35 35 6
Width: 510
GlyphClass: 2
Flags: W
LayerCount: 2
Fore
SplineSet
62 351 m 1,0,-1
 58 362 l 1,1,-1
 80 432 l 1,2,-1
 175 431 l 1,3,-1
 218 570 l 1,4,-1
 292 577 l 1,5,-1
 302 571 l 1,6,-1
 256 431 l 1,7,-1
 300 431 l 1,8,-1
 344 430 l 1,9,-1
 387 570 l 1,10,-1
 461 577 l 1,11,-1
 471 571 l 1,12,-1
 425 431 l 1,13,-1
 518 433 l 1,14,-1
 522 421 l 1,15,-1
 500 351 l 1,16,-1
 400 351 l 1,17,-1
 371 258 l 1,18,-1
 463 259 l 1,19,-1
 467 247 l 1,20,-1
 446 178 l 1,21,-1
 348 178 l 1,22,-1
 307 44 l 1,23,-1
 235 33 l 1,24,-1
 225 41 l 1,25,-1
 269 178 l 1,26,-1
 216 179 l 1,27,-1
 179 178 l 1,28,-1
 138 44 l 1,29,-1
 65 33 l 1,30,-1
 56 41 l 1,31,-1
 99 178 l 1,32,-1
 8 177 l 1,33,-1
 4 189 l 1,34,-1
 26 258 l 1,35,-1
 123 257 l 1,36,-1
 152 351 l 1,37,-1
 62 351 l 1,0,-1
231 352 m 1,38,-1
 202 257 l 1,39,-1
 244 257 l 1,40,-1
 292 256 l 1,41,-1
 322 352 l 1,42,-1
 231 352 l 1,38,-1
EndSplineSet
EndChar

StartChar: dollar
Encoding: 36 36 7
Width: 436
GlyphClass: 2
Flags: W
LayerCount: 2
Fore
SplineSet
121 170 m 1,0,1
 119 152 119 152 119 129 c 0,2,3
 119 68 119 68 191 68 c 0,4,5
 228 68 228 68 250.5 83.5 c 128,-1,6
 273 99 273 99 273 123 c 128,-1,7
 273 147 273 147 252 163 c 128,-1,8
 231 179 231 179 194 197.5 c 128,-1,9
 157 216 157 216 141.5 225 c 128,-1,10
 126 234 126 234 104 252 c 0,11,12
 61 285 61 285 61 344.5 c 128,-1,13
 61 404 61 404 112.5 450 c 128,-1,14
 164 496 164 496 248 507 c 1,15,-1
 281 649 l 1,16,-1
 352 658 l 1,17,-1
 357 649 l 1,18,-1
 325 509 l 1,19,20
 383 505 383 505 441 489 c 1,21,-1
 446 477 l 1,22,23
 424 414 424 414 410 343 c 1,24,-1
 340 338 l 1,25,-1
 333 343 l 1,26,27
 338 367 338 367 338 379 c 0,28,29
 338 428 338 428 272 428 c 0,30,31
 239 428 239 428 217 412.5 c 128,-1,32
 195 397 195 397 195 373 c 0,33,34
 195 343 195 343 254 312 c 0,35,36
 262 308 262 308 286.5 296 c 128,-1,37
 311 284 311 284 323.5 277 c 128,-1,38
 336 270 336 270 355.5 256.5 c 128,-1,39
 375 243 375 243 385 231 c 0,40,41
 411 200 411 200 411 162 c 0,42,43
 411 92 411 92 356 46.5 c 128,-1,44
 301 1 301 1 206 -7 c 1,45,-1
 173 -151 l 1,46,-1
 103 -159 l 1,47,-1
 97 -152 l 1,48,-1
 130 -7 l 1,49,50
 72 -1 72 -1 20 21 c 1,51,-1
 14 33 l 1,52,53
 36 103 36 103 45 164 c 1,54,-1
 121 170 l 1,0,1
EndSplineSet
EndChar

StartChar: percent
Encoding: 37 37 8
Width: 692
GlyphClass: 2
Flags: W
LayerCount: 2
Fore
SplineSet
188 408 m 0,0,1
 274 408 274 408 274 484 c 0,2,3
 274 515 274 515 253.5 533 c 128,-1,4
 233 551 233 551 194 551 c 0,5,6
 109 551 109 551 109 475 c 0,7,8
 109 441 109 441 130.5 424.5 c 128,-1,9
 152 408 152 408 188 408 c 0,0,1
168 309 m 0,10,11
 111 309 111 309 77.5 345.5 c 128,-1,12
 44 382 44 382 44 447 c 0,13,14
 44 540 44 540 92.5 597 c 128,-1,15
 141 654 141 654 218 654 c 0,16,17
 276 654 276 654 308 616.5 c 128,-1,18
 340 579 340 579 340 518 c 0,19,20
 340 426 340 426 293 367.5 c 128,-1,21
 246 309 246 309 168 309 c 0,10,11
449 155 m 0,22,23
 449 88 449 88 532 88 c 128,-1,24
 615 88 615 88 615 163 c 0,25,26
 615 195 615 195 594.5 213 c 128,-1,27
 574 231 574 231 534 231 c 128,-1,28
 494 231 494 231 471.5 211 c 128,-1,29
 449 191 449 191 449 155 c 0,22,23
508 -12 m 0,30,31
 451 -12 451 -12 418 25 c 128,-1,32
 385 62 385 62 385 126 c 0,33,34
 385 219 385 219 433.5 276 c 128,-1,35
 482 333 482 333 559 333 c 0,36,37
 617 333 617 333 649 295.5 c 128,-1,38
 681 258 681 258 681 197 c 0,39,40
 681 105 681 105 633.5 46.5 c 128,-1,41
 586 -12 586 -12 508 -12 c 0,30,31
602 653 m 1,42,-1
 609 634 l 1,43,44
 433 367 433 367 343 227 c 1,45,-1
 141 -93 l 1,46,-1
 76 -66 l 1,47,-1
 71 -52 l 1,48,49
 192 128 192 128 278 264 c 2,50,-1
 540 678 l 1,51,-1
 602 653 l 1,42,-1
EndSplineSet
EndChar

StartChar: ampersand
Encoding: 38 38 9
Width: 571
GlyphClass: 2
Flags: W
LayerCount: 2
Fore
SplineSet
227 539 m 128,-1,1
 198 513 198 513 198 468.5 c 128,-1,2
 198 424 198 424 226.5 395.5 c 128,-1,3
 255 367 255 367 301 367 c 1,4,-1
 549 386 l 2,5,6
 582 388 582 388 607 400 c 128,-1,7
 632 412 632 412 665 441 c 1,8,-1
 687 425 l 1,9,-1
 646 344 l 2,10,11
 632 316 632 316 614 305.5 c 128,-1,12
 596 295 596 295 563 295 c 2,13,-1
 492 295 l 1,14,-1
 487 288 l 1,15,16
 510 263 510 263 510 220 c 0,17,18
 510 129 510 129 427 58.5 c 128,-1,19
 344 -12 344 -12 244 -12 c 128,-1,20
 144 -12 144 -12 87.5 31.5 c 128,-1,21
 31 75 31 75 31 148 c 0,22,23
 31 203 31 203 72 249.5 c 128,-1,24
 113 296 113 296 181 319 c 1,25,26
 89 363 89 363 89 461 c 0,27,28
 89 539 89 539 160 596.5 c 128,-1,29
 231 654 231 654 315.5 654 c 128,-1,30
 400 654 400 654 485 629 c 1,31,-1
 491 619 l 1,32,33
 458 530 458 530 449 465 c 1,34,-1
 369 460 l 1,35,36
 376 493 376 493 376 513.5 c 128,-1,37
 376 534 376 534 358 549.5 c 128,-1,38
 340 565 340 565 298 565 c 128,-1,0
 256 565 256 565 227 539 c 128,-1,1
411 213 m 0,39,40
 411 249 411 249 396.5 272 c 128,-1,41
 382 295 382 295 359 295 c 2,42,-1
 249 295 l 1,43,44
 196 270 196 270 173.5 242 c 128,-1,45
 151 214 151 214 151 172 c 128,-1,46
 151 130 151 130 181 101.5 c 128,-1,47
 211 73 211 73 268.5 73 c 128,-1,48
 326 73 326 73 368.5 112 c 128,-1,49
 411 151 411 151 411 213 c 0,39,40
EndSplineSet
EndChar

StartChar: quotesingle
Encoding: 39 39 10
Width: 170
GlyphClass: 2
Flags: W
LayerCount: 2
Fore
SplineSet
192 654 m 1,0,-1
 198 644 l 1,1,2
 170 534 170 534 135 428 c 1,3,-1
 84 408 l 1,4,-1
 70 412 l 1,5,6
 85 505 85 505 91 640 c 1,7,-1
 192 654 l 1,0,-1
EndSplineSet
EndChar

StartChar: parenleft
Encoding: 40 40 11
Width: 298
GlyphClass: 2
Flags: W
LayerCount: 2
Fore
SplineSet
170 178 m 2,0,1
 166 140 166 140 166 114 c 128,-1,2
 166 88 166 88 169 55.5 c 128,-1,3
 172 23 172 23 184 -8 c 0,4,5
 207 -64 207 -64 234 -88 c 1,6,-1
 244 -96 l 1,7,-1
 243 -104 l 1,8,-1
 197 -146 l 1,9,-1
 189 -146 l 1,10,11
 167 -137 167 -137 138 -109.5 c 128,-1,12
 109 -82 109 -82 90.5 -50.5 c 128,-1,13
 72 -19 72 -19 63.5 26 c 128,-1,14
 55 71 55 71 55 102.5 c 128,-1,15
 55 134 55 134 58 163 c 2,16,-1
 79 336 l 2,17,18
 87 405 87 405 112 462.5 c 128,-1,19
 137 520 137 520 166 553 c 0,20,21
 224 619 224 619 270 640 c 2,22,-1
 289 649 l 1,23,-1
 300 649 l 1,24,-1
 327 603 l 1,25,-1
 325 597 l 1,26,27
 312 592 312 592 288 569 c 128,-1,28
 264 546 264 546 247.5 521 c 128,-1,29
 231 496 231 496 214 450.5 c 128,-1,30
 197 405 197 405 191 351 c 2,31,-1
 170 178 l 2,0,1
EndSplineSet
EndChar

StartChar: parenright
Encoding: 41 41 12
Width: 302
GlyphClass: 2
Flags: W
LayerCount: 2
Fore
SplineSet
134 325 m 2,0,1
 138 363 138 363 138 389 c 128,-1,2
 138 415 138 415 135 447.5 c 128,-1,3
 132 480 132 480 120 512 c 1,4,5
 97 567 97 567 70 590 c 2,6,-1
 60 599 l 1,7,-1
 61 607 l 1,8,-1
 107 649 l 1,9,-1
 115 649 l 1,10,11
 121 646 121 646 132 640 c 128,-1,12
 143 634 143 634 169 609.5 c 128,-1,13
 195 585 195 585 213 553.5 c 128,-1,14
 231 522 231 522 240 476.5 c 128,-1,15
 249 431 249 431 249 399.5 c 128,-1,16
 249 368 249 368 246 340 c 2,17,-1
 224 167 l 2,18,19
 216 98 216 98 191 40.5 c 128,-1,20
 166 -17 166 -17 137 -50 c 0,21,22
 78 -117 78 -117 34 -138 c 1,23,-1
 15 -146 l 1,24,-1
 4 -146 l 1,25,-1
 -22 -100 l 1,26,-1
 -21 -94 l 1,27,28
 -5 -86 -5 -86 17 -64.5 c 128,-1,29
 39 -43 39 -43 56 -18 c 128,-1,30
 73 7 73 7 89.5 52.5 c 128,-1,31
 106 98 106 98 113 152 c 2,32,-1
 134 325 l 2,0,1
EndSplineSet
EndChar

StartChar: asterisk
Encoding: 42 42 13
Width: 393
GlyphClass: 2
Flags: W
LayerCount: 2
Fore
SplineSet
101 673 m 1,0,1
 151 647 151 647 203 607 c 1,2,-1
 196 566 l 1,3,-1
 188 560 l 1,4,-1
 80 590 l 1,5,6
 80 635 80 635 91 670 c 1,7,-1
 101 673 l 1,0,1
101 469 m 1,8,9
 141 508 141 508 195 546 c 1,10,-1
 232 526 l 1,11,-1
 235 518 l 1,12,-1
 174 423 l 1,13,14
 130 437 130 437 101 459 c 1,15,-1
 101 469 l 1,8,9
294 406 m 1,16,17
 270 456 270 456 250 520 c 1,18,-1
 281 549 l 1,19,-1
 290 549 l 1,20,-1
 360 461 l 1,21,22
 334 424 334 424 304 403 c 1,23,-1
 294 406 l 1,16,17
414 571 m 1,24,25
 372 564 372 564 293 564 c 1,26,-1
 275 601 l 1,27,-1
 277 611 l 1,28,-1
 383 651 l 1,29,30
 410 614 410 614 420 579 c 1,31,-1
 414 571 l 1,24,25
295 736 m 1,32,33
 284 681 284 681 264 618 c 1,34,-1
 222 613 l 1,35,-1
 215 617 l 1,36,-1
 208 730 l 1,37,38
 252 744 252 744 288 744 c 1,39,-1
 295 736 l 1,32,33
EndSplineSet
EndChar

StartChar: plus
Encoding: 43 43 14
Width: 488
GlyphClass: 2
Flags: W
LayerCount: 2
Fore
SplineSet
317 497 m 1,0,-1
 328 490 l 1,1,2
 310 384 310 384 300 306 c 1,3,-1
 476 312 l 1,4,-1
 481 300 l 1,5,-1
 459 208 l 1,6,-1
 287 207 l 1,7,-1
 268 39 l 1,8,-1
 177 24 l 1,9,-1
 168 32 l 1,10,11
 180 125 180 125 190 207 c 1,12,-1
 21 206 l 1,13,-1
 15 217 l 1,14,-1
 40 307 l 1,15,16
 126 306 126 306 203 306 c 1,17,-1
 225 486 l 1,18,-1
 317 497 l 1,0,-1
EndSplineSet
EndChar

StartChar: comma
Encoding: 44 44 15
Width: 229
GlyphClass: 2
Flags: W
LayerCount: 2
Fore
SplineSet
20 108 m 1,0,1
 65 142 65 142 97 142 c 128,-1,2
 129 142 129 142 148 118 c 128,-1,3
 167 94 167 94 167 47.5 c 128,-1,4
 167 1 167 1 123 -51 c 128,-1,5
 79 -103 79 -103 14 -140 c 1,6,-1
 -24 -110 l 1,7,-1
 -24 -93 l 1,8,9
 8 -71 8 -71 28 -40 c 128,-1,10
 48 -9 48 -9 48 26.5 c 128,-1,11
 48 62 48 62 18 94 c 1,12,-1
 20 108 l 1,0,1
EndSplineSet
EndChar

StartChar: hyphen
Encoding: 45 45 16
Width: 312
GlyphClass: 2
Flags: W
LayerCount: 2
Fore
SplineSet
280 313 m 1,0,-1
 288 300 l 1,1,-1
 270 220 l 1,2,-1
 39 194 l 1,3,-1
 31 206 l 1,4,-1
 48 284 l 1,5,-1
 280 313 l 1,0,-1
EndSplineSet
EndChar

StartChar: period
Encoding: 46 46 17
Width: 230
GlyphClass: 2
Flags: W
LayerCount: 2
Fore
SplineSet
147.5 15.5 m 128,-1,1
 122 -11 122 -11 86 -11 c 128,-1,2
 50 -11 50 -11 33.5 6.5 c 128,-1,3
 17 24 17 24 17 59.5 c 128,-1,4
 17 95 17 95 42.5 121 c 128,-1,5
 68 147 68 147 103.5 147 c 128,-1,6
 139 147 139 147 156 129.5 c 128,-1,7
 173 112 173 112 173 77 c 128,-1,0
 173 42 173 42 147.5 15.5 c 128,-1,1
EndSplineSet
EndChar

StartChar: slash
Encoding: 47 47 18
Width: 317
GlyphClass: 2
Flags: W
LayerCount: 2
Fore
SplineSet
352 675 m 1,0,-1
 363 660 l 1,1,2
 238 343 238 343 70 -110 c 1,3,-1
 -15 -110 l 1,4,-1
 -22 -99 l 1,5,6
 49 74 49 74 105 226 c 2,7,-1
 271 675 l 1,8,-1
 352 675 l 1,0,-1
EndSplineSet
EndChar

StartChar: zero
Encoding: 48 48 19
Width: 481
GlyphClass: 2
Flags: W
LayerCount: 2
Fore
SplineSet
200 -12 m 0,0,1
 116 -12 116 -12 69 43.5 c 128,-1,2
 22 99 22 99 22 196 c 0,3,4
 22 334 22 334 97 422 c 128,-1,5
 172 510 172 510 288 510 c 0,6,7
 371 510 371 510 417.5 455 c 128,-1,8
 464 400 464 400 464 304 c 0,9,10
 464 165 464 165 390 76.5 c 128,-1,11
 316 -12 316 -12 200 -12 c 0,0,1
139 150 m 128,-1,13
 172 119 172 119 236 119 c 128,-1,14
 300 119 300 119 339.5 156.5 c 128,-1,15
 379 194 379 194 379 253 c 128,-1,16
 379 312 379 312 345.5 343 c 128,-1,17
 312 374 312 374 248 374 c 128,-1,18
 184 374 184 374 145 336 c 128,-1,19
 106 298 106 298 106 239.5 c 128,-1,12
 106 181 106 181 139 150 c 128,-1,13
EndSplineSet
EndChar

StartChar: one
Encoding: 49 49 20
Width: 353
GlyphClass: 2
Flags: W
LayerCount: 2
Fore
SplineSet
226 111 m 0,0,1
 226 65 226 65 262 65 c 1,2,-1
 309 68 l 1,3,-1
 311 63 l 1,4,-1
 292 -4 l 1,5,6
 202 0 202 0 169 0 c 128,-1,7
 136 0 136 0 114 -1 c 128,-1,8
 92 -2 92 -2 72.5 -4 c 128,-1,9
 53 -6 53 -6 36 -7.5 c 128,-1,10
 19 -9 19 -9 0 -11 c 1,11,-1
 14 52 l 1,12,13
 64 57 64 57 85 76 c 128,-1,14
 106 95 106 95 111 144 c 1,15,16
 139 369 139 369 139 383 c 128,-1,17
 139 397 139 397 131.5 406.5 c 128,-1,18
 124 416 124 416 96 416 c 1,19,-1
 48 411 l 1,20,-1
 43 418 l 1,21,-1
 56 475 l 1,22,23
 104 479 104 479 160.5 487.5 c 128,-1,24
 217 496 217 496 251 501 c 128,-1,25
 285 506 285 506 311 510 c 1,26,-1
 318 480 l 1,27,28
 285 455 285 455 271 402 c 1,29,30
 226 186 226 186 226 111 c 0,0,1
EndSplineSet
EndChar

StartChar: two
Encoding: 50 50 21
Width: 467
GlyphClass: 2
Flags: W
LayerCount: 2
Fore
SplineSet
241 356 m 0,0,1
 241 404 241 404 185 404 c 128,-1,2
 129 404 129 404 73 327 c 1,3,-1
 60 327 l 1,4,-1
 51 401 l 1,5,6
 96 452 96 452 150 481 c 128,-1,7
 204 510 204 510 261 510 c 128,-1,8
 318 510 318 510 355.5 478.5 c 128,-1,9
 393 447 393 447 393 395.5 c 128,-1,10
 393 344 393 344 354 289.5 c 128,-1,11
 315 235 315 235 179 101 c 1,12,-1
 183 93 l 1,13,-1
 270 93 l 2,14,15
 314 93 314 93 335 112 c 128,-1,16
 356 131 356 131 372 184 c 1,17,-1
 450 191 l 1,18,19
 416 84 416 84 400 3 c 1,20,-1
 384 -9 l 1,21,22
 147 0 147 0 55 0 c 1,23,-1
 -8 -9 l 1,24,-1
 -12 24 l 1,25,-1
 70 107 l 1,26,27
 161 201 161 201 200 258 c 1,28,29
 241 316 241 316 241 356 c 0,0,1
EndSplineSet
EndChar

StartChar: three
Encoding: 51 51 22
Width: 418
GlyphClass: 2
Flags: W
LayerCount: 2
Fore
SplineSet
76 365 m 1,0,-1
 64 364 l 1,1,-1
 52 435 l 1,2,3
 88 459 88 459 143.5 484.5 c 128,-1,4
 199 510 199 510 251 510 c 128,-1,5
 303 510 303 510 338.5 481.5 c 128,-1,6
 374 453 374 453 374 407 c 128,-1,7
 374 361 374 361 340 320.5 c 128,-1,8
 306 280 306 280 249 257 c 1,9,-1
 248 249 l 1,10,11
 367 215 367 215 367 129 c 0,12,13
 367 76 367 76 318.5 22 c 128,-1,14
 270 -32 270 -32 195.5 -66 c 128,-1,15
 121 -100 121 -100 49 -100 c 0,16,17
 8 -100 8 -100 -5 -79.5 c 128,-1,18
 -18 -59 -18 -59 -18 -34.5 c 128,-1,19
 -18 -10 -18 -10 -17 2 c 1,20,-1
 -2 16 l 1,21,22
 31 3 31 3 87 3 c 128,-1,23
 143 3 143 3 186.5 33 c 128,-1,24
 230 63 230 63 230 108 c 0,25,26
 230 178 230 178 99 178 c 1,27,-1
 91 188 l 1,28,-1
 92 250 l 1,29,-1
 156 264 l 1,30,31
 193 281 193 281 216 308.5 c 128,-1,32
 239 336 239 336 239 362 c 128,-1,33
 239 388 239 388 224.5 401 c 128,-1,34
 210 414 210 414 187 414 c 0,35,36
 138 414 138 414 76 365 c 1,0,-1
EndSplineSet
EndChar

StartChar: four
Encoding: 52 52 23
Width: 454
GlyphClass: 2
Flags: W
LayerCount: 2
Fore
SplineSet
294 508 m 2,0,1
 295 508 295 508 300 510 c 1,2,-1
 384 499 l 1,3,-1
 342 157 l 1,4,-1
 420 157 l 1,5,-1
 427 146 l 1,6,-1
 408 63 l 1,7,8
 377 64 377 64 332 66 c 1,9,-1
 320 -79 l 1,10,-1
 311 -88 l 1,11,-1
 194 -100 l 1,12,-1
 188 -90 l 1,13,14
 202 -3 202 -3 213 69 c 1,15,16
 63 73 63 73 -17 73 c 1,17,18
 -15 84 -15 84 -11.5 106.5 c 128,-1,19
 -8 129 -8 129 -6 140 c 1,20,-1
 294 508 l 2,0,1
237 335 m 1,21,-1
 97 157 l 1,22,-1
 224 157 l 1,23,-1
 247 335 l 1,24,-1
 237 335 l 1,21,-1
EndSplineSet
EndChar

StartChar: five
Encoding: 53 53 24
Width: 412
GlyphClass: 2
Flags: W
LayerCount: 2
Fore
SplineSet
361 145 m 0,0,1
 361 54 361 54 256 -23 c 128,-1,2
 151 -100 151 -100 38 -100 c 0,3,4
 -1 -100 -1 -100 -15 -80 c 128,-1,5
 -29 -60 -29 -60 -29 -20 c 0,6,7
 -29 -10 -29 -10 -28 2 c 1,8,-1
 -13 16 l 1,9,10
 22 3 22 3 78 3 c 128,-1,11
 134 3 134 3 178.5 32.5 c 128,-1,12
 223 62 223 62 223 102 c 128,-1,13
 223 142 223 142 185 163 c 128,-1,14
 147 184 147 184 54 198 c 1,15,-1
 47 209 l 1,16,-1
 100 479 l 1,17,-1
 108 487 l 1,18,-1
 296 494 l 2,19,20
 324 496 324 496 337.5 504 c 128,-1,21
 351 512 351 512 362 534 c 1,22,-1
 417 538 l 1,23,-1
 374 391 l 1,24,-1
 360 378 l 1,25,26
 274 386 274 386 170 386 c 1,27,-1
 152 294 l 1,28,29
 256 275 256 275 308.5 240 c 128,-1,30
 361 205 361 205 361 145 c 0,0,1
EndSplineSet
EndChar

StartChar: six
Encoding: 54 54 25
Width: 448
GlyphClass: 2
Flags: W
LayerCount: 2
Fore
SplineSet
423 212 m 0,0,1
 423 116 423 116 356 52 c 128,-1,2
 289 -12 289 -12 185 -12 c 0,3,4
 108 -12 108 -12 64.5 39 c 128,-1,5
 21 90 21 90 21 164.5 c 128,-1,6
 21 239 21 239 42.5 298.5 c 128,-1,7
 64 358 64 358 98 399.5 c 128,-1,8
 132 441 132 441 173 476.5 c 128,-1,9
 214 512 214 512 256 534 c 0,10,11
 347 581 347 581 386 592 c 2,12,-1
 408 598 l 1,13,-1
 417 593 l 1,14,-1
 430 538 l 1,15,16
 414 534 414 534 375.5 512 c 128,-1,17
 337 490 337 490 308.5 468 c 128,-1,18
 280 446 280 446 246.5 409 c 128,-1,19
 213 372 213 372 191 330 c 1,20,-1
 194 324 l 2,21,22
 195 324 195 324 230 341.5 c 128,-1,23
 265 359 265 359 279 361 c 1,24,25
 347 361 347 361 385 318.5 c 128,-1,26
 423 276 423 276 423 212 c 0,0,1
281.5 248 m 128,-1,28
 263 273 263 273 228 273 c 128,-1,29
 193 273 193 273 151 245 c 1,30,31
 141 193 141 193 141 173 c 0,32,33
 141 124 141 124 159.5 96.5 c 128,-1,34
 178 69 178 69 216.5 69 c 128,-1,35
 255 69 255 69 277.5 99.5 c 128,-1,36
 300 130 300 130 300 176.5 c 128,-1,27
 300 223 300 223 281.5 248 c 128,-1,28
EndSplineSet
EndChar

StartChar: seven
Encoding: 55 55 26
Width: 413
GlyphClass: 2
Flags: W
LayerCount: 2
Fore
SplineSet
198 498 m 2,0,-1
 408 498 l 1,1,-1
 441 450 l 1,2,3
 344 283 344 283 201 13 c 1,4,-1
 156 -100 l 1,5,-1
 139 -100 l 1,6,-1
 53 -73 l 1,7,-1
 45 -48 l 1,8,-1
 312 394 l 1,9,-1
 186 386 l 1,10,11
 140 382 140 382 123 366 c 128,-1,12
 106 350 106 350 91 298 c 1,13,-1
 31 292 l 1,14,15
 58 406 58 406 74 497 c 1,16,-1
 81 502 l 1,17,18
 138 498 138 498 198 498 c 2,0,-1
EndSplineSet
EndChar

StartChar: eight
Encoding: 56 56 27
Width: 462
GlyphClass: 2
Flags: W
LayerCount: 2
Fore
SplineSet
22 117 m 0,0,1
 22 221 22 221 148 278 c 1,2,3
 71 333 71 333 71 410 c 128,-1,4
 71 487 71 487 135 542.5 c 128,-1,5
 199 598 199 598 289 598 c 0,6,7
 353 598 353 598 397 563.5 c 128,-1,8
 441 529 441 529 441 472 c 0,9,10
 441 376 441 376 337 323 c 1,11,12
 419 269 419 269 419 188 c 128,-1,13
 419 107 419 107 350.5 47.5 c 128,-1,14
 282 -12 282 -12 187 -12 c 0,15,16
 115 -12 115 -12 68.5 23.5 c 128,-1,17
 22 59 22 59 22 117 c 0,0,1
155.5 86 m 128,-1,19
 177 62 177 62 212 62 c 128,-1,20
 247 62 247 62 273 86.5 c 128,-1,21
 299 111 299 111 299 147 c 0,22,23
 299 180 299 180 266 204 c 0,24,25
 236 226 236 226 198 247 c 1,26,27
 134 205 134 205 134 145 c 0,28,18
 134 110 134 110 155.5 86 c 128,-1,19
212.5 497.5 m 128,-1,30
 191 476 191 476 191 446.5 c 128,-1,31
 191 417 191 417 213 397.5 c 128,-1,32
 235 378 235 378 280 353 c 1,33,34
 328 392 328 392 328 448 c 0,35,36
 328 482 328 482 311 500.5 c 128,-1,37
 294 519 294 519 264 519 c 128,-1,29
 234 519 234 519 212.5 497.5 c 128,-1,30
EndSplineSet
EndChar

StartChar: nine
Encoding: 57 57 28
Width: 448
GlyphClass: 2
Flags: W
LayerCount: 2
Fore
SplineSet
31 286 m 0,0,1
 31 382 31 382 97.5 446 c 128,-1,2
 164 510 164 510 268 510 c 0,3,4
 345 510 345 510 389 459 c 128,-1,5
 433 408 433 408 433 333.5 c 128,-1,6
 433 259 433 259 411.5 199.5 c 128,-1,7
 390 140 390 140 356 98 c 128,-1,8
 322 56 322 56 281 21 c 128,-1,9
 240 -14 240 -14 198 -36 c 0,10,11
 116 -80 116 -80 46 -101 c 1,12,-1
 37 -95 l 1,13,-1
 23 -40 l 1,14,15
 39 -36 39 -36 77.5 -14 c 128,-1,16
 116 8 116 8 144.5 29.5 c 128,-1,17
 173 51 173 51 206.5 88 c 128,-1,18
 240 125 240 125 262 167 c 1,19,-1
 258 174 l 1,20,21
 255 173 255 173 238 164 c 0,22,23
 192 139 192 139 174 137 c 1,24,25
 106 137 106 137 68.5 179.5 c 128,-1,26
 31 222 31 222 31 286 c 0,0,1
171.5 249.5 m 128,-1,28
 190 225 190 225 224.5 225 c 128,-1,29
 259 225 259 225 301 252 c 1,30,31
 311 291 311 291 311 332 c 128,-1,32
 311 373 311 373 293 401 c 128,-1,33
 275 429 275 429 237 429 c 128,-1,34
 199 429 199 429 176 398 c 128,-1,35
 153 367 153 367 153 320.5 c 128,-1,27
 153 274 153 274 171.5 249.5 c 128,-1,28
EndSplineSet
EndChar

StartChar: colon
Encoding: 58 58 29
Width: 229
GlyphClass: 2
Flags: W
LayerCount: 2
Fore
SplineSet
147.5 15.5 m 128,-1,1
 122 -11 122 -11 86 -11 c 128,-1,2
 50 -11 50 -11 33.5 6.5 c 128,-1,3
 17 24 17 24 17 59.5 c 128,-1,4
 17 95 17 95 42.5 121 c 128,-1,5
 68 147 68 147 103.5 147 c 128,-1,6
 139 147 139 147 156 129.5 c 128,-1,7
 173 112 173 112 173 77 c 128,-1,0
 173 42 173 42 147.5 15.5 c 128,-1,1
180.5 288.5 m 128,-1,9
 155 262 155 262 119 262 c 128,-1,10
 83 262 83 262 66.5 279.5 c 128,-1,11
 50 297 50 297 50 332.5 c 128,-1,12
 50 368 50 368 75.5 394 c 128,-1,13
 101 420 101 420 136.5 420 c 128,-1,14
 172 420 172 420 189 402.5 c 128,-1,15
 206 385 206 385 206 350 c 128,-1,8
 206 315 206 315 180.5 288.5 c 128,-1,9
EndSplineSet
EndChar

StartChar: semicolon
Encoding: 59 59 30
Width: 229
GlyphClass: 2
Flags: W
LayerCount: 2
Fore
SplineSet
19 108 m 1,0,1
 64 142 64 142 96 142 c 128,-1,2
 128 142 128 142 147 118 c 128,-1,3
 166 94 166 94 166 47.5 c 128,-1,4
 166 1 166 1 122 -51 c 128,-1,5
 78 -103 78 -103 13 -140 c 1,6,-1
 -25 -110 l 1,7,-1
 -25 -93 l 1,8,9
 7 -71 7 -71 27 -40 c 128,-1,10
 47 -9 47 -9 47 26.5 c 128,-1,11
 47 62 47 62 17 94 c 1,12,-1
 19 108 l 1,0,1
180.5 288.5 m 128,-1,14
 155 262 155 262 119 262 c 128,-1,15
 83 262 83 262 66.5 279.5 c 128,-1,16
 50 297 50 297 50 332.5 c 128,-1,17
 50 368 50 368 75.5 394 c 128,-1,18
 101 420 101 420 136.5 420 c 128,-1,19
 172 420 172 420 189 402.5 c 128,-1,20
 206 385 206 385 206 350 c 128,-1,13
 206 315 206 315 180.5 288.5 c 128,-1,14
EndSplineSet
EndChar

StartChar: less
Encoding: 60 60 31
Width: 450
GlyphClass: 2
Flags: W
LayerCount: 2
Fore
SplineSet
33 213 m 1,0,-1
 26 226 l 1,1,-1
 40 323 l 1,2,-1
 411 481 l 1,3,-1
 423 473 l 1,4,-1
 434 397 l 1,5,6
 346 365 346 365 130 276 c 1,7,-1
 129 269 l 1,8,-1
 398 137 l 1,9,-1
 401 122 l 1,10,-1
 351 57 l 1,11,12
 221 123 221 123 33 213 c 1,0,-1
EndSplineSet
EndChar

StartChar: equal
Encoding: 61 61 32
Width: 488
GlyphClass: 2
Flags: W
LayerCount: 2
Fore
SplineSet
465 224 m 1,0,-1
 470 212 l 1,1,-1
 448 120 l 1,2,-1
 10 118 l 1,3,-1
 4 129 l 1,4,-1
 29 219 l 1,5,6
 169 218 169 218 254 218 c 1,7,-1
 465 224 l 1,0,-1
487 402 m 1,8,-1
 492 390 l 1,9,-1
 471 298 l 1,10,-1
 32 296 l 1,11,-1
 26 307 l 1,12,-1
 51 397 l 1,13,14
 190 396 190 396 276 396 c 1,15,-1
 487 402 l 1,8,-1
EndSplineSet
EndChar

StartChar: greater
Encoding: 62 62 33
Width: 450
GlyphClass: 2
Flags: W
LayerCount: 2
Fore
SplineSet
428 325 m 1,0,-1
 434 312 l 1,1,-1
 421 214 l 1,2,-1
 49 57 l 1,3,-1
 38 64 l 1,4,-1
 26 141 l 1,5,6
 117 174 117 174 330 261 c 1,7,-1
 331 268 l 1,8,-1
 62 400 l 1,9,-1
 59 416 l 1,10,-1
 109 481 l 1,11,12
 186 441 186 441 256 406 c 1,13,-1
 428 325 l 1,0,-1
EndSplineSet
EndChar

StartChar: question
Encoding: 63 63 34
Width: 358
GlyphClass: 2
Flags: W
LayerCount: 2
Fore
SplineSet
263 504 m 0,0,1
 263 590 263 590 100 600 c 1,2,-1
 94 614 l 1,3,-1
 140 698 l 1,4,-1
 156 705 l 1,5,6
 257 702 257 702 322.5 656.5 c 128,-1,7
 388 611 388 611 388 544 c 0,8,9
 388 500 388 500 363.5 463.5 c 128,-1,10
 339 427 339 427 314 408 c 0,11,12
 266 371 266 371 204 334 c 1,13,-1
 201 327 l 1,14,-1
 204 244 l 1,15,-1
 197 233 l 1,16,-1
 107 215 l 1,17,-1
 96 221 l 1,18,-1
 88 347 l 1,19,-1
 93 361 l 1,20,-1
 204 424 l 2,21,22
 263 458 263 458 263 504 c 0,0,1
183.5 15.5 m 128,-1,24
 158 -11 158 -11 122.5 -11 c 128,-1,25
 87 -11 87 -11 70 7 c 128,-1,26
 53 25 53 25 53 60 c 128,-1,27
 53 95 53 95 78 121 c 128,-1,28
 103 147 103 147 139 147 c 128,-1,29
 175 147 175 147 192 129.5 c 128,-1,30
 209 112 209 112 209 77 c 128,-1,23
 209 42 209 42 183.5 15.5 c 128,-1,24
EndSplineSet
EndChar

StartChar: at
Encoding: 64 64 35
Width: 836
GlyphClass: 2
Flags: W
LayerCount: 2
Fore
SplineSet
485 -12 m 0,0,1
 464 -12 464 -12 452.5 -1 c 128,-1,2
 441 10 441 10 441 35 c 128,-1,3
 441 60 441 60 475 193 c 1,4,-1
 467 194 l 1,5,6
 384 43 384 43 306 -12 c 1,7,8
 251 -12 251 -12 221 27 c 128,-1,9
 191 66 191 66 191 134 c 0,10,11
 191 256 191 256 268.5 361 c 128,-1,12
 346 466 346 466 432 466 c 1,13,-1
 519 448 l 1,14,-1
 526 470 l 1,15,-1
 538 477 l 1,16,-1
 618 463 l 1,17,-1
 626 446 l 1,18,19
 573 242 573 242 549 84 c 1,20,-1
 555 78 l 1,21,22
 643 78 643 78 693.5 137.5 c 128,-1,23
 744 197 744 197 744 294 c 0,24,25
 744 420 744 420 663.5 491 c 128,-1,26
 583 562 583 562 439.5 562 c 128,-1,27
 296 562 296 562 200.5 458.5 c 128,-1,28
 105 355 105 355 105 198.5 c 128,-1,29
 105 42 105 42 201.5 -55.5 c 128,-1,30
 298 -153 298 -153 484 -158 c 1,31,-1
 484 -174 l 1,32,-1
 453 -224 l 1,33,34
 247 -220 247 -220 131.5 -109 c 128,-1,35
 16 2 16 2 16 179 c 0,36,37
 16 269 16 269 51.5 353.5 c 128,-1,38
 87 438 87 438 147 501.5 c 128,-1,39
 207 565 207 565 292.5 603.5 c 128,-1,40
 378 642 378 642 473 642 c 0,41,42
 635 642 635 642 733 554 c 128,-1,43
 831 466 831 466 831 322.5 c 128,-1,44
 831 179 831 179 738.5 83.5 c 128,-1,45
 646 -12 646 -12 485 -12 c 0,0,1
337 105 m 0,46,47
 359 105 359 105 405 180 c 128,-1,48
 451 255 451 255 490 358 c 1,49,50
 439 387 439 387 402 387 c 0,51,52
 370 387 370 387 343 325 c 128,-1,53
 316 263 316 263 316 189 c 0,54,55
 316 154 316 154 322 129.5 c 128,-1,56
 328 105 328 105 337 105 c 0,46,47
EndSplineSet
EndChar

StartChar: A
Encoding: 65 65 36
Width: 604
GlyphClass: 2
Flags: W
LayerCount: 2
Fore
SplineSet
578 -3 m 1,0,1
 501 0 501 0 462 0 c 0,2,3
 386 0 386 0 294 -8 c 1,4,-1
 290 0 l 1,5,-1
 302 59 l 1,6,7
 350 63 350 63 365.5 71 c 128,-1,8
 381 79 381 79 381 101 c 0,9,10
 381 113 381 113 370 207 c 1,11,12
 344 209 344 209 290 209 c 128,-1,13
 236 209 236 209 190 202 c 1,14,-1
 158 125 l 2,15,16
 148 101 148 101 148 88 c 0,17,18
 148 62 148 62 187 62 c 2,19,-1
 229 62 l 1,20,-1
 232 56 l 1,21,-1
 218 -6 l 1,22,23
 139 0 139 0 78 0 c 1,24,-1
 -39 -3 l 1,25,-1
 -24 63 l 1,26,27
 19 70 19 70 47 130 c 2,28,-1
 277 636 l 1,29,-1
 434 653 l 1,30,-1
 445 648 l 1,31,32
 491 303 491 303 522 131 c 0,33,34
 528 95 528 95 542 80.5 c 128,-1,35
 556 66 556 66 588 62 c 1,36,-1
 592 55 l 1,37,-1
 578 -3 l 1,0,1
292 285 m 2,38,39
 319 285 319 285 363 289 c 1,40,-1
 335 512 l 1,41,-1
 321 512 l 1,42,-1
 225 285 l 1,43,-1
 292 285 l 2,38,39
EndSplineSet
EndChar

StartChar: B
Encoding: 66 66 37
Width: 607
GlyphClass: 2
Flags: W
LayerCount: 2
Fore
SplineSet
297 -10 m 1,0,-1
 149 0 l 1,1,2
 99 0 99 0 5 -10 c 1,3,-1
 20 56 l 1,4,5
 63 64 63 64 80 80.5 c 128,-1,6
 97 97 97 97 101 136 c 0,7,8
 151 536 151 536 151 548 c 128,-1,9
 151 560 151 560 146.5 569 c 128,-1,10
 142 578 142 578 125 578 c 1,11,-1
 92 576 l 1,12,-1
 86 584 l 1,13,-1
 103 644 l 1,14,15
 203 641 203 641 237 641 c 1,16,-1
 377 647 l 1,17,18
 470 647 470 647 522 611.5 c 128,-1,19
 574 576 574 576 574 511 c 0,20,21
 574 403 574 403 450 339 c 1,22,23
 507 321 507 321 538 285.5 c 128,-1,24
 569 250 569 250 569 203 c 0,25,26
 569 108 569 108 494 49 c 128,-1,27
 419 -10 419 -10 297 -10 c 1,0,-1
226 121 m 0,28,29
 226 98 226 98 244 86 c 128,-1,30
 262 74 262 74 312 74 c 128,-1,31
 362 74 362 74 392 104.5 c 128,-1,32
 422 135 422 135 422 187 c 0,33,34
 422 262 422 262 338 282 c 1,35,-1
 250 281 l 1,36,37
 226 127 226 127 226 121 c 0,28,29
432 481 m 0,38,39
 432 566 432 566 312 566 c 0,40,41
 302 566 302 566 298 562 c 0,42,43
 290 555 290 555 262 368 c 1,44,45
 335 359 335 359 352 359 c 1,46,47
 363 362 363 362 378.5 373.5 c 128,-1,48
 394 385 394 385 404 398 c 1,49,50
 432 430 432 430 432 481 c 0,38,39
EndSplineSet
EndChar

StartChar: C
Encoding: 67 67 38
Width: 594
GlyphClass: 2
Flags: W
LayerCount: 2
Fore
SplineSet
502 28 m 1,0,1
 414 -12 414 -12 293 -12 c 128,-1,2
 172 -12 172 -12 102 59.5 c 128,-1,3
 32 131 32 131 32 256 c 0,4,5
 32 437 32 437 132.5 545 c 128,-1,6
 233 653 233 653 402 653 c 0,7,8
 473 653 473 653 599 629 c 1,9,-1
 603 616 l 1,10,11
 573 533 573 533 554 428 c 1,12,-1
 457 422 l 1,13,14
 466 469 466 469 466 488 c 0,15,16
 466 559 466 559 367 559 c 0,17,18
 282 559 282 559 235 485.5 c 128,-1,19
 188 412 188 412 188 275 c 0,20,21
 188 180 188 180 221.5 130 c 128,-1,22
 255 80 255 80 313 80 c 128,-1,23
 371 80 371 80 403 112 c 128,-1,24
 435 144 435 144 457 218 c 1,25,-1
 554 225 l 1,26,27
 525 122 525 122 512 40 c 1,28,-1
 502 28 l 1,0,1
EndSplineSet
EndChar

StartChar: D
Encoding: 68 68 39
Width: 668
GlyphClass: 2
Flags: W
LayerCount: 2
Fore
SplineSet
283 -12 m 1,0,1
 188 0 188 0 149 0 c 0,2,3
 87 0 87 0 7 -10 c 1,4,-1
 22 57 l 1,5,6
 63 64 63 64 79.5 81.5 c 128,-1,7
 96 99 96 99 102 141 c 0,8,9
 151 537 151 537 151 548.5 c 128,-1,10
 151 560 151 560 147 568.5 c 128,-1,11
 143 577 143 577 126 577 c 1,12,-1
 93 575 l 1,13,-1
 89 584 l 1,14,-1
 104 644 l 1,15,16
 189 641 189 641 227 641 c 1,17,-1
 372 646 l 1,18,19
 504 646 504 646 581.5 577.5 c 128,-1,20
 659 509 659 509 659 388 c 0,21,22
 659 216 659 216 552 102 c 128,-1,23
 445 -12 445 -12 283 -12 c 1,0,1
320 562 m 0,24,25
 304 562 304 562 298 557 c 128,-1,26
 292 552 292 552 290 538 c 0,27,28
 227 153 227 153 227 123.5 c 128,-1,29
 227 94 227 94 242.5 83 c 128,-1,30
 258 72 258 72 299 72 c 0,31,32
 394 72 394 72 449 153.5 c 128,-1,33
 504 235 504 235 504 376 c 0,34,35
 504 562 504 562 320 562 c 0,24,25
EndSplineSet
EndChar

StartChar: E
Encoding: 69 69 40
Width: 576
GlyphClass: 2
Flags: W
LayerCount: 2
Fore
SplineSet
262 369 m 1,0,-1
 352 368 l 1,1,-1
 465 376 l 1,2,-1
 471 368 l 1,3,-1
 447 283 l 1,4,5
 370 286 370 286 334.5 286 c 128,-1,6
 299 286 299 286 248 280 c 1,7,8
 225 123 225 123 225 106.5 c 128,-1,9
 225 90 225 90 236 83.5 c 128,-1,10
 247 77 247 77 282 77 c 0,11,12
 371 77 371 77 398.5 96 c 128,-1,13
 426 115 426 115 446 191 c 1,14,-1
 529 198 l 1,15,-1
 535 188 l 1,16,17
 506 99 506 99 485 3 c 1,18,-1
 474 -7 l 1,19,20
 295 0 295 0 216 0 c 0,21,22
 99 0 99 0 5 -10 c 1,23,-1
 21 57 l 1,24,25
 62 63 62 63 78.5 81 c 128,-1,26
 95 99 95 99 100 142 c 0,27,28
 150 539 150 539 150 550.5 c 128,-1,29
 150 562 150 562 146.5 570 c 128,-1,30
 143 578 143 578 124 578 c 1,31,-1
 94 576 l 1,32,-1
 89 585 l 1,33,-1
 104 644 l 1,34,35
 210 641 210 641 349 641 c 128,-1,36
 488 641 488 641 578 653 c 1,37,-1
 584 643 l 1,38,39
 556 555 556 555 540 462 c 1,40,-1
 450 456 l 1,41,42
 458 491 458 491 458 517 c 128,-1,43
 458 543 458 543 436 551.5 c 128,-1,44
 414 560 414 560 361.5 560 c 128,-1,45
 309 560 309 560 300.5 555 c 128,-1,46
 292 550 292 550 288 527 c 2,47,-1
 262 369 l 1,0,-1
EndSplineSet
EndChar

StartChar: F
Encoding: 70 70 41
Width: 514
GlyphClass: 2
Flags: W
LayerCount: 2
Fore
SplineSet
246 262 m 1,0,1
 226 126 226 126 226 112 c 128,-1,2
 226 98 226 98 232 87 c 128,-1,3
 238 76 238 76 262 76 c 1,4,-1
 325 81 l 1,5,-1
 332 71 l 1,6,-1
 313 -4 l 1,7,8
 211 0 211 0 170 0 c 0,9,10
 106 0 106 0 5 -11 c 1,11,-1
 20 55 l 1,12,13
 62 63 62 63 78.5 81 c 128,-1,14
 95 99 95 99 100 142 c 0,15,16
 150 539 150 539 150 550.5 c 128,-1,17
 150 562 150 562 146.5 570 c 128,-1,18
 143 578 143 578 124 578 c 1,19,-1
 94 576 l 1,20,-1
 89 585 l 1,21,-1
 104 644 l 1,22,23
 210 641 210 641 340.5 641 c 128,-1,24
 471 641 471 641 555 653 c 1,25,-1
 561 643 l 1,26,27
 535 553 535 553 519 461 c 1,28,-1
 430 455 l 1,29,30
 438 491 438 491 438 517 c 128,-1,31
 438 543 438 543 419 551.5 c 128,-1,32
 400 560 400 560 354.5 560 c 128,-1,33
 309 560 309 560 300.5 555 c 128,-1,34
 292 550 292 550 288 527 c 2,35,-1
 260 352 l 1,36,-1
 350 351 l 1,37,-1
 452 359 l 1,38,-1
 458 351 l 1,39,-1
 435 266 l 1,40,41
 364 269 364 269 325 269 c 128,-1,42
 286 269 286 269 246 262 c 1,0,1
EndSplineSet
EndChar

StartChar: G
Encoding: 71 71 42
Width: 629
GlyphClass: 2
Flags: W
LayerCount: 2
Fore
SplineSet
415 326 m 1,0,-1
 466 325 l 1,1,-1
 491 325 l 2,2,3
 526 325 526 325 556 327 c 128,-1,4
 586 329 586 329 586 330 c 2,5,-1
 588 292 l 1,6,7
 553 270 553 270 544 210 c 1,8,9
 527 123 527 123 527 74 c 1,10,-1
 528 41 l 1,11,-1
 518 29 l 1,12,13
 488 14 488 14 422 1 c 128,-1,14
 356 -12 356 -12 294 -12 c 0,15,16
 172 -12 172 -12 102 59.5 c 128,-1,17
 32 131 32 131 32 256 c 0,18,19
 32 437 32 437 132.5 545 c 128,-1,20
 233 653 233 653 402 653 c 0,21,22
 473 653 473 653 599 629 c 1,23,-1
 603 616 l 1,24,25
 573 540 573 540 554 435 c 1,26,-1
 457 428 l 1,27,28
 466 471 466 471 466 490 c 0,29,30
 466 559 466 559 367 559 c 0,31,32
 282 559 282 559 235 485.5 c 128,-1,33
 188 412 188 412 188 275 c 0,34,35
 188 180 188 180 221.5 130 c 128,-1,36
 255 80 255 80 319 80 c 0,37,38
 344 80 344 80 368.5 86.5 c 128,-1,39
 393 93 393 93 416 106 c 1,40,41
 428 209 428 209 428 221 c 128,-1,42
 428 233 428 233 422 241 c 128,-1,43
 416 249 416 249 391 249 c 2,44,-1
 341 249 l 1,45,-1
 337 257 l 1,46,-1
 356 327 l 1,47,-1
 360 327 l 1,48,-1
 392 326 l 1,49,-1
 415 326 l 1,0,-1
EndSplineSet
EndChar

StartChar: H
Encoding: 72 72 43
Width: 720
GlyphClass: 2
Flags: W
LayerCount: 2
Fore
SplineSet
663 67 m 1,0,-1
 667 60 l 1,1,-1
 651 -3 l 1,2,3
 584 0 584 0 532 0 c 2,4,-1
 492 0 l 1,5,-1
 374 -2 l 1,6,-1
 390 63 l 1,7,8
 430 64 430 64 446.5 82.5 c 128,-1,9
 463 101 463 101 470 155 c 2,10,-1
 486 284 l 1,11,12
 418 285 418 285 383 285 c 1,13,-1
 247 275 l 1,14,15
 226 107 226 107 226 101 c 128,-1,16
 226 95 226 95 226 85 c 0,17,18
 228 64 228 64 256 64 c 1,19,-1
 291 67 l 1,20,-1
 295 60 l 1,21,-1
 279 -3 l 1,22,23
 197 0 197 0 165 0 c 128,-1,24
 133 0 133 0 96 -2 c 0,25,26
 6 -5 6 -5 6 -9 c 2,27,-1
 21 55 l 1,28,29
 67 65 67 65 82 83.5 c 128,-1,30
 97 102 97 102 103 156 c 0,31,32
 150 540 150 540 150 551 c 128,-1,33
 150 562 150 562 145.5 570 c 128,-1,34
 141 578 141 578 120 578 c 2,35,-1
 91 577 l 1,36,-1
 87 585 l 1,37,-1
 101 643 l 1,38,39
 177 641 177 641 217 641 c 1,40,-1
 364 649 l 1,41,-1
 351 583 l 1,42,43
 314 577 314 577 302.5 564.5 c 128,-1,44
 291 552 291 552 285 511 c 2,45,-1
 261 367 l 1,46,47
 303 367 303 367 373 366 c 128,-1,48
 443 365 443 365 496 372 c 1,49,50
 518 538 518 538 518 549 c 128,-1,51
 518 560 518 560 513 569 c 128,-1,52
 508 578 508 578 488 578 c 2,53,-1
 458 577 l 1,54,-1
 454 585 l 1,55,-1
 469 643 l 1,56,57
 575 641 575 641 605 641 c 1,58,-1
 735 649 l 1,59,-1
 723 584 l 1,60,61
 687 579 687 579 674 568.5 c 128,-1,62
 661 558 661 558 656 529 c 0,63,64
 637 421 637 421 615.5 278.5 c 128,-1,65
 594 136 594 136 594 109.5 c 128,-1,66
 594 83 594 83 601.5 73.5 c 128,-1,67
 609 64 609 64 627 64 c 1,68,-1
 663 67 l 1,0,-1
EndSplineSet
EndChar

StartChar: I
Encoding: 73 73 44
Width: 352
GlyphClass: 2
Flags: W
LayerCount: 2
Fore
SplineSet
97 643 m 1,0,-1
 232 641 l 1,1,-1
 371 649 l 1,2,-1
 357 583 l 1,3,4
 320 578 320 578 306.5 567.5 c 128,-1,5
 293 557 293 557 288 529 c 0,6,7
 225 164 225 164 225 104 c 0,8,9
 225 81 225 81 232 72.5 c 128,-1,10
 239 64 239 64 256 64 c 1,11,-1
 298 67 l 1,12,-1
 301 60 l 1,13,-1
 285 -3 l 1,14,15
 185 0 185 0 152 0 c 0,16,17
 84 0 84 0 5 -9 c 1,18,-1
 20 55 l 1,19,20
 63 64 63 64 79.5 81 c 128,-1,21
 96 98 96 98 101 139 c 0,22,23
 150 540 150 540 150 550.5 c 128,-1,24
 150 561 150 561 145.5 569.5 c 128,-1,25
 141 578 141 578 120 578 c 2,26,-1
 87 577 l 1,27,-1
 83 585 l 1,28,-1
 97 643 l 1,0,-1
EndSplineSet
EndChar

StartChar: J
Encoding: 74 74 45
Width: 321
GlyphClass: 2
Flags: W
LayerCount: 2
Fore
SplineSet
89 123 m 0,0,1
 141 540 141 540 141 550.5 c 128,-1,2
 141 561 141 561 136.5 569.5 c 128,-1,3
 132 578 132 578 113 578 c 1,4,-1
 71 575 l 1,5,-1
 68 583 l 1,6,-1
 82 641 l 1,7,-1
 202 642 l 2,8,9
 262 642 262 642 350 650 c 1,10,-1
 336 583 l 1,11,12
 304 577 304 577 294 567.5 c 128,-1,13
 284 558 284 558 279 529 c 0,14,15
 240 306 240 306 215 102 c 0,16,17
 202 2 202 2 146 -58.5 c 128,-1,18
 90 -119 90 -119 -19 -153 c 1,19,-1
 -42 -113 l 1,20,-1
 -38 -102 l 1,21,22
 26 -61 26 -61 51.5 -15.5 c 128,-1,23
 77 30 77 30 89 123 c 0,0,1
EndSplineSet
EndChar

StartChar: K
Encoding: 75 75 46
Width: 637
GlyphClass: 2
Flags: W
LayerCount: 2
Fore
SplineSet
101 139 m 0,0,1
 150 540 150 540 150 551 c 128,-1,2
 150 562 150 562 145.5 570 c 128,-1,3
 141 578 141 578 120 578 c 2,4,-1
 91 577 l 1,5,-1
 87 585 l 1,6,-1
 102 644 l 1,7,8
 205 641 205 641 232 641 c 1,9,-1
 367 649 l 1,10,-1
 354 583 l 1,11,12
 317 576 317 576 303 564 c 128,-1,13
 289 552 289 552 285 525 c 2,14,-1
 227 132 l 2,15,16
 225 113 225 113 225 99 c 128,-1,17
 225 85 225 85 228 78 c 0,18,19
 233 64 233 64 256 64 c 1,20,-1
 294 67 l 1,21,-1
 298 60 l 1,22,-1
 281 -3 l 1,23,24
 184 0 184 0 142 0 c 2,25,-1
 6 -3 l 1,26,-1
 23 60 l 1,27,28
 66 67 66 67 81 82 c 128,-1,29
 96 97 96 97 101 139 c 0,0,1
431 495 m 2,30,31
 466 530 466 530 466 553 c 128,-1,32
 466 576 466 576 420 579 c 1,33,-1
 417 586 l 1,34,-1
 432 647 l 1,35,36
 513 641 513 641 553 641 c 1,37,-1
 667 646 l 1,38,-1
 672 635 l 1,39,-1
 658 579 l 1,40,41
 624 566 624 566 597 544.5 c 128,-1,42
 570 523 570 523 526 476 c 2,43,-1
 404 347 l 1,44,-1
 506 145 l 2,45,46
 529 99 529 99 551 79 c 128,-1,47
 573 59 573 59 604 57 c 1,48,-1
 610 49 l 1,49,-1
 596 -3 l 1,50,51
 498 -15 498 -15 481 -15 c 0,52,53
 424 -15 424 -15 384 69 c 2,54,-1
 269 316 l 1,55,-1
 274 337 l 1,56,-1
 431 495 l 2,30,31
EndSplineSet
EndChar

StartChar: L
Encoding: 76 76 47
Width: 513
GlyphClass: 2
Flags: W
LayerCount: 2
Fore
SplineSet
101 643 m 1,0,-1
 232 641 l 1,1,-1
 383 649 l 1,2,-1
 368 580 l 1,3,4
 321 574 321 574 306.5 561.5 c 128,-1,5
 292 549 292 549 280.5 487 c 128,-1,6
 269 425 269 425 248 284.5 c 128,-1,7
 227 144 227 144 227 119 c 128,-1,8
 227 94 227 94 238 85.5 c 128,-1,9
 249 77 249 77 280 77 c 0,10,11
 348 77 348 77 374 104.5 c 128,-1,12
 400 132 400 132 422 228 c 1,13,-1
 506 236 l 1,14,-1
 512 227 l 1,15,16
 483 119 483 119 458 2 c 1,17,-1
 447 -8 l 1,18,19
 292 0 292 0 216 0 c 0,20,21
 102 0 102 0 10 -10 c 1,22,-1
 26 57 l 1,23,24
 64 63 64 63 79.5 81 c 128,-1,25
 95 99 95 99 100 142 c 0,26,27
 150 539 150 539 150 550 c 128,-1,28
 150 561 150 561 145 569.5 c 128,-1,29
 140 578 140 578 119 578 c 2,30,-1
 90 577 l 1,31,-1
 86 585 l 1,32,-1
 101 643 l 1,0,-1
EndSplineSet
EndChar

StartChar: M
Encoding: 77 77 48
Width: 811
GlyphClass: 2
Flags: W
LayerCount: 2
Fore
SplineSet
587 643 m 1,0,-1
 680 642 l 2,1,2
 697 642 697 642 805 647 c 1,3,-1
 809 643 l 1,4,-1
 795 583 l 1,5,6
 754 580 754 580 738.5 569 c 128,-1,7
 723 558 723 558 720 530 c 0,8,9
 708 425 708 425 701 156 c 0,10,11
 701 144 701 144 701 121 c 128,-1,12
 701 98 701 98 707 81 c 128,-1,13
 713 64 713 64 736 64 c 1,14,-1
 764 66 l 1,15,-1
 767 61 l 1,16,-1
 751 -3 l 1,17,18
 693 0 693 0 661.5 0 c 128,-1,19
 630 0 630 0 572 -3 c 128,-1,20
 514 -6 514 -6 509 -8 c 1,21,-1
 525 58 l 1,22,23
 554 62 554 62 567.5 73.5 c 128,-1,24
 581 85 581 85 584 108 c 1,25,-1
 608 449 l 1,26,-1
 599 449 l 1,27,28
 482 192 482 192 397 -8 c 1,29,-1
 324 -16 l 1,30,31
 282 216 282 216 235 449 c 1,32,-1
 227 449 l 1,33,34
 164 106 164 106 164 90 c 0,35,36
 164 64 164 64 191 64 c 2,37,-1
 224 65 l 1,38,-1
 229 60 l 1,39,-1
 210 -4 l 1,40,41
 127 0 127 0 95 0 c 1,42,-1
 -3 -8 l 1,43,-1
 12 58 l 1,44,45
 41 62 41 62 55.5 77.5 c 128,-1,46
 70 93 70 93 78 130 c 0,47,48
 163 520 163 520 163 540.5 c 128,-1,49
 163 561 163 561 148.5 570 c 128,-1,50
 134 579 134 579 96 582 c 1,51,-1
 91 588 l 1,52,-1
 107 646 l 1,53,54
 194 641 194 641 229 641 c 1,55,-1
 336 645 l 1,56,57
 366 431 366 431 407 230 c 1,58,-1
 415 230 l 1,59,60
 499 419 499 419 587 643 c 1,0,-1
EndSplineSet
EndChar

StartChar: N
Encoding: 78 78 49
Width: 703
GlyphClass: 2
Flags: W
LayerCount: 2
Fore
SplineSet
520 578 m 2,0,-1
 487 577 l 1,1,-1
 484 585 l 1,2,-1
 498 645 l 1,3,4
 580 641 580 641 623 641 c 1,5,-1
 738 647 l 1,6,-1
 725 581 l 1,7,8
 693 576 693 576 677 562 c 128,-1,9
 661 548 661 548 657 518 c 2,10,-1
 579 -15 l 1,11,-1
 473 -28 l 1,12,13
 373 188 373 188 249 423 c 1,14,-1
 240 423 l 1,15,16
 199 100 199 100 199 90 c 128,-1,17
 199 80 199 80 204 71.5 c 128,-1,18
 209 63 209 63 228 63 c 2,19,-1
 269 65 l 1,20,-1
 274 59 l 1,21,-1
 257 -4 l 1,22,23
 174 0 174 0 142 0 c 0,24,25
 86 0 86 0 12 -8 c 1,26,-1
 28 58 l 1,27,28
 85 65 85 65 93 121 c 0,29,30
 155 524 155 524 155 538.5 c 128,-1,31
 155 553 155 553 142.5 564 c 128,-1,32
 130 575 130 575 83 580 c 1,33,-1
 77 590 l 1,34,-1
 90 646 l 1,35,36
 154 641 154 641 203 641 c 1,37,-1
 296 645 l 1,38,39
 380 464 380 464 501 230 c 1,40,-1
 511 230 l 1,41,42
 546 539 546 539 546 545 c 0,43,44
 546 578 546 578 520 578 c 2,0,-1
EndSplineSet
EndChar

StartChar: O
Encoding: 79 79 50
Width: 650
GlyphClass: 2
Flags: W
LayerCount: 2
Fore
SplineSet
311 73 m 0,0,1
 391 73 391 73 438 151.5 c 128,-1,2
 485 230 485 230 485 371 c 0,3,4
 485 459 485 459 450.5 509 c 128,-1,5
 416 559 416 559 356 559 c 0,6,7
 277 559 277 559 231 480 c 128,-1,8
 185 401 185 401 185 261 c 0,9,10
 185 173 185 173 218.5 123 c 128,-1,11
 252 73 252 73 311 73 c 0,0,1
285 -12 m 0,12,13
 170 -12 170 -12 101 60 c 128,-1,14
 32 132 32 132 32 255 c 0,15,16
 32 433 32 433 129 543 c 128,-1,17
 226 653 226 653 385 653 c 0,18,19
 503 653 503 653 572 583 c 128,-1,20
 641 513 641 513 641 390 c 0,21,22
 641 212 641 212 542 100 c 128,-1,23
 443 -12 443 -12 285 -12 c 0,12,13
EndSplineSet
EndChar

StartChar: P
Encoding: 80 80 51
Width: 558
GlyphClass: 2
Flags: W
LayerCount: 2
Fore
SplineSet
102 643 m 1,0,-1
 223 641 l 1,1,-1
 362 646 l 1,2,3
 475 646 475 646 529 599.5 c 128,-1,4
 583 553 583 553 583 481 c 0,5,6
 583 382 583 382 505 305 c 128,-1,7
 427 228 427 228 328 228 c 2,8,-1
 241 228 l 1,9,10
 224 112 224 112 224 98.5 c 128,-1,11
 224 85 224 85 230.5 74.5 c 128,-1,12
 237 64 237 64 265 64 c 1,13,-1
 307 67 l 1,14,-1
 310 61 l 1,15,-1
 293 -3 l 1,16,17
 207 0 207 0 178 0 c 128,-1,18
 149 0 149 0 109 -2 c 0,19,20
 10 -7 10 -7 9 -8 c 2,21,-1
 24 58 l 1,22,23
 65 66 65 66 80.5 82.5 c 128,-1,24
 96 99 96 99 101 141 c 0,25,26
 150 538 150 538 150 549.5 c 128,-1,27
 150 561 150 561 146 569.5 c 128,-1,28
 142 578 142 578 125 578 c 2,29,-1
 91 576 l 1,30,-1
 86 584 l 1,31,-1
 102 643 l 1,0,-1
443 461 m 0,32,33
 443 514 443 514 411.5 538.5 c 128,-1,34
 380 563 380 563 314 563 c 0,35,36
 300 563 300 563 297 560.5 c 128,-1,37
 294 558 294 558 281.5 490.5 c 128,-1,38
 269 423 269 423 254 315 c 1,39,-1
 336 303 l 1,40,41
 443 327 443 327 443 461 c 0,32,33
EndSplineSet
EndChar

StartChar: Q
Encoding: 81 81 52
Width: 654
GlyphClass: 2
Flags: W
LayerCount: 2
Fore
SplineSet
32 255 m 0,0,1
 32 433 32 433 129 543 c 128,-1,2
 226 653 226 653 385 653 c 0,3,4
 503 653 503 653 572 583 c 128,-1,5
 641 513 641 513 641 381.5 c 128,-1,6
 641 250 641 250 578 149 c 128,-1,7
 515 48 515 48 408 9 c 1,8,-1
 408 6 l 1,9,10
 545 -108 545 -108 651 -108 c 0,11,12
 690 -108 690 -108 734 -98 c 1,13,-1
 741 -104 l 1,14,-1
 747 -145 l 1,15,16
 634 -227 634 -227 607 -227 c 0,17,18
 543 -227 543 -227 482.5 -187.5 c 128,-1,19
 422 -148 422 -148 280 -12 c 1,20,21
 167 -10 167 -10 99.5 61.5 c 128,-1,22
 32 133 32 133 32 255 c 0,0,1
311 73 m 0,23,24
 391 73 391 73 438 151.5 c 128,-1,25
 485 230 485 230 485 371 c 0,26,27
 485 459 485 459 450.5 509 c 128,-1,28
 416 559 416 559 356 559 c 0,29,30
 277 559 277 559 231 480 c 128,-1,31
 185 401 185 401 185 261 c 0,32,33
 185 173 185 173 218.5 123 c 128,-1,34
 252 73 252 73 311 73 c 0,23,24
EndSplineSet
EndChar

StartChar: R
Encoding: 82 82 53
Width: 621
GlyphClass: 2
Flags: W
LayerCount: 2
Fore
SplineSet
244 253 m 1,0,1
 226 118 226 118 226 101.5 c 128,-1,2
 226 85 226 85 234 74.5 c 128,-1,3
 242 64 242 64 288 63 c 1,4,-1
 291 57 l 1,5,-1
 274 -4 l 1,6,7
 188 -1 188 -1 145 -1 c 1,8,-1
 5 -6 l 1,9,-1
 22 60 l 1,10,11
 64 66 64 66 80 82.5 c 128,-1,12
 96 99 96 99 101 141 c 0,13,14
 150 538 150 538 150 550 c 128,-1,15
 150 562 150 562 146 570 c 128,-1,16
 142 578 142 578 125 578 c 2,17,-1
 91 576 l 1,18,-1
 86 584 l 1,19,-1
 102 644 l 1,20,21
 185 641 185 641 223 641 c 1,22,-1
 363 646 l 1,23,24
 466 646 466 646 524 606.5 c 128,-1,25
 582 567 582 567 582 496 c 0,26,27
 582 358 582 358 434 285 c 1,28,-1
 499 142 l 2,29,30
 521 96 521 96 543.5 76 c 128,-1,31
 566 56 566 56 596 56 c 1,32,-1
 602 47 l 1,33,-1
 589 -5 l 1,34,-1
 472 -16 l 1,35,36
 409 -16 409 -16 377 77 c 2,37,-1
 317 253 l 1,38,-1
 244 253 l 1,0,1
441 473 m 0,39,40
 441 566 441 566 310 566 c 0,41,42
 300 566 300 566 296 562 c 0,43,44
 288 553 288 553 257 340 c 1,45,-1
 343 330 l 1,46,47
 441 370 441 370 441 473 c 0,39,40
EndSplineSet
EndChar

StartChar: S
Encoding: 83 83 54
Width: 521
GlyphClass: 2
Flags: W
LayerCount: 2
Fore
SplineSet
193 -12 m 0,0,1
 148 -12 148 -12 104 -2.5 c 128,-1,2
 60 7 60 7 17 26 c 1,3,-1
 10 40 l 1,4,5
 37 126 37 126 48 209 c 1,6,-1
 131 216 l 1,7,8
 127 188 127 188 127 156 c 128,-1,9
 127 124 127 124 140 105 c 1,10,11
 158 75 158 75 212.5 75 c 128,-1,12
 267 75 267 75 297.5 98.5 c 128,-1,13
 328 122 328 122 328 156 c 128,-1,14
 328 190 328 190 302 212 c 128,-1,15
 276 234 276 234 234.5 256.5 c 128,-1,16
 193 279 193 279 179 287 c 128,-1,17
 165 295 165 295 139.5 313.5 c 128,-1,18
 114 332 114 332 102 348 c 0,19,20
 69 390 69 390 69 438 c 0,21,22
 69 531 69 531 146 592 c 128,-1,23
 223 653 223 653 343 653 c 0,24,25
 429 653 429 653 494 634 c 1,26,-1
 515 627 l 1,27,-1
 521 614 l 1,28,29
 494 534 494 534 477 443 c 1,30,-1
 402 437 l 1,31,-1
 394 443 l 1,32,33
 401 477 401 477 401 495 c 0,34,35
 401 531 401 531 381 546.5 c 128,-1,36
 361 562 361 562 317 562 c 128,-1,37
 273 562 273 562 244.5 539 c 128,-1,38
 216 516 216 516 216 482 c 0,39,40
 216 440 216 440 286 398 c 0,41,42
 296 392 296 392 334.5 372 c 128,-1,43
 373 352 373 352 389.5 340.5 c 128,-1,44
 406 329 406 329 432 308 c 1,45,46
 479 267 479 267 479 205 c 0,47,48
 479 108 479 108 401 48 c 128,-1,49
 323 -12 323 -12 193 -12 c 0,0,1
EndSplineSet
EndChar

StartChar: T
Encoding: 84 84 55
Width: 549
GlyphClass: 2
Flags: W
LayerCount: 2
Fore
SplineSet
486 441 m 0,0,1
 486 523 486 523 472.5 543 c 128,-1,2
 459 563 459 563 388 566 c 1,3,4
 374 488 374 488 348.5 315 c 128,-1,5
 323 142 323 142 323 115.5 c 128,-1,6
 323 89 323 89 333.5 77 c 128,-1,7
 344 65 344 65 368 65 c 1,8,-1
 421 68 l 1,9,-1
 424 63 l 1,10,-1
 407 -4 l 1,11,12
 289 0 289 0 238 0 c 1,13,-1
 75 -6 l 1,14,-1
 91 59 l 1,15,16
 155 65 155 65 173.5 83 c 128,-1,17
 192 101 192 101 200 165 c 2,18,-1
 249 566 l 1,19,20
 193 564 193 564 175.5 556.5 c 128,-1,21
 158 549 158 549 151 542.5 c 128,-1,22
 144 536 144 536 136 518 c 0,23,24
 124 493 124 493 112 435 c 1,25,-1
 29 429 l 1,26,27
 52 545 52 545 66 642 c 1,28,-1
 79 653 l 1,29,-1
 173 642 l 1,30,-1
 475 642 l 1,31,-1
 576 653 l 1,32,-1
 585 642 l 1,33,-1
 569 435 l 1,34,-1
 486 429 l 1,35,36
 486 435 486 435 486 441 c 0,0,1
EndSplineSet
EndChar

StartChar: U
Encoding: 85 85 56
Width: 631
GlyphClass: 2
Flags: W
LayerCount: 2
Fore
SplineSet
211 193 m 0,0,1
 211 137 211 137 236.5 107 c 128,-1,2
 262 77 262 77 312 77 c 0,3,4
 428 77 428 77 444 209 c 0,5,6
 481 534 481 534 481 547.5 c 128,-1,7
 481 561 481 561 477.5 569.5 c 128,-1,8
 474 578 474 578 456 578 c 1,9,-1
 424 576 l 1,10,-1
 422 580 l 1,11,-1
 438 644 l 1,12,13
 514 641 514 641 550 641 c 1,14,-1
 667 648 l 1,15,-1
 653 582 l 1,16,17
 616 575 616 575 605 566 c 128,-1,18
 594 557 594 557 591 532 c 2,19,-1
 552 219 l 2,20,21
 538 106 538 106 468.5 47 c 128,-1,22
 399 -12 399 -12 280 -12 c 0,23,24
 75 -12 75 -12 75 165 c 0,25,26
 75 181 75 181 97.5 360 c 128,-1,27
 120 539 120 539 120 550.5 c 128,-1,28
 120 562 120 562 116 570 c 128,-1,29
 112 578 112 578 92 578 c 1,30,-1
 62 576 l 1,31,-1
 60 580 l 1,32,-1
 77 644 l 1,33,34
 159 641 159 641 215 641 c 1,35,-1
 331 648 l 1,36,-1
 316 581 l 1,37,38
 285 577 285 577 272.5 565.5 c 128,-1,39
 260 554 260 554 256 528 c 2,40,-1
 213 237 l 1,41,42
 211 208 211 208 211 193 c 0,0,1
EndSplineSet
EndChar

StartChar: V
Encoding: 86 86 57
Width: 603
GlyphClass: 2
Flags: W
LayerCount: 2
Fore
SplineSet
52 644 m 1,0,1
 131 641 131 641 168 641 c 0,2,3
 224 641 224 641 339 650 c 1,4,-1
 342 642 l 1,5,-1
 330 582 l 1,6,7
 281 578 281 578 266 568.5 c 128,-1,8
 251 559 251 559 251 532 c 0,9,10
 251 487 251 487 288 129 c 1,11,-1
 303 129 l 1,12,13
 475 511 475 511 475 551 c 0,14,15
 475 579 475 579 430 579 c 2,16,-1
 392 579 l 1,17,-1
 388 586 l 1,18,-1
 402 647 l 1,19,20
 484 641 484 641 545 641 c 1,21,-1
 658 644 l 1,22,-1
 643 579 l 1,23,24
 619 575 619 575 608.5 565.5 c 128,-1,25
 598 556 598 556 584 527 c 2,26,-1
 349 5 l 1,27,-1
 184 -15 l 1,28,29
 137 325 137 325 104 516 c 1,30,31
 96 575 96 575 40 578 c 1,32,-1
 37 585 l 1,33,-1
 52 644 l 1,0,1
EndSplineSet
EndChar

StartChar: W
Encoding: 87 87 58
Width: 930
GlyphClass: 2
Flags: W
LayerCount: 2
Fore
SplineSet
53 644 m 1,0,1
 129 641 129 641 166 641 c 0,2,3
 228 641 228 641 329 650 c 1,4,-1
 333 642 l 1,5,-1
 321 582 l 1,6,7
 274 578 274 578 258.5 568.5 c 128,-1,8
 243 559 243 559 243 531 c 0,9,10
 243 462 243 462 278 129 c 1,11,-1
 292 129 l 1,12,13
 307 165 307 165 339 244 c 0,14,15
 404 404 404 404 442 491 c 1,16,17
 443 499 443 499 443 510.5 c 128,-1,18
 443 522 443 522 439 533 c 1,19,20
 437 558 437 558 422.5 567.5 c 128,-1,21
 408 577 408 577 374 578 c 1,22,-1
 370 585 l 1,23,-1
 386 644 l 1,24,25
 473 641 473 641 511 641 c 0,26,27
 570 641 570 641 676 650 c 1,28,-1
 680 642 l 1,29,-1
 668 582 l 1,30,31
 619 578 619 578 604 568.5 c 128,-1,32
 589 559 589 559 589 532 c 0,33,34
 589 477 589 477 625 129 c 1,35,-1
 639 129 l 1,36,37
 807 521 807 521 807 555 c 0,38,39
 807 568 807 568 797 573.5 c 128,-1,40
 787 579 787 579 763 579 c 2,41,-1
 727 579 l 1,42,-1
 723 586 l 1,43,-1
 738 647 l 1,44,45
 817 641 817 641 876 641 c 1,46,-1
 983 644 l 1,47,-1
 969 579 l 1,48,49
 946 575 946 575 935.5 565 c 128,-1,50
 925 555 925 555 912 527 c 2,51,-1
 681 5 l 1,52,-1
 522 -15 l 1,53,-1
 484 346 l 1,54,-1
 474 346 l 1,55,-1
 334 5 l 1,56,-1
 174 -15 l 1,57,58
 133 325 133 325 103 516 c 0,59,60
 97 548 97 548 83 562 c 128,-1,61
 69 576 69 576 42 578 c 1,62,-1
 38 585 l 1,63,-1
 53 644 l 1,0,1
EndSplineSet
EndChar

StartChar: X
Encoding: 88 88 59
Width: 659
GlyphClass: 2
Flags: W
LayerCount: 2
Fore
SplineSet
456 645 m 1,0,-1
 584 641 l 1,1,-1
 693 645 l 1,2,-1
 696 638 l 1,3,-1
 683 578 l 1,4,5
 639 564 639 564 611.5 542.5 c 128,-1,6
 584 521 584 521 543 472 c 2,7,-1
 421 322 l 1,8,-1
 513 150 l 2,9,10
 536 108 536 108 562.5 88.5 c 128,-1,11
 589 69 589 69 629 66 c 1,12,-1
 615 -2 l 1,13,14
 531 1 531 1 491 1 c 1,15,-1
 316 -7 l 1,16,-1
 312 0 l 1,17,-1
 324 59 l 1,18,19
 380 63 380 63 380 91 c 0,20,21
 380 104 380 104 369 124 c 2,22,-1
 304 254 l 1,23,-1
 228 159 l 2,24,25
 187 109 187 109 187 88 c 0,26,27
 187 64 187 64 230 61 c 1,28,-1
 233 55 l 1,29,-1
 220 -6 l 1,30,31
 128 1 128 1 94 1 c 1,32,-1
 -17 -4 l 1,33,-1
 -20 6 l 1,34,-1
 -8 65 l 1,35,36
 53 87 53 87 148 199 c 2,37,-1
 260 330 l 1,38,-1
 177 493 l 2,39,40
 156 533 156 533 130 551 c 128,-1,41
 104 569 104 569 63 576 c 1,42,-1
 61 581 l 1,43,-1
 76 644 l 1,44,45
 157 641 157 641 229 641 c 1,46,-1
 379 649 l 1,47,-1
 382 640 l 1,48,-1
 370 583 l 1,49,50
 309 580 309 580 309 551 c 0,51,52
 309 530 309 530 375 398 c 1,53,54
 384 410 384 410 420 455 c 0,55,56
 489 543 489 543 489 561.5 c 128,-1,57
 489 580 489 580 445 583 c 1,58,59
 444 587 444 587 444 588 c 2,60,-1
 456 645 l 1,0,-1
EndSplineSet
EndChar

StartChar: Y
Encoding: 89 89 60
Width: 578
GlyphClass: 2
Flags: W
LayerCount: 2
Fore
SplineSet
408 645 m 1,0,-1
 536 641 l 1,1,-1
 636 645 l 1,2,-1
 639 638 l 1,3,-1
 624 578 l 1,4,5
 584 565 584 565 557.5 538.5 c 128,-1,6
 531 512 531 512 492 450 c 0,7,8
 376 268 376 268 372.5 261.5 c 128,-1,9
 369 255 369 255 366.5 250.5 c 128,-1,10
 364 246 364 246 362 239 c 128,-1,11
 360 232 360 232 358.5 228 c 128,-1,12
 357 224 357 224 355.5 215.5 c 128,-1,13
 354 207 354 207 353 202.5 c 128,-1,14
 352 198 352 198 350.5 187 c 128,-1,15
 349 176 349 176 348 171 c 0,16,17
 347 154 347 154 344 135 c 128,-1,18
 341 116 341 116 341 102 c 128,-1,19
 341 88 341 88 347 76.5 c 128,-1,20
 353 65 353 65 380 65 c 1,21,-1
 428 68 l 1,22,-1
 431 63 l 1,23,-1
 414 -4 l 1,24,25
 303 0 303 0 266 0 c 0,26,27
 215 0 215 0 101 -11 c 1,28,-1
 116 56 l 1,29,30
 173 64 173 64 191.5 82 c 128,-1,31
 210 100 210 100 215 151 c 0,32,33
 220 192 220 192 220 218 c 128,-1,34
 220 244 220 244 204 285 c 2,35,-1
 133 475 l 2,36,37
 115 525 115 525 96.5 546 c 128,-1,38
 78 567 78 567 37 576 c 1,39,-1
 34 581 l 1,40,-1
 50 644 l 1,41,42
 136 641 136 641 174 641 c 1,43,-1
 330 649 l 1,44,-1
 334 640 l 1,45,-1
 321 583 l 1,46,47
 286 581 286 581 273.5 574 c 128,-1,48
 261 567 261 567 261 543.5 c 128,-1,49
 261 520 261 520 317 344 c 1,50,-1
 325 344 l 1,51,-1
 422 512 l 2,52,53
 441 544 441 544 441 562 c 128,-1,54
 441 580 441 580 395 583 c 1,55,-1
 393 588 l 1,56,-1
 408 645 l 1,0,-1
EndSplineSet
EndChar

StartChar: Z
Encoding: 90 90 61
Width: 560
GlyphClass: 2
Flags: W
LayerCount: 2
Fore
SplineSet
487 16 m 1,0,-1
 468 -3 l 1,1,-1
 88 3 l 1,2,-1
 13 -5 l 1,3,-1
 -5 39 l 1,4,-1
 398 570 l 1,5,-1
 275 562 l 2,6,7
 214 558 214 558 189 532 c 128,-1,8
 164 506 164 506 150 435 c 1,9,-1
 66 429 l 1,10,11
 95 552 95 552 108 644 c 1,12,-1
 120 654 l 1,13,-1
 291 643 l 1,14,-1
 574 639 l 1,15,-1
 586 599 l 1,16,17
 402 381 402 381 174 71 c 1,18,-1
 325 82 l 2,19,20
 373 86 373 86 403.5 122 c 128,-1,21
 434 158 434 158 455 237 c 1,22,-1
 539 244 l 1,23,24
 502 113 502 113 487 16 c 1,0,-1
EndSplineSet
EndChar

StartChar: bracketleft
Encoding: 91 91 62
Width: 307
GlyphClass: 2
Flags: W
LayerCount: 2
Fore
SplineSet
243 -132 m 1,0,-1
 34 -121 l 1,1,2
 79 155 79 155 91 255 c 1,3,-1
 127 634 l 1,4,-1
 341 645 l 1,5,-1
 344 637 l 1,6,-1
 330 580 l 1,7,-1
 229 560 l 1,8,-1
 154 -47 l 1,9,-1
 254 -68 l 1,10,-1
 257 -77 l 1,11,-1
 243 -132 l 1,0,-1
EndSplineSet
EndChar

StartChar: backslash
Encoding: 92 92 63
Width: 317
GlyphClass: 2
Flags: W
LayerCount: 2
Fore
SplineSet
63 660 m 1,0,-1
 77 675 l 1,1,-1
 158 675 l 1,2,3
 223 145 223 145 234 70.5 c 128,-1,4
 245 -4 245 -4 261 -99 c 1,5,-1
 251 -110 l 1,6,-1
 165 -110 l 1,7,8
 128 184 128 184 63 660 c 1,0,-1
EndSplineSet
EndChar

StartChar: bracketright
Encoding: 93 93 64
Width: 307
GlyphClass: 2
Flags: W
LayerCount: 2
Fore
SplineSet
71 645 m 1,0,-1
 280 634 l 1,1,2
 236 358 236 358 223 258 c 1,3,-1
 187 -121 l 1,4,-1
 -28 -132 l 1,5,-1
 -31 -124 l 1,6,-1
 -16 -68 l 1,7,-1
 85 -47 l 1,8,-1
 159 560 l 1,9,-1
 60 580 l 1,10,-1
 57 589 l 1,11,-1
 71 645 l 1,0,-1
EndSplineSet
EndChar

StartChar: asciicircum
Encoding: 94 94 65
Width: 470
GlyphClass: 2
Flags: W
LayerCount: 2
Fore
SplineSet
308 482 m 1,0,-1
 320 474 l 1,1,2
 355 353 355 353 376 282 c 1,3,-1
 428 118 l 1,4,-1
 359 76 l 1,5,-1
 343 81 l 1,6,7
 302 212 302 212 253 381 c 1,8,-1
 246 381 l 1,9,-1
 184 257 l 1,10,11
 146 189 146 189 94 77 c 1,12,-1
 20 97 l 1,13,-1
 14 110 l 1,14,15
 53 183 53 183 210 478 c 1,16,-1
 308 482 l 1,0,-1
EndSplineSet
EndChar

StartChar: underscore
Encoding: 95 95 66
Width: 437
GlyphClass: 2
Flags: W
LayerCount: 2
Fore
SplineSet
-37 -90 m 1,0,-1
 196 -91 l 2,1,2
 240 -91 240 -91 400 -87 c 1,3,-1
 406 -101 l 1,4,-1
 385 -178 l 1,5,-1
 -51 -180 l 1,6,-1
 -58 -166 l 1,7,-1
 -37 -90 l 1,0,-1
EndSplineSet
EndChar

StartChar: grave
Encoding: 96 96 67
Width: 384
GlyphClass: 2
Flags: W
LayerCount: 2
Fore
SplineSet
75 651 m 1,0,-1
 73 665 l 1,1,-1
 128 735 l 1,2,-1
 141 736 l 1,3,4
 226 646 226 646 309 566 c 1,5,-1
 279 527 l 1,6,-1
 263 523 l 1,7,8
 181 585 181 585 75 651 c 1,0,-1
EndSplineSet
EndChar

StartChar: a
Encoding: 97 97 68
Width: 493
GlyphClass: 2
Flags: W
LayerCount: 2
Fore
SplineSet
313 -12 m 0,0,1
 270 -12 270 -12 270 26 c 0,2,3
 270 57 270 57 304 193 c 1,4,-1
 296 194 l 1,5,6
 211 41 211 41 135 -12 c 1,7,8
 81 -12 81 -12 51 26.5 c 128,-1,9
 21 65 21 65 21 139 c 128,-1,10
 21 213 21 213 56.5 290.5 c 128,-1,11
 92 368 92 368 148.5 417 c 128,-1,12
 205 466 205 466 262 466 c 1,13,-1
 349 448 l 1,14,-1
 356 470 l 1,15,-1
 367 477 l 1,16,-1
 448 463 l 1,17,-1
 456 446 l 1,18,19
 408 267 408 267 384 109 c 1,20,-1
 388 105 l 1,21,22
 397 105 397 105 454 155 c 1,23,-1
 471 153 l 1,24,-1
 487 118 l 1,25,26
 417 44 417 44 379.5 16 c 128,-1,27
 342 -12 342 -12 313 -12 c 0,0,1
167 105 m 0,28,29
 189 105 189 105 235 181.5 c 128,-1,30
 281 258 281 258 319 358 c 1,31,32
 271 387 271 387 231 387 c 0,33,34
 199 387 199 387 172 325 c 128,-1,35
 145 263 145 263 145 190 c 0,36,37
 145 154 145 154 151.5 129.5 c 128,-1,38
 158 105 158 105 167 105 c 0,28,29
EndSplineSet
EndChar

StartChar: b
Encoding: 98 98 69
Width: 488
GlyphClass: 2
Flags: W
LayerCount: 2
Fore
SplineSet
126 633 m 128,-1,1
 126 669 126 669 88 669 c 2,2,-1
 54 669 l 1,3,-1
 62 728 l 1,4,5
 142 728 142 728 255 737 c 1,6,-1
 267 721 l 1,7,8
 211 467 211 467 176 250 c 1,9,-1
 182 249 l 1,10,11
 227 338 227 338 262 388 c 128,-1,12
 297 438 297 438 335 468 c 1,13,14
 395 468 395 468 430 424.5 c 128,-1,15
 465 381 465 381 465 307 c 0,16,17
 465 182 465 182 389.5 86 c 128,-1,18
 314 -10 314 -10 216 -10 c 0,19,20
 172 -10 172 -10 130 0 c 128,-1,21
 88 10 88 10 68 20 c 1,22,-1
 49 31 l 1,23,-1
 37 54 l 1,24,0
 126 597 126 597 126 633 c 128,-1,1
312 358 m 0,25,26
 292 358 292 358 251 284 c 128,-1,27
 210 210 210 210 168 101 c 1,28,29
 236 77 236 77 254 77 c 0,30,31
 289 77 289 77 315.5 132.5 c 128,-1,32
 342 188 342 188 342 262 c 0,33,34
 342 301 342 301 333.5 329.5 c 128,-1,35
 325 358 325 358 312 358 c 0,25,26
EndSplineSet
EndChar

StartChar: c
Encoding: 99 99 70
Width: 368
GlyphClass: 2
Flags: W
LayerCount: 2
Fore
SplineSet
241 385 m 128,-1,1
 203 385 203 385 173.5 327.5 c 128,-1,2
 144 270 144 270 144 206 c 0,3,4
 144 86 144 86 203 86 c 0,5,6
 229 86 229 86 254 108 c 128,-1,7
 279 130 279 130 296 167 c 1,8,-1
 313 165 l 1,9,-1
 346 124 l 1,10,11
 320 66 320 66 267 27 c 128,-1,12
 214 -12 214 -12 156 -12 c 128,-1,13
 98 -12 98 -12 61 34.5 c 128,-1,14
 24 81 24 81 24 160 c 0,15,16
 24 284 24 284 100 378.5 c 128,-1,17
 176 473 176 473 276 473 c 0,18,19
 337 473 337 473 373 451 c 1,20,-1
 377 436 l 1,21,-1
 335 340 l 1,22,-1
 307 338 l 1,23,0
 279 385 279 385 241 385 c 128,-1,1
EndSplineSet
EndChar

StartChar: d
Encoding: 100 100 71
Width: 495
GlyphClass: 2
Flags: W
LayerCount: 2
Fore
SplineSet
313 -12 m 0,0,1
 270 -12 270 -12 270 26 c 0,2,3
 270 50 270 50 304 193 c 1,4,-1
 296 194 l 1,5,6
 213 44 213 44 135 -12 c 1,7,8
 81 -12 81 -12 51 26.5 c 128,-1,9
 21 65 21 65 21 139 c 128,-1,10
 21 213 21 213 56.5 290.5 c 128,-1,11
 92 368 92 368 148.5 417 c 128,-1,12
 205 466 205 466 262 466 c 1,13,-1
 332 450 l 1,14,15
 357 632 357 632 357 642 c 128,-1,16
 357 652 357 652 349.5 660.5 c 128,-1,17
 342 669 342 669 319 669 c 2,18,-1
 284 669 l 1,19,-1
 293 728 l 1,20,21
 373 728 373 728 486 737 c 1,22,-1
 498 721 l 1,23,24
 416 315 416 315 384 109 c 1,25,-1
 388 105 l 1,26,27
 395 105 395 105 454 155 c 1,28,-1
 471 153 l 1,29,-1
 487 118 l 1,30,31
 415 43 415 43 378 15.5 c 128,-1,32
 341 -12 341 -12 313 -12 c 0,0,1
167 105 m 0,33,34
 189 105 189 105 234.5 180.5 c 128,-1,35
 280 256 280 256 318 358 c 1,36,37
 269 387 269 387 231 387 c 0,38,39
 199 387 199 387 172 325 c 128,-1,40
 145 263 145 263 145 190 c 0,41,42
 145 154 145 154 151.5 129.5 c 128,-1,43
 158 105 158 105 167 105 c 0,33,34
EndSplineSet
EndChar

StartChar: e
Encoding: 101 101 72
Width: 393
GlyphClass: 2
Flags: W
LayerCount: 2
Fore
SplineSet
385 379 m 0,0,1
 385 313 385 313 329.5 269 c 128,-1,2
 274 225 274 225 142 183 c 1,3,4
 142 138 142 138 158.5 111.5 c 128,-1,5
 175 85 175 85 205 85 c 0,6,7
 262 85 262 85 306 164 c 1,8,-1
 323 162 l 1,9,-1
 356 122 l 1,10,11
 329 64 329 64 274 26 c 128,-1,12
 219 -12 219 -12 159 -12 c 128,-1,13
 99 -12 99 -12 61.5 35.5 c 128,-1,14
 24 83 24 83 24 163 c 0,15,16
 24 284 24 284 101.5 378.5 c 128,-1,17
 179 473 179 473 278 473 c 0,18,19
 328 473 328 473 356.5 448 c 128,-1,20
 385 423 385 423 385 379 c 0,0,1
243 385 m 128,-1,22
 210 385 210 385 182.5 345.5 c 128,-1,23
 155 306 155 306 145 244 c 1,24,25
 276 287 276 287 276 350 c 0,26,21
 276 385 276 385 243 385 c 128,-1,22
EndSplineSet
EndChar

StartChar: f
Encoding: 102 102 73
Width: 290
GlyphClass: 2
Flags: W
LayerCount: 2
Fore
SplineSet
367 742 m 0,0,1
 430 742 430 742 473 727 c 1,2,-1
 477 716 l 1,3,-1
 432 620 l 1,4,-1
 413 617 l 1,5,6
 358 655 358 655 320.5 655 c 128,-1,7
 283 655 283 655 263.5 631.5 c 128,-1,8
 244 608 244 608 237 556 c 2,9,-1
 225 455 l 1,10,-1
 361 455 l 1,11,-1
 366 450 l 1,12,-1
 356 394 l 1,13,-1
 227 395 l 1,14,-1
 218 389 l 1,15,-1
 171 -42 l 2,16,17
 162 -123 162 -123 103.5 -182.5 c 128,-1,18
 45 -242 45 -242 -26 -242 c 0,19,20
 -65 -242 -65 -242 -97 -226.5 c 128,-1,21
 -129 -211 -129 -211 -137 -188 c 1,22,23
 -130 -166 -130 -166 -114 -132.5 c 128,-1,24
 -98 -99 -98 -99 -85 -81 c 1,25,-1
 -69 -81 l 1,26,27
 -66 -162 -66 -162 2 -162 c 0,28,29
 30 -162 30 -162 49.5 -140.5 c 128,-1,30
 69 -119 69 -119 71 -88 c 0,31,32
 77 5 77 5 77 33 c 1,33,-1
 104 384 l 1,34,-1
 95 391 l 1,35,-1
 24 393 l 1,36,-1
 21 398 l 1,37,-1
 26 444 l 1,38,-1
 110 457 l 1,39,-1
 117 521 l 2,40,41
 127 610 127 610 202.5 676 c 128,-1,42
 278 742 278 742 367 742 c 0,0,1
EndSplineSet
EndChar

StartChar: g
Encoding: 103 103 74
Width: 471
GlyphClass: 2
Flags: W
LayerCount: 2
Fore
SplineSet
188 114 m 0,0,1
 207 114 207 114 246.5 183 c 128,-1,2
 286 252 286 252 330 359 c 1,3,4
 277 387 277 387 242 387 c 0,5,6
 211 387 211 387 185.5 328.5 c 128,-1,7
 160 270 160 270 160 217.5 c 128,-1,8
 160 165 160 165 168 139.5 c 128,-1,9
 176 114 176 114 188 114 c 0,0,1
41 -90 m 0,10,11
 41 -113 41 -113 73 -132 c 128,-1,12
 105 -151 105 -151 144 -151 c 0,13,14
 202 -151 202 -151 240.5 -113 c 128,-1,15
 279 -75 279 -75 288 -6 c 2,16,-1
 311 185 l 1,17,-1
 302 188 l 1,18,19
 248 97 248 97 219.5 59.5 c 128,-1,20
 191 22 191 22 160 0 c 0,21,22
 149 -8 149 -8 116 -30 c 128,-1,23
 83 -52 83 -52 69 -62 c 0,24,25
 41 -82 41 -82 41 -90 c 0,10,11
96 -241 m 0,26,27
 22 -241 22 -241 -27.5 -203 c 128,-1,28
 -77 -165 -77 -165 -77 -115 c 0,29,30
 -77 -106 -77 -106 -74 -97 c 1,31,32
 -40 -72 -40 -72 98 4 c 1,33,-1
 99 12 l 1,34,35
 37 44 37 44 37 147 c 0,36,37
 37 222 37 222 72 296.5 c 128,-1,38
 107 371 107 371 162 418.5 c 128,-1,39
 217 466 217 466 272 466 c 1,40,-1
 360 448 l 1,41,-1
 368 471 l 1,42,-1
 380 477 l 1,43,-1
 460 464 l 1,44,-1
 471 446 l 1,45,46
 420 343 420 343 411 259 c 0,47,48
 408 234 408 234 402 138.5 c 128,-1,49
 396 43 396 43 393 17 c 0,50,51
 383 -68 383 -68 284.5 -154.5 c 128,-1,52
 186 -241 186 -241 100 -241 c 0,53,54
 98 -241 98 -241 96 -241 c 0,26,27
EndSplineSet
EndChar

StartChar: h
Encoding: 104 104 75
Width: 506
GlyphClass: 2
Flags: W
LayerCount: 2
Fore
SplineSet
316 -11 m 0,0,1
 268 -11 268 -11 268 33 c 0,2,3
 268 59 268 59 302.5 171.5 c 128,-1,4
 337 284 337 284 337 315 c 128,-1,5
 337 346 337 346 311.5 346 c 128,-1,6
 286 346 286 346 244.5 278 c 128,-1,7
 203 210 203 210 160 101 c 1,8,-1
 151 29 l 2,9,10
 149 16 149 16 115 4 c 128,-1,11
 81 -8 81 -8 47 -8 c 1,12,-1
 34 8 l 1,13,14
 123 569 123 569 129 628 c 1,15,16
 130 650 130 650 122 659.5 c 128,-1,17
 114 669 114 669 92 669 c 2,18,-1
 57 669 l 1,19,-1
 66 728 l 1,20,21
 146 728 146 728 259 737 c 1,22,-1
 271 721 l 1,23,24
 213 467 213 467 180 250 c 1,25,-1
 186 249 l 1,26,27
 272 428 272 428 348 474 c 1,28,29
 398 474 398 474 429.5 445.5 c 128,-1,30
 461 417 461 417 461 379 c 128,-1,31
 461 341 461 341 426.5 236.5 c 128,-1,32
 392 132 392 132 387 110 c 1,33,-1
 390 107 l 1,34,35
 399 107 399 107 456 157 c 1,36,-1
 474 154 l 1,37,-1
 490 119 l 1,38,39
 423 48 423 48 384 18.5 c 128,-1,40
 345 -11 345 -11 316 -11 c 0,0,1
EndSplineSet
EndChar

StartChar: i
Encoding: 105 105 76
Width: 283
GlyphClass: 2
Flags: W
LayerCount: 2
Fore
SplineSet
242.5 596 m 128,-1,1
 218 570 218 570 185 570 c 128,-1,2
 152 570 152 570 136.5 587 c 128,-1,3
 121 604 121 604 121 637 c 128,-1,4
 121 670 121 670 146 695.5 c 128,-1,5
 171 721 171 721 204 721 c 128,-1,6
 237 721 237 721 252 705 c 128,-1,7
 267 689 267 689 267 655.5 c 128,-1,0
 267 622 267 622 242.5 596 c 128,-1,1
273 118 m 1,8,9
 153 -12 153 -12 102.5 -12 c 128,-1,10
 52 -12 52 -12 52 38 c 1,11,12
 100 324 100 324 100 350 c 128,-1,13
 100 376 100 376 91 385 c 128,-1,14
 82 394 82 394 62 394 c 2,15,-1
 27 394 l 1,16,-1
 37 453 l 1,17,18
 86 453 86 453 228 462 c 1,19,-1
 240 446 l 1,20,21
 193 278 193 278 169 109 c 1,22,-1
 173 105 l 1,23,24
 182 105 182 105 239 155 c 1,25,-1
 256 153 l 1,26,-1
 273 118 l 1,8,9
EndSplineSet
EndChar

StartChar: j
Encoding: 106 106 77
Width: 271
GlyphClass: 2
Flags: W
LayerCount: 2
Fore
SplineSet
109 356 m 0,0,1
 109 394 109 394 70 394 c 2,2,-1
 35 394 l 1,3,-1
 45 453 l 1,4,5
 96 453 96 453 235 462 c 1,6,-1
 248 446 l 1,7,8
 196 240 196 240 164 18 c 1,9,10
 141 -160 141 -160 -36 -244 c 1,11,-1
 -63 -214 l 1,12,-1
 -60 -202 l 1,13,14
 -3 -160 -3 -160 22 -110.5 c 128,-1,15
 47 -61 47 -61 59 36 c 1,16,17
 109 324 109 324 109 356 c 0,0,1
250 596 m 128,-1,19
 225 570 225 570 192 570 c 128,-1,20
 159 570 159 570 143.5 586.5 c 128,-1,21
 128 603 128 603 128 637 c 128,-1,22
 128 671 128 671 153 696 c 128,-1,23
 178 721 178 721 212 721 c 0,24,25
 275 721 275 721 275 662 c 0,26,18
 275 622 275 622 250 596 c 128,-1,19
EndSplineSet
EndChar

StartChar: k
Encoding: 107 107 78
Width: 460
GlyphClass: 2
Flags: W
LayerCount: 2
Fore
SplineSet
342 316 m 0,0,1
 342 346 342 346 316.5 346 c 128,-1,2
 291 346 291 346 247.5 277.5 c 128,-1,3
 204 209 204 209 160 100 c 1,4,-1
 151 29 l 2,5,6
 149 16 149 16 115 4 c 128,-1,7
 81 -8 81 -8 47 -8 c 1,8,-1
 34 8 l 1,9,10
 130 596 130 596 130 632.5 c 128,-1,11
 130 669 130 669 92 669 c 2,12,-1
 57 669 l 1,13,-1
 66 728 l 1,14,15
 146 728 146 728 259 737 c 1,16,-1
 271 721 l 1,17,18
 213 467 213 467 180 250 c 1,19,-1
 186 249 l 1,20,21
 271 428 271 428 348 474 c 1,22,23
 400 474 400 474 431.5 446 c 128,-1,24
 463 418 463 418 463 373 c 0,25,26
 463 278 463 278 330 191 c 1,27,28
 370 119 370 119 432 25 c 1,29,-1
 431 8 l 1,30,-1
 322 -19 l 1,31,-1
 309 -12 l 1,32,-1
 228 188 l 1,33,-1
 235 205 l 1,34,35
 342 258 342 258 342 316 c 0,0,1
EndSplineSet
EndChar

StartChar: l
Encoding: 108 108 79
Width: 270
GlyphClass: 2
Flags: W
LayerCount: 2
Fore
SplineSet
86 -12 m 0,0,1
 39 -12 39 -12 39 35 c 0,2,3
 39 47 39 47 84.5 331 c 128,-1,4
 130 615 130 615 130 633 c 0,5,6
 130 669 130 669 92 669 c 2,7,-1
 57 669 l 1,8,-1
 66 728 l 1,9,10
 146 728 146 728 259 737 c 1,11,-1
 271 721 l 1,12,13
 185 315 185 315 157 109 c 1,14,-1
 160 105 l 1,15,16
 169 105 169 105 226 155 c 1,17,-1
 244 153 l 1,18,-1
 260 118 l 1,19,20
 195 47 195 47 155 17.5 c 128,-1,21
 115 -12 115 -12 86 -12 c 0,0,1
EndSplineSet
EndChar

StartChar: m
Encoding: 109 109 80
Width: 764
GlyphClass: 2
Flags: W
LayerCount: 2
Fore
SplineSet
573 -11 m 0,0,1
 525 -11 525 -11 525 33 c 0,2,3
 525 58 525 58 561 171 c 128,-1,4
 597 284 597 284 597 315 c 128,-1,5
 597 346 597 346 571.5 346 c 128,-1,6
 546 346 546 346 500 273 c 128,-1,7
 454 200 454 200 407 86 c 1,8,-1
 398 29 l 1,9,10
 397 16 397 16 363 4 c 128,-1,11
 329 -8 329 -8 295 -8 c 1,12,-1
 282 8 l 1,13,14
 347 276 347 276 347 311 c 128,-1,15
 347 346 347 346 321 346 c 0,16,17
 297 346 297 346 256 278 c 128,-1,18
 215 210 215 210 173 101 c 1,19,-1
 164 29 l 2,20,21
 162 16 162 16 128 4 c 128,-1,22
 94 -8 94 -8 60 -8 c 1,23,-1
 47 8 l 1,24,25
 96 308 96 308 101 353 c 1,26,27
 102 375 102 375 93.5 384.5 c 128,-1,28
 85 394 85 394 63 394 c 2,29,-1
 28 394 l 1,30,-1
 38 453 l 1,31,32
 87 453 87 453 229 462 c 1,33,-1
 240 446 l 1,34,35
 208 346 208 346 193 250 c 1,36,-1
 198 249 l 1,37,38
 283 429 283 429 358 474 c 1,39,40
 407 474 407 474 437.5 446.5 c 128,-1,41
 468 419 468 419 468 375 c 0,42,43
 468 348 468 348 440 250 c 1,44,-1
 445 249 l 1,45,46
 529 426 529 426 609 474 c 1,47,48
 659 474 659 474 689 446.5 c 128,-1,49
 719 419 719 419 719 380.5 c 128,-1,50
 719 342 719 342 684 235.5 c 128,-1,51
 649 129 649 129 645 110 c 1,52,-1
 648 107 l 1,53,54
 656 107 656 107 714 157 c 1,55,-1
 732 154 l 1,56,-1
 748 119 l 1,57,58
 680 48 680 48 640.5 18.5 c 128,-1,59
 601 -11 601 -11 573 -11 c 0,0,1
EndSplineSet
EndChar

StartChar: n
Encoding: 110 110 81
Width: 519
GlyphClass: 2
Flags: W
LayerCount: 2
Fore
SplineSet
329 -11 m 0,0,1
 281 -11 281 -11 281 33 c 0,2,3
 281 59 281 59 315.5 171.5 c 128,-1,4
 350 284 350 284 350 315 c 128,-1,5
 350 346 350 346 324.5 346 c 128,-1,6
 299 346 299 346 257.5 278 c 128,-1,7
 216 210 216 210 173 100 c 1,8,-1
 164 29 l 2,9,10
 162 16 162 16 128 4 c 128,-1,11
 94 -8 94 -8 60 -8 c 1,12,-1
 47 8 l 1,13,14
 96 308 96 308 101 353 c 1,15,16
 102 375 102 375 93.5 384.5 c 128,-1,17
 85 394 85 394 63 394 c 2,18,-1
 28 394 l 1,19,-1
 38 453 l 1,20,21
 87 453 87 453 229 462 c 1,22,-1
 240 446 l 1,23,24
 208 346 208 346 193 250 c 1,25,-1
 199 249 l 1,26,27
 285 428 285 428 361 474 c 1,28,29
 411 474 411 474 441.5 446 c 128,-1,30
 472 418 472 418 472 379.5 c 128,-1,31
 472 341 472 341 438 236 c 128,-1,32
 404 131 404 131 400 110 c 1,33,-1
 403 107 l 1,34,35
 412 107 412 107 469 157 c 1,36,-1
 487 154 l 1,37,-1
 503 119 l 1,38,39
 437 48 437 48 397.5 18.5 c 128,-1,40
 358 -11 358 -11 329 -11 c 0,0,1
EndSplineSet
EndChar

StartChar: o
Encoding: 111 111 82
Width: 444
GlyphClass: 2
Flags: W
LayerCount: 2
Fore
SplineSet
210 68 m 0,0,1
 249 68 249 68 271.5 119.5 c 128,-1,2
 294 171 294 171 294 263 c 0,3,4
 294 385 294 385 233 385 c 0,5,6
 196 385 196 385 173 333 c 128,-1,7
 150 281 150 281 150 209.5 c 128,-1,8
 150 138 150 138 166 103 c 128,-1,9
 182 68 182 68 210 68 c 0,0,1
171 -12 m 0,10,11
 104 -12 104 -12 65.5 35.5 c 128,-1,12
 27 83 27 83 27 167 c 0,13,14
 27 297 27 297 98 385.5 c 128,-1,15
 169 474 169 474 274 474 c 0,16,17
 344 474 344 474 382 430 c 128,-1,18
 420 386 420 386 420 305 c 0,19,20
 420 170 420 170 349 79 c 128,-1,21
 278 -12 278 -12 171 -12 c 0,10,11
EndSplineSet
EndChar

StartChar: p
Encoding: 112 112 83
Width: 501
GlyphClass: 2
Flags: W
LayerCount: 2
Fore
SplineSet
99 357 m 0,0,1
 99 394 99 394 61 394 c 2,2,-1
 26 394 l 1,3,-1
 36 453 l 1,4,5
 85 453 85 453 227 462 c 1,6,-1
 239 447 l 1,7,8
 209 356 209 356 191 257 c 1,9,-1
 197 256 l 1,10,11
 278 416 278 416 349 474 c 1,12,13
 409 474 409 474 444 431 c 128,-1,14
 479 388 479 388 479 314 c 128,-1,15
 479 240 479 240 444 164.5 c 128,-1,16
 409 89 409 89 354.5 42.5 c 128,-1,17
 300 -4 300 -4 247 -4 c 1,18,-1
 151 12 l 1,19,20
 131 -127 131 -127 131 -139 c 128,-1,21
 131 -151 131 -151 138.5 -159.5 c 128,-1,22
 146 -168 146 -168 174 -168 c 2,23,-1
 218 -168 l 1,24,-1
 219 -174 l 1,25,-1
 208 -229 l 1,26,27
 83 -229 83 -229 -41 -236 c 1,28,-1
 -30 -178 l 1,29,30
 -5 -175 -5 -175 6.5 -162 c 128,-1,31
 18 -149 18 -149 29 -103.5 c 128,-1,32
 40 -58 40 -58 69.5 134.5 c 128,-1,33
 99 327 99 327 99 357 c 0,0,1
326 365 m 0,34,35
 307 365 307 365 265 292.5 c 128,-1,36
 223 220 223 220 183 111 c 1,37,38
 245 83 245 83 279 83 c 0,39,40
 308 83 308 83 332 144 c 128,-1,41
 356 205 356 205 356 257 c 128,-1,42
 356 309 356 309 347 337 c 128,-1,43
 338 365 338 365 326 365 c 0,34,35
EndSplineSet
EndChar

StartChar: q
Encoding: 113 113 84
Width: 473
GlyphClass: 2
Flags: W
LayerCount: 2
Fore
SplineSet
22 142 m 0,0,1
 22 260 22 260 98.5 363 c 128,-1,2
 175 466 175 466 262 466 c 1,3,-1
 347 448 l 1,4,-1
 365 498 l 1,5,-1
 378 505 l 1,6,-1
 458 492 l 1,7,-1
 465 475 l 1,8,9
 450 448 450 448 400.5 195 c 128,-1,10
 351 -58 351 -58 351 -132 c 0,11,12
 351 -151 351 -151 357 -159 c 128,-1,13
 363 -167 363 -167 378 -167 c 2,14,-1
 412 -167 l 1,15,-1
 414 -172 l 1,16,-1
 404 -228 l 1,17,18
 273 -228 273 -228 157 -240 c 1,19,-1
 168 -181 l 1,20,21
 211 -177 211 -177 225 -164.5 c 128,-1,22
 239 -152 239 -152 247 -111 c 2,23,-1
 276 49 l 1,24,-1
 304 193 l 1,25,-1
 296 194 l 1,26,27
 210 40 210 40 143 -12 c 1,28,29
 88 -12 88 -12 55 29.5 c 128,-1,30
 22 71 22 71 22 142 c 0,0,1
172 105 m 0,31,32
 192 105 192 105 233 176.5 c 128,-1,33
 274 248 274 248 318 358 c 1,34,35
 271 387 271 387 231 387 c 0,36,37
 199 387 199 387 172 326.5 c 128,-1,38
 145 266 145 266 145 196 c 0,39,40
 145 158 145 158 153 131.5 c 128,-1,41
 161 105 161 105 172 105 c 0,31,32
EndSplineSet
EndChar

StartChar: r
Encoding: 114 114 85
Width: 380
GlyphClass: 2
Flags: W
LayerCount: 2
Fore
SplineSet
47 8 m 1,0,1
 101 318 101 318 101 347 c 128,-1,2
 101 376 101 376 92.5 385 c 128,-1,3
 84 394 84 394 63 394 c 2,4,-1
 28 394 l 1,5,-1
 38 453 l 1,6,7
 87 453 87 453 229 462 c 1,8,-1
 240 446 l 1,9,10
 213 357 213 357 199 276 c 1,11,-1
 204 276 l 1,12,13
 236 355 236 355 282 413.5 c 128,-1,14
 328 472 328 472 357 472 c 1,15,16
 401 438 401 438 401 374 c 0,17,18
 401 352 401 352 391 321 c 1,19,-1
 377 315 l 1,20,21
 362 327 362 327 337 327 c 0,22,23
 297 327 297 327 254.5 273.5 c 128,-1,24
 212 220 212 220 175 121 c 1,25,-1
 164 29 l 2,26,27
 162 16 162 16 128 4 c 128,-1,28
 94 -8 94 -8 60 -8 c 1,29,-1
 47 8 l 1,0,1
EndSplineSet
EndChar

StartChar: s
Encoding: 115 115 86
Width: 369
GlyphClass: 2
Flags: W
LayerCount: 2
Fore
SplineSet
93.5 93 m 128,-1,1
 118 69 118 69 150 69 c 128,-1,2
 182 69 182 69 197.5 81.5 c 128,-1,3
 213 94 213 94 213 110.5 c 128,-1,4
 213 127 213 127 202.5 140.5 c 128,-1,5
 192 154 192 154 182 162 c 128,-1,6
 172 170 172 170 145 188 c 128,-1,7
 118 206 118 206 102.5 218.5 c 128,-1,8
 87 231 87 231 70.5 257 c 128,-1,9
 54 283 54 283 54 313 c 0,10,11
 54 380 54 380 109 427 c 128,-1,12
 164 474 164 474 244.5 474 c 128,-1,13
 325 474 325 474 369 433 c 1,14,15
 349 381 349 381 321 331 c 1,16,-1
 301 331 l 1,17,18
 278 390 278 390 227 390 c 0,19,20
 208 390 208 390 194.5 378 c 128,-1,21
 181 366 181 366 181 345.5 c 128,-1,22
 181 325 181 325 211 302 c 0,23,24
 220 295 220 295 249 275 c 128,-1,25
 278 255 278 255 293 242 c 128,-1,26
 308 229 308 229 323 204.5 c 128,-1,27
 338 180 338 180 338 152 c 0,28,29
 338 84 338 84 279 36 c 128,-1,30
 220 -12 220 -12 138 -12 c 0,31,32
 85 -12 85 -12 47 4.5 c 128,-1,33
 9 21 9 21 0 48 c 1,34,35
 13 111 13 111 48 158 c 1,36,-1
 68 157 l 1,37,0
 69 117 69 117 93.5 93 c 128,-1,1
EndSplineSet
EndChar

StartChar: t
Encoding: 116 116 87
Width: 307
GlyphClass: 2
Flags: W
LayerCount: 2
Fore
SplineSet
145 -12 m 0,0,1
 96 -12 96 -12 73 12.5 c 128,-1,2
 50 37 50 37 50 73 c 0,3,4
 50 80 50 80 51 88 c 2,5,-1
 101 385 l 1,6,-1
 94 391 l 1,7,-1
 32 393 l 1,8,-1
 29 398 l 1,9,-1
 35 444 l 1,10,-1
 111 456 l 1,11,-1
 126 572 l 1,12,-1
 254 607 l 1,13,-1
 264 595 l 1,14,15
 244 528 244 528 228 455 c 1,16,-1
 337 455 l 1,17,-1
 342 450 l 1,18,-1
 333 394 l 1,19,-1
 226 395 l 1,20,-1
 214 388 l 1,21,22
 165 133 165 133 165 127 c 0,23,24
 165 103 165 103 186.5 103 c 128,-1,25
 208 103 208 103 266 161 c 1,26,-1
 283 158 l 1,27,-1
 299 122 l 1,28,29
 252 62 252 62 210 25 c 128,-1,30
 168 -12 168 -12 145 -12 c 0,0,1
EndSplineSet
EndChar

StartChar: u
Encoding: 117 117 88
Width: 508
GlyphClass: 2
Flags: W
LayerCount: 2
Fore
SplineSet
74.5 14.5 m 128,-1,1
 43 40 43 40 43 76.5 c 128,-1,2
 43 113 43 113 76 225.5 c 128,-1,3
 109 338 109 338 109 360 c 0,4,5
 109 394 109 394 71 394 c 2,6,-1
 37 394 l 1,7,-1
 47 453 l 1,8,9
 96 453 96 453 238 462 c 1,10,-1
 250 446 l 1,11,12
 164 186 164 186 164 139 c 0,13,14
 164 110 164 110 187 110 c 128,-1,15
 210 110 210 110 254 181 c 128,-1,16
 298 252 298 252 345 365 c 1,17,-1
 359 457 l 1,18,-1
 374 465 l 1,19,-1
 456 459 l 1,20,-1
 469 444 l 1,21,22
 422 267 422 267 398 109 c 1,23,-1
 402 105 l 1,24,25
 408 105 408 105 416.5 111.5 c 128,-1,26
 425 118 425 118 468 155 c 1,27,-1
 485 153 l 1,28,-1
 501 118 l 1,29,30
 428 42 428 42 392 15 c 128,-1,31
 356 -12 356 -12 327 -12 c 0,32,33
 284 -12 284 -12 284 26 c 0,34,35
 284 49 284 49 320 201 c 1,36,-1
 311 202 l 1,37,38
 236 44 236 44 161 -11 c 1,39,0
 106 -11 106 -11 74.5 14.5 c 128,-1,1
EndSplineSet
EndChar

StartChar: v
Encoding: 118 118 89
Width: 450
GlyphClass: 2
Flags: W
LayerCount: 2
Fore
SplineSet
211 120 m 0,0,1
 211 110 211 110 211 100 c 1,2,-1
 224 100 l 1,3,4
 324 277 324 277 324 343 c 0,5,6
 324 372 324 372 307 392 c 128,-1,7
 290 412 290 412 274 417 c 1,8,-1
 281 449 l 1,9,-1
 414 474 l 1,10,11
 445 446 445 446 445 387 c 0,12,13
 445 278 445 278 246 -6 c 1,14,-1
 133 -11 l 1,15,-1
 116 4 l 1,16,17
 108 189 108 189 78 357 c 0,18,19
 74 377 74 377 67 384.5 c 128,-1,20
 60 392 60 392 44 392 c 1,21,-1
 2 389 l 1,22,-1
 6 447 l 1,23,-1
 183 467 l 1,24,-1
 194 458 l 1,25,26
 211 298 211 298 211 120 c 0,0,1
EndSplineSet
EndChar

StartChar: w
Encoding: 119 119 90
Width: 682
GlyphClass: 2
Flags: W
LayerCount: 2
Fore
SplineSet
440 389 m 0,0,1
 440 362 440 362 425 319 c 1,2,-1
 445 100 l 1,3,-1
 458 100 l 1,4,5
 556 279 556 279 556 344 c 0,6,7
 556 372 556 372 539 392 c 128,-1,8
 522 412 522 412 506 417 c 1,9,-1
 513 449 l 1,10,-1
 646 474 l 1,11,12
 677 445 677 445 677 385 c 0,13,14
 677 281 677 281 480 -6 c 1,15,-1
 381 -11 l 1,16,-1
 365 4 l 1,17,-1
 348 172 l 1,18,-1
 339 172 l 1,19,20
 294 80 294 80 241 -6 c 1,21,-1
 133 -11 l 1,22,-1
 116 4 l 1,23,24
 108 192 108 192 78 357 c 0,25,26
 74 377 74 377 67 384.5 c 128,-1,27
 60 392 60 392 44 392 c 1,28,-1
 2 389 l 1,29,-1
 6 447 l 1,30,-1
 183 467 l 1,31,-1
 194 458 l 1,32,33
 211 296 211 296 211 120 c 0,34,35
 211 110 211 110 211 100 c 1,36,-1
 224 100 l 1,37,38
 296 236 296 236 318 303 c 1,39,-1
 298 435 l 1,40,-1
 307 449 l 1,41,-1
 409 474 l 1,42,43
 440 446 440 446 440 389 c 0,0,1
EndSplineSet
EndChar

StartChar: x
Encoding: 120 120 91
Width: 481
GlyphClass: 2
Flags: W
LayerCount: 2
Fore
SplineSet
346 438 m 128,-1,1
 382 474 382 474 425.5 474 c 128,-1,2
 469 474 469 474 501 439 c 1,3,4
 475 376 475 376 451 327 c 1,5,-1
 431 327 l 1,6,7
 418 382 418 382 389 382 c 0,8,9
 368 382 368 382 347 353.5 c 128,-1,10
 326 325 326 325 296 255 c 1,11,12
 323 155 323 155 336 122 c 128,-1,13
 349 89 349 89 364 89 c 128,-1,14
 379 89 379 89 434 137 c 1,15,-1
 445 136 l 1,16,-1
 464 96 l 1,17,18
 405 35 405 35 369 11.5 c 128,-1,19
 333 -12 333 -12 302.5 -12 c 128,-1,20
 272 -12 272 -12 253 20 c 128,-1,21
 234 52 234 52 207 146 c 1,22,23
 169 62 169 62 132.5 25 c 128,-1,24
 96 -12 96 -12 48 -12 c 128,-1,25
 0 -12 0 -12 -22 25 c 1,26,27
 -4 84 -4 84 28 141 c 1,28,-1
 48 141 l 1,29,30
 51 76 51 76 85 76 c 0,31,32
 126 76 126 76 183 213 c 1,33,34
 154 314 154 314 141.5 343.5 c 128,-1,35
 129 373 129 373 114.5 373 c 128,-1,36
 100 373 100 373 51 325 c 1,37,-1
 39 325 l 1,38,-1
 21 365 l 1,39,40
 122 474 122 474 183 474 c 0,41,42
 211 474 211 474 229 443.5 c 128,-1,43
 247 413 247 413 273 323 c 1,44,0
 310 402 310 402 346 438 c 128,-1,1
EndSplineSet
EndChar

StartChar: y
Encoding: 121 121 92
Width: 462
GlyphClass: 2
Flags: W
LayerCount: 2
Fore
SplineSet
457 387 m 0,0,1
 457 282 457 282 268 11 c 0,2,3
 172 -125 172 -125 103.5 -184 c 128,-1,4
 35 -243 35 -243 -28 -243 c 0,5,6
 -64 -243 -64 -243 -93 -228 c 128,-1,7
 -122 -213 -122 -213 -128 -192 c 1,8,9
 -121 -147 -121 -147 -87 -83 c 1,10,-1
 -67 -84 l 1,11,12
 -61 -111 -61 -111 -41 -128 c 128,-1,13
 -21 -145 -21 -145 7.5 -145 c 128,-1,14
 36 -145 36 -145 66 -123.5 c 128,-1,15
 96 -102 96 -102 138 -49 c 1,16,17
 116 187 116 187 89 357 c 0,18,19
 85 377 85 377 77 384.5 c 128,-1,20
 69 392 69 392 53 392 c 1,21,-1
 13 389 l 1,22,-1
 17 447 l 1,23,-1
 194 467 l 1,24,-1
 205 458 l 1,25,26
 220 312 220 312 220 89 c 1,27,-1
 232 89 l 1,28,29
 336 270 336 270 336 343 c 0,30,31
 336 391 336 391 286 417 c 1,32,-1
 293 449 l 1,33,-1
 425 474 l 1,34,35
 457 447 457 447 457 387 c 0,0,1
EndSplineSet
EndChar

StartChar: z
Encoding: 122 122 93
Width: 425
GlyphClass: 2
Flags: W
LayerCount: 2
Fore
SplineSet
311 445 m 0,0,1
 343 445 343 445 359 464 c 2,2,-1
 380 489 l 1,3,-1
 435 454 l 1,4,-1
 440 435 l 1,5,6
 297 282 297 282 154 114 c 1,7,-1
 180 119 l 1,8,9
 196 119 196 119 238.5 111.5 c 128,-1,10
 281 104 281 104 303 104 c 128,-1,11
 325 104 325 104 343.5 124 c 128,-1,12
 362 144 362 144 368 179 c 1,13,-1
 392 178 l 1,14,15
 405 146 405 146 405 103 c 128,-1,16
 405 60 405 60 372.5 24 c 128,-1,17
 340 -12 340 -12 294 -12 c 0,18,19
 264 -12 264 -12 206.5 10.5 c 128,-1,20
 149 33 149 33 108 33 c 128,-1,21
 67 33 67 33 10 -1 c 1,22,-1
 -9 29 l 1,23,-1
 267 358 l 1,24,-1
 194 359 l 2,25,26
 153 359 153 359 132.5 344.5 c 128,-1,27
 112 330 112 330 100 292 c 1,28,-1
 44 287 l 1,29,30
 71 382 71 382 84 463 c 1,31,-1
 111 474 l 1,32,33
 234 445 234 445 311 445 c 0,0,1
EndSplineSet
EndChar

StartChar: braceleft
Encoding: 123 123 94
Width: 311
GlyphClass: 2
Flags: W
LayerCount: 2
Fore
SplineSet
232 510 m 1,0,-1
 241 387 l 1,1,2
 241 342 241 342 218 314.5 c 128,-1,3
 195 287 195 287 158 277 c 1,4,-1
 157 271 l 1,5,6
 217 250 217 250 217 187 c 0,7,8
 217 159 217 159 193 89.5 c 128,-1,9
 169 20 169 20 169 -3 c 128,-1,10
 169 -26 169 -26 181.5 -40.5 c 128,-1,11
 194 -55 194 -55 218 -55 c 1,12,-1
 258 -49 l 1,13,-1
 264 -59 l 1,14,-1
 247 -113 l 1,15,16
 215 -128 215 -128 163.5 -128 c 128,-1,17
 112 -128 112 -128 79.5 -98.5 c 128,-1,18
 47 -69 47 -69 47 -29 c 128,-1,19
 47 11 47 11 81.5 79.5 c 128,-1,20
 116 148 116 148 116 169 c 0,21,22
 116 223 116 223 43 241 c 1,23,-1
 54 289 l 1,24,25
 140 314 140 314 140 371 c 0,26,27
 140 390 140 390 127 444.5 c 128,-1,28
 114 499 114 499 114 525 c 0,29,30
 114 580 114 580 159 617 c 128,-1,31
 204 654 204 654 276 654 c 0,32,33
 309 654 309 654 347 645 c 1,34,-1
 352 635 l 1,35,-1
 332 579 l 1,36,37
 309 584 309 584 294 584 c 0,38,39
 264 584 264 584 248 563.5 c 128,-1,40
 232 543 232 543 232 510 c 1,0,-1
EndSplineSet
EndChar

StartChar: bar
Encoding: 124 124 95
Width: 319
GlyphClass: 2
Flags: W
LayerCount: 2
Fore
SplineSet
267 807 m 1,0,-1
 282 796 l 1,1,2
 234 457 234 457 214 291 c 2,3,-1
 148 -258 l 1,4,-1
 60 -269 l 1,5,-1
 50 -258 l 1,6,7
 73 -64 73 -64 181 796 c 1,8,-1
 267 807 l 1,0,-1
EndSplineSet
EndChar

StartChar: braceright
Encoding: 125 125 96
Width: 311
GlyphClass: 2
Flags: W
LayerCount: 2
Fore
SplineSet
88 16 m 1,0,-1
 79 143 l 1,1,2
 79 228 79 228 162 253 c 1,3,-1
 163 259 l 1,4,5
 103 281 103 281 103 344 c 0,6,7
 103 371 103 371 127 438 c 128,-1,8
 151 505 151 505 151 528 c 128,-1,9
 151 551 151 551 138.5 565.5 c 128,-1,10
 126 580 126 580 102 580 c 1,11,-1
 62 575 l 1,12,-1
 56 584 l 1,13,-1
 73 639 l 1,14,15
 104 654 104 654 155.5 654 c 128,-1,16
 207 654 207 654 240 624 c 128,-1,17
 273 594 273 594 273 554.5 c 128,-1,18
 273 515 273 515 239 448.5 c 128,-1,19
 205 382 205 382 205 361 c 0,20,21
 205 304 205 304 277 289 c 1,22,-1
 267 242 l 1,23,24
 229 231 229 231 205 210 c 128,-1,25
 181 189 181 189 181 164.5 c 128,-1,26
 181 140 181 140 193.5 86 c 128,-1,27
 206 32 206 32 206 6 c 0,28,29
 206 -51 206 -51 161 -89.5 c 128,-1,30
 116 -128 116 -128 44 -128 c 0,31,32
 11 -128 11 -128 -27 -119 c 1,33,-1
 -32 -109 l 1,34,-1
 -12 -54 l 1,35,36
 11 -59 11 -59 26 -59 c 0,37,38
 56 -59 56 -59 72 -38 c 128,-1,39
 88 -17 88 -17 88 16 c 1,0,-1
EndSplineSet
EndChar

StartChar: asciitilde
Encoding: 126 126 97
Width: 488
GlyphClass: 2
Flags: W
LayerCount: 2
Fore
SplineSet
251.5 311.5 m 128,-1,1
 333 292 333 292 349 292 c 0,2,3
 377 292 377 292 420 334 c 1,4,-1
 434 349 l 1,5,-1
 444 349 l 1,6,-1
 474 311 l 1,7,-1
 473 301 l 1,8,-1
 372 199 l 1,9,-1
 353 195 l 1,10,11
 328 195 328 195 246.5 214.5 c 128,-1,12
 165 234 165 234 149 234 c 0,13,14
 120 234 120 234 78 192 c 2,15,-1
 64 178 l 1,16,-1
 53 178 l 1,17,-1
 23 215 l 1,18,-1
 24 226 l 1,19,-1
 126 327 l 1,20,-1
 145 331 l 1,21,0
 170 331 170 331 251.5 311.5 c 128,-1,1
EndSplineSet
EndChar

StartChar: exclamdown
Encoding: 161 161 99
Width: 274
GlyphClass: 2
Flags: W
LayerCount: 2
Fore
SplineSet
118.5 447.5 m 128,-1,1
 144 474 144 474 179.5 474 c 128,-1,2
 215 474 215 474 232 456 c 128,-1,3
 249 438 249 438 249 403 c 128,-1,4
 249 368 249 368 223.5 342 c 128,-1,5
 198 316 198 316 162.5 316 c 128,-1,6
 127 316 127 316 110 333.5 c 128,-1,7
 93 351 93 351 93 386 c 128,-1,0
 93 421 93 421 118.5 447.5 c 128,-1,1
186 227 m 1,8,-1
 154 -203 l 1,9,-1
 140 -220 l 1,10,-1
 4 -242 l 1,11,-1
 -10 -224 l 1,12,-1
 106 229 l 1,13,-1
 172 240 l 1,14,-1
 186 227 l 1,8,-1
EndSplineSet
EndChar

StartChar: cent
Encoding: 162 162 100
Width: 368
GlyphClass: 2
Flags: W
LayerCount: 2
Fore
SplineSet
241 385 m 128,-1,1
 203 385 203 385 173.5 327.5 c 128,-1,2
 144 270 144 270 144 206 c 0,3,4
 144 86 144 86 203 86 c 0,5,6
 229 86 229 86 254 108 c 128,-1,7
 279 130 279 130 296 167 c 1,8,-1
 313 165 l 1,9,-1
 346 124 l 1,10,11
 325 77 325 77 284 41 c 128,-1,12
 243 5 243 5 199 -7 c 1,13,-1
 166 -151 l 1,14,-1
 96 -159 l 1,15,-1
 91 -152 l 1,16,-1
 124 -7 l 1,17,18
 77 6 77 6 50.5 49.5 c 128,-1,19
 24 93 24 93 24 160 c 0,20,21
 24 269 24 269 85 358 c 128,-1,22
 146 447 146 447 232 467 c 1,23,-1
 274 649 l 1,24,-1
 346 658 l 1,25,-1
 350 649 l 1,26,-1
 309 471 l 1,27,28
 349 465 349 465 373 451 c 1,29,-1
 377 436 l 1,30,-1
 335 340 l 1,31,-1
 307 338 l 1,32,0
 279 385 279 385 241 385 c 128,-1,1
EndSplineSet
EndChar

StartChar: sterling
Encoding: 163 163 101
Width: 500
GlyphClass: 2
Flags: W
LayerCount: 2
Fore
SplineSet
445 176 m 1,0,1
 458 154 458 154 458 105.5 c 128,-1,2
 458 57 458 57 426.5 22.5 c 128,-1,3
 395 -12 395 -12 356 -12 c 128,-1,4
 317 -12 317 -12 245.5 12.5 c 128,-1,5
 174 37 174 37 130.5 37 c 128,-1,6
 87 37 87 37 28 1 c 1,7,-1
 17 6 l 1,8,-1
 5 67 l 1,9,10
 100 123 100 123 110 203 c 2,11,-1
 115 244 l 1,12,13
 116 267 116 267 105 274.5 c 128,-1,14
 94 282 94 282 57 284 c 1,15,-1
 54 290 l 1,16,-1
 68 342 l 1,17,-1
 128 352 l 1,18,-1
 131 373 l 1,19,20
 142 465 142 465 217 531.5 c 128,-1,21
 292 598 292 598 382 598 c 0,22,23
 454 598 454 598 489 583 c 1,24,-1
 493 572 l 1,25,-1
 449 476 l 1,26,-1
 430 473 l 1,27,28
 369 511 369 511 332.5 511 c 128,-1,29
 296 511 296 511 278 488.5 c 128,-1,30
 260 466 260 466 252 416 c 2,31,-1
 241 348 l 1,32,-1
 386 351 l 1,33,-1
 389 346 l 1,34,-1
 370 278 l 1,35,36
 306 281 306 281 231 281 c 1,37,-1
 222 221 l 1,38,39
 210 148 210 148 164 110 c 1,40,-1
 221 122 l 1,41,42
 240 122 240 122 286 112.5 c 128,-1,43
 332 103 332 103 355 103 c 128,-1,44
 378 103 378 103 397 122.5 c 128,-1,45
 416 142 416 142 422 178 c 1,46,-1
 445 176 l 1,0,1
EndSplineSet
EndChar

StartChar: currency
Encoding: 164 164 102
Width: 428
GlyphClass: 2
Flags: W
LayerCount: 2
Fore
SplineSet
88 278 m 1,0,1
 79 302 79 302 79 342.5 c 128,-1,2
 79 383 79 383 108 426 c 1,3,-1
 44 497 l 1,4,-1
 49 514 l 1,5,-1
 126 564 l 1,6,-1
 181 492 l 1,7,8
 217 510 217 510 253.5 510 c 128,-1,9
 290 510 290 510 321 492 c 1,10,-1
 397 569 l 1,11,-1
 414 565 l 1,12,-1
 457 494 l 1,13,-1
 379 427 l 1,14,15
 390 402 390 402 390 362 c 128,-1,16
 390 322 390 322 362 278 c 1,17,-1
 425 211 l 1,18,-1
 420 194 l 1,19,-1
 342 142 l 1,20,-1
 288 212 l 1,21,22
 254 192 254 192 215 192 c 128,-1,23
 176 192 176 192 144 213 c 1,24,-1
 69 140 l 1,25,-1
 52 144 l 1,26,-1
 11 215 l 1,27,28
 22 222 22 222 88 278 c 1,0,1
179.5 409.5 m 128,-1,30
 151 381 151 381 151 345 c 128,-1,31
 151 309 151 309 171.5 286.5 c 128,-1,32
 192 264 192 264 226.5 264 c 128,-1,33
 261 264 261 264 289.5 292.5 c 128,-1,34
 318 321 318 321 318 357 c 128,-1,35
 318 393 318 393 297 415.5 c 128,-1,36
 276 438 276 438 242 438 c 128,-1,29
 208 438 208 438 179.5 409.5 c 128,-1,30
EndSplineSet
EndChar

StartChar: yen
Encoding: 165 165 103
Width: 550
GlyphClass: 2
Flags: W
LayerCount: 2
Fore
SplineSet
174 267 m 1,0,-1
 53 266 l 1,1,-1
 46 273 l 1,2,-1
 61 329 l 1,3,-1
 144 329 l 1,4,5
 104 426 104 426 45 444 c 1,6,7
 47 452 47 452 49 468 c 1,8,-1
 59 505 l 1,9,10
 122 502 122 502 147 502 c 128,-1,11
 172 502 172 502 235 505 c 128,-1,12
 298 508 298 508 303 509 c 1,13,-1
 306 499 l 1,14,-1
 295 448 l 1,15,16
 267 446 267 446 257.5 441 c 128,-1,17
 248 436 248 436 248 428 c 0,18,19
 248 425 248 425 265 360 c 1,20,-1
 298 279 l 1,21,-1
 374 408 l 2,22,23
 385 426 385 426 385 435 c 0,24,25
 385 450 385 450 350 450 c 1,26,-1
 348 458 l 1,27,-1
 358 505 l 1,28,-1
 472 502 l 1,29,-1
 557 505 l 1,30,-1
 561 499 l 1,31,-1
 548 444 l 1,32,33
 514 433 514 433 496.5 418.5 c 128,-1,34
 479 404 479 404 457 371 c 2,35,-1
 429 331 l 1,36,-1
 520 333 l 1,37,-1
 526 324 l 1,38,-1
 514 267 l 1,39,-1
 384 267 l 1,40,-1
 354 222 l 2,41,42
 348 214 348 214 342 195 c 1,43,44
 420 196 420 196 502 199 c 1,45,-1
 508 189 l 1,46,-1
 496 132 l 1,47,-1
 322 132 l 1,48,49
 317 117 317 117 317 87 c 0,50,51
 317 59 317 59 352 59 c 1,52,-1
 392 61 l 1,53,-1
 394 55 l 1,54,-1
 380 -3 l 1,55,56
 282 0 282 0 240 0 c 1,57,-1
 104 -9 l 1,58,-1
 117 51 l 1,59,60
 163 57 163 57 177.5 72 c 128,-1,61
 192 87 192 87 199 132 c 1,62,-1
 35 131 l 1,63,-1
 28 139 l 1,64,-1
 43 195 l 1,65,-1
 199 195 l 1,66,67
 192 222 192 222 174 267 c 1,0,-1
EndSplineSet
EndChar

StartChar: brokenbar
Encoding: 166 166 104
Width: 319
GlyphClass: 2
Flags: W
LayerCount: 2
Fore
SplineSet
224 375 m 1,0,-1
 135 363 l 1,1,-1
 127 370 l 1,2,-1
 181 796 l 1,3,-1
 267 807 l 1,4,-1
 282 796 l 1,5,6
 247 550 247 550 224 375 c 1,0,-1
49 -258 m 1,7,-1
 101 158 l 1,8,-1
 189 173 l 1,9,-1
 198 163 l 1,10,-1
 147 -258 l 1,11,-1
 59 -269 l 1,12,-1
 49 -258 l 1,7,-1
EndSplineSet
EndChar

StartChar: section
Encoding: 167 167 105
Width: 480
GlyphClass: 2
Flags: W
LayerCount: 2
Fore
SplineSet
149 -100 m 0,0,1
 98 -100 98 -100 61.5 -78.5 c 128,-1,2
 25 -57 25 -57 25 -30 c 128,-1,3
 25 -3 25 -3 37 30 c 128,-1,4
 49 63 49 63 66 83 c 1,5,-1
 86 82 l 1,6,7
 88 38 88 38 113 9.5 c 128,-1,8
 138 -19 138 -19 168.5 -19 c 128,-1,9
 199 -19 199 -19 215.5 -3.5 c 128,-1,10
 232 12 232 12 232 36 c 128,-1,11
 232 60 232 60 212 82.5 c 128,-1,12
 192 105 192 105 163 125 c 128,-1,13
 134 145 134 145 105 167.5 c 128,-1,14
 76 190 76 190 56 222.5 c 128,-1,15
 36 255 36 255 36 293 c 0,16,17
 36 383 36 383 148 450 c 1,18,19
 140 471 140 471 140 491 c 0,20,21
 140 557 140 557 197 605.5 c 128,-1,22
 254 654 254 654 331 654 c 0,23,24
 376 654 376 654 410.5 639.5 c 128,-1,25
 445 625 445 625 445 606 c 128,-1,26
 445 587 445 587 429 549 c 128,-1,27
 413 511 413 511 402 501 c 1,28,-1
 383 501 l 1,29,30
 376 531 376 531 355.5 550 c 128,-1,31
 335 569 335 569 313.5 569 c 128,-1,32
 292 569 292 569 278 554.5 c 128,-1,33
 264 540 264 540 264 518 c 128,-1,34
 264 496 264 496 284 473 c 128,-1,35
 304 450 304 450 333 429 c 128,-1,36
 362 408 362 408 390.5 384.5 c 128,-1,37
 419 361 419 361 439 329 c 128,-1,38
 459 297 459 297 459 256.5 c 128,-1,39
 459 216 459 216 429 174.5 c 128,-1,40
 399 133 399 133 350 103 c 1,41,42
 356 86 356 86 356 74 c 0,43,44
 356 0 356 0 291.5 -50 c 128,-1,45
 227 -100 227 -100 149 -100 c 0,0,1
174 406 m 1,46,47
 145 380 145 380 145 348 c 128,-1,48
 145 316 145 316 164.5 290 c 128,-1,49
 184 264 184 264 210 246 c 0,50,51
 289 190 289 190 320 154 c 1,52,53
 346 182 346 182 346 215 c 128,-1,54
 346 248 346 248 317.5 278.5 c 128,-1,55
 289 309 289 309 242 344.5 c 128,-1,56
 195 380 195 380 174 406 c 1,46,47
EndSplineSet
EndChar

StartChar: dieresis
Encoding: 168 168 106
Width: 384
GlyphClass: 2
Flags: W
LayerCount: 2
Fore
SplineSet
370 584.5 m 128,-1,1
 349 563 349 563 320 563 c 0,2,3
 263 563 263 563 263 615 c 0,4,5
 263 647 263 647 284.5 669 c 128,-1,6
 306 691 306 691 335 691 c 0,7,8
 391 691 391 691 391 639 c 0,9,0
 391 606 391 606 370 584.5 c 128,-1,1
196 584.5 m 128,-1,11
 175 563 175 563 146 563 c 0,12,13
 90 563 90 563 90 615 c 0,14,15
 90 647 90 647 111.5 669 c 128,-1,16
 133 691 133 691 162 691 c 0,17,18
 217 691 217 691 217 639 c 0,19,10
 217 606 217 606 196 584.5 c 128,-1,11
EndSplineSet
EndChar

StartChar: copyright
Encoding: 169 169 107
Width: 671
GlyphClass: 2
Flags: W
LayerCount: 2
Fore
SplineSet
47 261 m 0,0,1
 47 397 47 397 147.5 497.5 c 128,-1,2
 248 598 248 598 381 598 c 0,3,4
 492 598 492 598 566 519 c 128,-1,5
 640 440 640 440 640 325 c 0,6,7
 640 189 640 189 539 88.5 c 128,-1,8
 438 -12 438 -12 306 -12 c 0,9,10
 195 -12 195 -12 121 67 c 128,-1,11
 47 146 47 146 47 261 c 0,0,1
98 266 m 0,12,13
 98 169 98 169 159 103 c 128,-1,14
 220 37 220 37 312 37 c 0,15,16
 422 37 422 37 506 121 c 128,-1,17
 590 205 590 205 590 320 c 0,18,19
 590 417 590 417 528.5 483 c 128,-1,20
 467 549 467 549 375 549 c 0,21,22
 265 549 265 549 181.5 465 c 128,-1,23
 98 381 98 381 98 266 c 0,12,13
450 148 m 1,24,25
 402 129 402 129 336.5 129 c 128,-1,26
 271 129 271 129 234 165 c 128,-1,27
 197 201 197 201 197 265 c 0,28,29
 197 358 197 358 249 411 c 128,-1,30
 301 464 301 464 392 464 c 0,31,32
 431 464 431 464 499 452 c 1,33,-1
 502 444 l 1,34,35
 487 401 487 401 476 346 c 1,36,-1
 418 342 l 1,37,38
 423 368 423 368 423 377 c 0,39,40
 423 410 423 410 374 410 c 0,41,42
 289 410 289 410 289 276 c 0,43,44
 289 181 289 181 351 181 c 0,45,46
 377 181 377 181 393 196 c 128,-1,47
 409 211 409 211 419 248 c 1,48,-1
 476 252 l 1,49,50
 462 198 462 198 456 155 c 1,51,-1
 450 148 l 1,24,25
EndSplineSet
EndChar

StartChar: ordfeminine
Encoding: 170 170 108
Width: 356
GlyphClass: 2
Flags: W
LayerCount: 2
Fore
SplineSet
221 331 m 0,0,1
 190 331 190 331 190 360 c 0,2,3
 190 375 190 375 210 455 c 1,4,-1
 204 456 l 1,5,6
 152 364 152 364 106 331 c 1,7,8
 65 331 65 331 42 357.5 c 128,-1,9
 19 384 19 384 19 430 c 0,10,11
 19 508 19 508 71 575.5 c 128,-1,12
 123 643 123 643 182 643 c 1,13,-1
 236 632 l 1,14,-1
 240 646 l 1,15,-1
 250 651 l 1,16,-1
 318 643 l 1,17,-1
 323 630 l 1,18,19
 294 518 294 518 280 423 c 1,20,-1
 282 421 l 1,21,22
 287 421 287 421 322 451 c 1,23,-1
 335 450 l 1,24,-1
 347 423 l 1,25,26
 296 369 296 369 270 350 c 128,-1,27
 244 331 244 331 221 331 c 0,0,1
132 548 m 128,-1,29
 118 511 118 511 118 464.5 c 128,-1,30
 118 418 118 418 130.5 418 c 128,-1,31
 143 418 143 418 170 464 c 128,-1,32
 197 510 197 510 217 567 c 1,33,34
 189 585 189 585 162 585 c 0,35,28
 146 585 146 585 132 548 c 128,-1,29
EndSplineSet
EndChar

StartChar: guillemotleft
Encoding: 171 171 109
Width: 436
GlyphClass: 2
Flags: W
LayerCount: 2
Fore
SplineSet
335 229 m 1,0,-1
 402 85 l 1,1,-1
 396 69 l 1,2,-1
 352 44 l 1,3,4
 336 68 336 68 215 215 c 1,5,-1
 217 236 l 1,6,7
 360 371 360 371 396 411 c 1,8,-1
 435 386 l 1,9,-1
 437 370 l 1,10,-1
 335 229 l 1,0,-1
155 229 m 1,11,-1
 222 85 l 1,12,-1
 216 69 l 1,13,-1
 172 44 l 1,14,15
 147 81 147 81 35 215 c 1,16,-1
 37 236 l 1,17,18
 180 371 180 371 216 411 c 1,19,-1
 255 386 l 1,20,-1
 257 370 l 1,21,-1
 155 229 l 1,11,-1
EndSplineSet
EndChar

StartChar: logicalnot
Encoding: 172 172 110
Width: 488
GlyphClass: 2
Flags: W
LayerCount: 2
Fore
SplineSet
449 327 m 1,0,-1
 454 314 l 1,1,2
 435 244 435 244 426 171 c 2,3,-1
 410 35 l 1,4,-1
 317 21 l 1,5,-1
 308 28 l 1,6,7
 321 130 321 130 333 222 c 1,8,-1
 242 222 l 1,9,-1
 23 221 l 1,10,-1
 16 231 l 1,11,-1
 42 322 l 1,12,13
 181 321 181 321 267 321 c 1,14,-1
 449 327 l 1,0,-1
EndSplineSet
EndChar

StartChar: registered
Encoding: 174 174 111
Width: 451
GlyphClass: 2
Flags: W
LayerCount: 2
Fore
SplineSet
111.5 356 m 128,-1,1
 62 409 62 409 62 493 c 128,-1,2
 62 577 62 577 129 644 c 128,-1,3
 196 711 196 711 277.5 711 c 128,-1,4
 359 711 359 711 408.5 658 c 128,-1,5
 458 605 458 605 458 521 c 128,-1,6
 458 437 458 437 391 370 c 128,-1,7
 324 303 324 303 242.5 303 c 128,-1,0
 161 303 161 303 111.5 356 c 128,-1,1
154 618 m 128,-1,9
 99 563 99 563 99 495 c 128,-1,10
 99 427 99 427 139 384 c 128,-1,11
 179 341 179 341 245 341 c 128,-1,12
 311 341 311 341 366 396 c 128,-1,13
 421 451 421 451 421 519 c 128,-1,14
 421 587 421 587 381 630 c 128,-1,15
 341 673 341 673 275 673 c 128,-1,8
 209 673 209 673 154 618 c 128,-1,9
184 618 m 1,16,-1
 226 617 l 1,17,-1
 236 617 l 1,18,19
 258 619 258 619 271 619 c 0,20,21
 348 619 348 619 348 570 c 0,22,23
 348 526 348 526 300 502 c 1,24,-1
 318 464 l 2,25,26
 331 436 331 436 348 434 c 1,27,-1
 351 431 l 1,28,29
 349 417 349 417 343.5 413.5 c 128,-1,30
 338 410 338 410 316.5 409.5 c 128,-1,31
 295 409 295 409 287 415 c 128,-1,32
 279 421 279 421 273 439 c 2,33,-1
 257 490 l 1,34,-1
 237 490 l 1,35,36
 231 460 231 460 231 451.5 c 128,-1,37
 231 443 231 443 235.5 440.5 c 128,-1,38
 240 438 240 438 252 438 c 1,39,40
 253 437 253 437 253 435 c 2,41,-1
 248 413 l 1,42,43
 223 415 223 415 210 415 c 2,44,-1
 199 415 l 1,45,-1
 155 412 l 1,46,-1
 160 436 l 1,47,48
 173 438 173 438 178.5 445 c 128,-1,49
 184 452 184 452 186 469 c 2,50,-1
 199 576 l 2,51,52
 201 594 201 594 192 594 c 2,53,-1
 181 594 l 1,54,-1
 179 597 l 1,55,-1
 184 618 l 1,16,-1
241 522 m 1,56,-1
 266 520 l 1,57,58
 295 529 295 529 295 561 c 0,59,60
 295 588 295 588 257 588 c 0,61,62
 252 588 252 588 251 580 c 2,63,-1
 241 522 l 1,56,-1
EndSplineSet
EndChar

StartChar: macron
Encoding: 175 175 112
Width: 384
GlyphClass: 2
Flags: W
LayerCount: 2
Fore
SplineSet
388 672 m 1,0,-1
 394 658 l 1,1,-1
 372 582 l 1,2,-1
 102 580 l 1,3,-1
 93 591 l 1,4,-1
 116 667 l 1,5,6
 208 666 208 666 265 666 c 1,7,-1
 388 672 l 1,0,-1
EndSplineSet
EndChar

StartChar: degree
Encoding: 176 176 113
Width: 291
GlyphClass: 2
Flags: W
LayerCount: 2
Fore
SplineSet
86.5 427 m 128,-1,1
 55 461 55 461 55 515 c 128,-1,2
 55 569 55 569 98 611.5 c 128,-1,3
 141 654 141 654 193.5 654 c 128,-1,4
 246 654 246 654 277.5 620 c 128,-1,5
 309 586 309 586 309 532 c 128,-1,6
 309 478 309 478 266 435.5 c 128,-1,7
 223 393 223 393 170.5 393 c 128,-1,0
 118 393 118 393 86.5 427 c 128,-1,1
135 572.5 m 128,-1,9
 113 549 113 549 113 518.5 c 128,-1,10
 113 488 113 488 130.5 469.5 c 128,-1,11
 148 451 148 451 177.5 451 c 128,-1,12
 207 451 207 451 229 474.5 c 128,-1,13
 251 498 251 498 251 528.5 c 128,-1,14
 251 559 251 559 233 577.5 c 128,-1,15
 215 596 215 596 186 596 c 128,-1,8
 157 596 157 596 135 572.5 c 128,-1,9
EndSplineSet
EndChar

StartChar: plusminus
Encoding: 177 177 114
Width: 488
GlyphClass: 2
Flags: W
LayerCount: 2
Fore
SplineSet
461 225 m 1,0,-1
 290 224 l 1,1,-1
 271 61 l 1,2,-1
 180 47 l 1,3,-1
 170 54 l 1,4,5
 182 143 182 143 192 224 c 1,6,-1
 23 223 l 1,7,-1
 17 234 l 1,8,-1
 42 325 l 1,9,10
 127 324 127 324 205 324 c 1,11,-1
 227 498 l 1,12,-1
 318 509 l 1,13,-1
 330 502 l 1,14,15
 312 401 312 401 302 324 c 1,16,-1
 478 330 l 1,17,-1
 483 317 l 1,18,-1
 461 225 l 1,0,-1
413 -97 m 1,19,-1
 -8 -99 l 1,20,-1
 -14 -85 l 1,21,-1
 5 -9 l 1,22,-1
 228 -9 l 2,23,24
 427 -9 427 -9 427 -5 c 1,25,-1
 433 -20 l 1,26,-1
 413 -97 l 1,19,-1
EndSplineSet
EndChar

StartChar: two.sups
Encoding: 178 178 115
Width: 342
GlyphClass: 2
Flags: W
LayerCount: 2
Fore
SplineSet
186 609 m 0,0,1
 186 641 186 641 145.5 641 c 128,-1,2
 105 641 105 641 62 587 c 1,3,-1
 51 587 l 1,4,-1
 45 650 l 1,5,6
 75 685 75 685 114 706.5 c 128,-1,7
 153 728 153 728 195 728 c 128,-1,8
 237 728 237 728 267 705 c 128,-1,9
 297 682 297 682 297 642 c 128,-1,10
 297 602 297 602 263.5 552 c 128,-1,11
 230 502 230 502 142 416 c 1,12,-1
 145 410 l 1,13,-1
 197 410 l 2,14,15
 224 410 224 410 237 422.5 c 128,-1,16
 250 435 250 435 260 469 c 1,17,-1
 322 474 l 1,18,19
 298 397 298 397 288 342 c 1,20,-1
 277 333 l 1,21,22
 125 339 125 339 62 339 c 1,23,-1
 7 334 l 1,24,-1
 6 382 l 1,25,-1
 96 469 l 1,26,27
 186 564 186 564 186 609 c 0,0,1
EndSplineSet
EndChar

StartChar: three.sups
Encoding: 179 179 116
Width: 302
GlyphClass: 2
Flags: W
LayerCount: 2
Fore
SplineSet
23 419 m 1,0,1
 48 408 48 408 81.5 408 c 128,-1,2
 115 408 115 408 138 423.5 c 128,-1,3
 161 439 161 439 161 463 c 0,4,5
 161 503 161 503 83 503 c 1,6,-1
 76 511 l 1,7,-1
 76 559 l 1,8,-1
 119 568 l 1,9,10
 169 590 169 590 169 628 c 0,11,12
 169 641 169 641 161 648.5 c 128,-1,13
 153 656 153 656 139 656 c 0,14,15
 107 656 107 656 67 628 c 1,16,-1
 58 628 l 1,17,-1
 48 683 l 1,18,19
 74 699 74 699 112 713.5 c 128,-1,20
 150 728 150 728 185.5 728 c 128,-1,21
 221 728 221 728 246.5 709 c 128,-1,22
 272 690 272 690 272 658.5 c 128,-1,23
 272 627 272 627 249.5 601 c 128,-1,24
 227 575 227 575 190 562 c 1,25,-1
 189 555 l 1,26,27
 269 529 269 529 269 474 c 128,-1,28
 269 419 269 419 202 375 c 128,-1,29
 135 331 135 331 58 331 c 0,30,31
 28 331 28 331 19 346.5 c 128,-1,32
 10 362 10 362 10 381 c 128,-1,33
 10 400 10 400 10 407 c 1,34,-1
 23 419 l 1,0,1
EndSplineSet
EndChar

StartChar: acute
Encoding: 180 180 117
Width: 384
GlyphClass: 2
Flags: W
LayerCount: 2
Fore
SplineSet
356 666 m 1,0,-1
 355 652 l 1,1,2
 259 592 259 592 166 523 c 1,3,-1
 151 527 l 1,4,-1
 121 566 l 1,5,6
 206 649 206 649 289 737 c 1,7,-1
 302 736 l 1,8,-1
 356 666 l 1,0,-1
EndSplineSet
EndChar

StartChar: mu
Encoding: 181 181 118
AltUni2: 0003bc.ffffffff.0
Width: 515
GlyphClass: 2
Flags: W
LayerCount: 2
Fore
SplineSet
441 92 m 0,0,1
 462 92 462 92 487 109 c 1,2,-1
 500 88 l 1,3,4
 479 58 479 58 443 25.5 c 128,-1,5
 407 -7 407 -7 385 -12 c 1,6,7
 341 -12 341 -12 317.5 7 c 128,-1,8
 294 26 294 26 295 63 c 1,9,-1
 287 67 l 1,10,11
 216 -4 216 -4 180 -11 c 1,12,13
 151 -11 151 -11 132 6 c 1,14,-1
 127 3 l 1,15,16
 106 -149 106 -149 106 -194 c 2,17,-1
 106 -213 l 1,18,-1
 98 -222 l 1,19,-1
 -13 -242 l 1,20,-1
 -22 -229 l 1,21,22
 7 -88 7 -88 31 73 c 2,23,-1
 70 327 l 2,24,25
 75 364 75 364 75 389 c 128,-1,26
 75 414 75 414 74 433 c 1,27,-1
 83 450 l 1,28,-1
 218 474 l 1,29,-1
 225 457 l 1,30,31
 209 428 209 428 186 305.5 c 128,-1,32
 163 183 163 183 163 157 c 0,33,34
 163 94 163 94 215 94 c 0,35,36
 236 94 236 94 255 105.5 c 128,-1,37
 274 117 274 117 295 131 c 1,38,39
 323 366 323 366 323 387.5 c 128,-1,40
 323 409 323 409 321 432 c 1,41,-1
 331 449 l 1,42,-1
 471 472 l 1,43,-1
 479 455 l 1,44,45
 466 433 466 433 439 295.5 c 128,-1,46
 412 158 412 158 412 125 c 128,-1,47
 412 92 412 92 441 92 c 0,0,1
EndSplineSet
EndChar

StartChar: paragraph
Encoding: 182 182 119
Width: 548
GlyphClass: 2
Flags: W
LayerCount: 2
Fore
SplineSet
293 646 m 1,0,-1
 434 642 l 1,1,-1
 574 645 l 1,2,-1
 561 583 l 1,3,-1
 558 579 l 1,4,5
 523 576 523 576 511 567.5 c 128,-1,6
 499 559 499 559 494 533 c 1,7,8
 476 466 476 466 437 171 c 0,9,10
 422 50 422 50 353 -25 c 128,-1,11
 284 -100 284 -100 176 -100 c 0,12,13
 125 -100 125 -100 88.5 -75 c 128,-1,14
 52 -50 52 -50 52 -11 c 0,15,16
 52 13 52 13 68.5 47 c 128,-1,17
 85 81 85 81 107 105 c 1,18,-1
 123 105 l 1,19,20
 122 95 122 95 122 86 c 0,21,22
 122 39 122 39 141.5 7.5 c 128,-1,23
 161 -24 161 -24 206 -24 c 128,-1,24
 251 -24 251 -24 273 8 c 128,-1,25
 295 40 295 40 304 121 c 1,26,-1
 359 562 l 2,27,28
 360 572 360 572 356 574.5 c 128,-1,29
 352 577 352 577 334 577 c 0,30,31
 288 577 288 577 263 524 c 128,-1,32
 238 471 238 471 238 384.5 c 128,-1,33
 238 298 238 298 279 229 c 1,34,-1
 276 205 l 1,35,36
 172 209 172 209 108.5 262 c 128,-1,37
 45 315 45 315 45 412 c 128,-1,38
 45 509 45 509 116 577.5 c 128,-1,39
 187 646 187 646 293 646 c 1,0,-1
EndSplineSet
EndChar

StartChar: periodcentered
Encoding: 183 183 120
Width: 230
GlyphClass: 2
Flags: W
LayerCount: 2
Fore
SplineSet
168.5 187 m 128,-1,1
 143 161 143 161 107 161 c 0,2,3
 39 161 39 161 39 226 c 0,4,5
 39 266 39 266 64 292.5 c 128,-1,6
 89 319 89 319 124.5 319 c 128,-1,7
 160 319 160 319 177 301.5 c 128,-1,8
 194 284 194 284 194 248.5 c 128,-1,0
 194 213 194 213 168.5 187 c 128,-1,1
EndSplineSet
EndChar

StartChar: cedilla
Encoding: 184 184 121
Width: 387
GlyphClass: 2
Flags: W
LayerCount: 2
Fore
SplineSet
165 -44 m 1,0,1
 249 -95 249 -95 249 -135.5 c 128,-1,2
 249 -176 249 -176 204 -207 c 128,-1,3
 159 -238 159 -238 105 -238 c 0,4,5
 79 -238 79 -238 56 -226 c 128,-1,6
 33 -214 33 -214 33 -196.5 c 128,-1,7
 33 -179 33 -179 79 -130 c 1,8,-1
 87 -130 l 1,9,10
 87 -134 87 -134 87 -146.5 c 128,-1,11
 87 -159 87 -159 97.5 -172.5 c 128,-1,12
 108 -186 108 -186 128 -186 c 128,-1,13
 148 -186 148 -186 160 -177 c 128,-1,14
 172 -168 172 -168 172 -154 c 0,15,16
 172 -130 172 -130 97 -86 c 1,17,-1
 142 29 l 1,18,-1
 194 29 l 1,19,-1
 165 -44 l 1,0,1
EndSplineSet
EndChar

StartChar: one.sups
Encoding: 185 185 122
Width: 257
GlyphClass: 2
Flags: W
LayerCount: 2
Fore
SplineSet
183.5 531.5 m 128,-1,1
 170 439 170 439 170 413.5 c 128,-1,2
 170 388 170 388 192 388 c 2,3,-1
 222 389 l 1,4,-1
 224 386 l 1,5,-1
 209 337 l 1,6,7
 148 339 148 339 114 339 c 1,8,-1
 3 332 l 1,9,-1
 14 379 l 1,10,11
 72 383 72 383 77 426 c 2,12,-1
 101 623 l 2,13,14
 104 646 104 646 98.5 653 c 128,-1,15
 93 660 93 660 75 660 c 1,16,-1
 43 658 l 1,17,-1
 39 662 l 1,18,-1
 48 705 l 1,19,20
 65 707 65 707 231 728 c 1,21,-1
 237 705 l 1,22,23
 215 687 215 687 205 656 c 1,24,0
 197 624 197 624 183.5 531.5 c 128,-1,1
EndSplineSet
EndChar

StartChar: ordmasculine
Encoding: 186 186 123
Width: 325
GlyphClass: 2
Flags: W
LayerCount: 2
Fore
SplineSet
155 391 m 0,0,1
 202 391 202 391 202 509 c 0,2,3
 202 584 202 584 168 584 c 0,4,5
 147 584 147 584 134 552 c 128,-1,6
 121 520 121 520 121 469 c 0,7,8
 121 391 121 391 155 391 c 0,0,1
130 331 m 0,9,10
 80 331 80 331 52 363 c 128,-1,11
 24 395 24 395 24 453 c 0,12,13
 24 539 24 539 72 594.5 c 128,-1,14
 120 650 120 650 194 650 c 0,15,16
 245 650 245 650 272.5 620 c 128,-1,17
 300 590 300 590 300 534 c 0,18,19
 300 445 300 445 252.5 388 c 128,-1,20
 205 331 205 331 130 331 c 0,9,10
EndSplineSet
EndChar

StartChar: guillemotright
Encoding: 187 187 124
Width: 436
GlyphClass: 2
Flags: W
LayerCount: 2
Fore
SplineSet
265 44 m 1,0,-1
 226 69 l 1,1,-1
 225 85 l 1,2,3
 230 93 230 93 254 126 c 0,4,5
 320 214 320 214 325 226 c 1,6,7
 323 232 323 232 309 262 c 128,-1,8
 295 292 295 292 278.5 327.5 c 128,-1,9
 262 363 262 363 259 369 c 1,10,-1
 265 385 l 1,11,-1
 309 411 l 1,12,13
 333 375 333 375 447 239 c 1,14,-1
 444 219 l 1,15,16
 302 84 302 84 265 44 c 1,0,-1
85 44 m 1,17,-1
 46 69 l 1,18,-1
 45 85 l 1,19,20
 50 93 50 93 74 126 c 0,21,22
 140 214 140 214 145 226 c 1,23,24
 143 232 143 232 129 262 c 128,-1,25
 115 292 115 292 98.5 327.5 c 128,-1,26
 82 363 82 363 79 369 c 1,27,-1
 85 385 l 1,28,-1
 129 411 l 1,29,30
 153 375 153 375 267 239 c 1,31,-1
 264 219 l 1,32,33
 122 84 122 84 85 44 c 1,17,-1
EndSplineSet
EndChar

StartChar: onequarter
Encoding: 188 188 125
Width: 762
GlyphClass: 2
Flags: W
LayerCount: 2
Fore
SplineSet
598 653 m 1,0,-1
 605 634 l 1,1,2
 429 367 429 367 339 227 c 1,3,-1
 137 -93 l 1,4,-1
 72 -66 l 1,5,-1
 67 -52 l 1,6,7
 188 128 188 128 274 264 c 2,8,-1
 536 678 l 1,9,-1
 598 653 l 1,0,-1
170 340 m 0,10,11
 170 309 170 309 192 309 c 1,12,-1
 222 311 l 1,13,-1
 224 307 l 1,14,-1
 209 258 l 1,15,16
 148 261 148 261 114 261 c 1,17,-1
 3 254 l 1,18,-1
 14 300 l 1,19,20
 44 302 44 302 59 313 c 128,-1,21
 74 324 74 324 77 347 c 2,22,-1
 101 544 l 2,23,24
 104 567 104 567 98.5 574 c 128,-1,25
 93 581 93 581 75 581 c 1,26,-1
 43 579 l 1,27,-1
 39 584 l 1,28,-1
 48 626 l 1,29,30
 65 628 65 628 231 649 c 1,31,-1
 237 626 l 1,32,33
 216 610 216 610 205 577 c 1,34,35
 197 546 197 546 183.5 453 c 128,-1,36
 170 360 170 360 170 340 c 0,10,11
426 96 m 1,37,-1
 434 149 l 1,38,-1
 627 387 l 1,39,-1
 632 389 l 1,40,-1
 703 381 l 1,41,-1
 677 160 l 1,42,-1
 725 160 l 1,43,-1
 730 152 l 1,44,-1
 716 90 l 1,45,-1
 669 91 l 1,46,-1
 662 7 l 1,47,-1
 656 0 l 1,48,-1
 565 -7 l 1,49,-1
 559 -1 l 1,50,51
 569 49 569 49 575 94 c 1,52,-1
 426 96 l 1,37,-1
589 264 m 1,53,-1
 510 160 l 1,54,-1
 584 160 l 1,55,-1
 596 264 l 1,56,-1
 589 264 l 1,53,-1
EndSplineSet
EndChar

StartChar: onehalf
Encoding: 189 189 126
Width: 792
GlyphClass: 2
Flags: W
LayerCount: 2
Fore
SplineSet
598 653 m 1,0,-1
 605 634 l 1,1,2
 429 367 429 367 339 227 c 1,3,-1
 137 -93 l 1,4,-1
 72 -66 l 1,5,-1
 67 -52 l 1,6,7
 188 128 188 128 274 264 c 2,8,-1
 536 678 l 1,9,-1
 598 653 l 1,0,-1
170 340 m 0,10,11
 170 309 170 309 192 309 c 1,12,-1
 222 311 l 1,13,-1
 224 307 l 1,14,-1
 209 258 l 1,15,16
 148 261 148 261 114 261 c 1,17,-1
 3 254 l 1,18,-1
 14 300 l 1,19,20
 44 302 44 302 59 313 c 128,-1,21
 74 324 74 324 77 347 c 2,22,-1
 101 544 l 2,23,24
 104 567 104 567 98.5 574 c 128,-1,25
 93 581 93 581 75 581 c 1,26,-1
 43 579 l 1,27,-1
 39 584 l 1,28,-1
 48 626 l 1,29,30
 65 628 65 628 231 649 c 1,31,-1
 237 626 l 1,32,33
 216 610 216 610 205 577 c 1,34,35
 197 546 197 546 183.5 453 c 128,-1,36
 170 360 170 360 170 340 c 0,10,11
626 269 m 0,37,38
 626 301 626 301 586 301 c 128,-1,39
 546 301 546 301 502 248 c 1,40,-1
 491 248 l 1,41,-1
 485 310 l 1,42,43
 515 346 515 346 554 367.5 c 128,-1,44
 593 389 593 389 635 389 c 128,-1,45
 677 389 677 389 707 365.5 c 128,-1,46
 737 342 737 342 737 302 c 128,-1,47
 737 262 737 262 703.5 213 c 128,-1,48
 670 164 670 164 582 76 c 1,49,-1
 585 71 l 1,50,-1
 637 71 l 2,51,52
 664 71 664 71 677 83.5 c 128,-1,53
 690 96 690 96 700 130 c 1,54,-1
 762 135 l 1,55,56
 738 58 738 58 728 3 c 1,57,-1
 717 -6 l 1,58,59
 565 0 565 0 502 0 c 1,60,-1
 447 -6 l 1,61,-1
 446 42 l 1,62,-1
 536 129 l 1,63,64
 626 224 626 224 626 269 c 0,37,38
EndSplineSet
EndChar

StartChar: threequarters
Encoding: 190 190 127
Width: 762
GlyphClass: 2
Flags: W
LayerCount: 2
Fore
SplineSet
598 653 m 1,0,-1
 605 634 l 1,1,2
 429 367 429 367 339 227 c 1,3,-1
 137 -93 l 1,4,-1
 72 -66 l 1,5,-1
 67 -52 l 1,6,7
 188 128 188 128 274 264 c 2,8,-1
 536 678 l 1,9,-1
 598 653 l 1,0,-1
426 96 m 1,10,-1
 434 149 l 1,11,-1
 627 387 l 1,12,-1
 632 389 l 1,13,-1
 703 381 l 1,14,-1
 677 160 l 1,15,-1
 725 160 l 1,16,-1
 730 152 l 1,17,-1
 716 90 l 1,18,-1
 669 91 l 1,19,-1
 662 7 l 1,20,-1
 656 0 l 1,21,-1
 565 -7 l 1,22,-1
 559 -1 l 1,23,24
 569 49 569 49 575 94 c 1,25,-1
 426 96 l 1,10,-1
589 264 m 1,26,-1
 510 160 l 1,27,-1
 584 160 l 1,28,-1
 596 264 l 1,29,-1
 589 264 l 1,26,-1
23 340 m 1,30,31
 48 329 48 329 81 329 c 128,-1,32
 114 329 114 329 137.5 344.5 c 128,-1,33
 161 360 161 360 161 385 c 0,34,35
 161 424 161 424 83 424 c 1,36,-1
 76 432 l 1,37,-1
 76 480 l 1,38,-1
 119 489 l 1,39,40
 169 511 169 511 169 549 c 0,41,42
 169 562 169 562 161 569.5 c 128,-1,43
 153 577 153 577 139 577 c 0,44,45
 108 577 108 577 67 550 c 1,46,-1
 58 550 l 1,47,-1
 48 604 l 1,48,49
 74 620 74 620 112 634.5 c 128,-1,50
 150 649 150 649 185.5 649 c 128,-1,51
 221 649 221 649 246.5 630 c 128,-1,52
 272 611 272 611 272 580 c 128,-1,53
 272 549 272 549 249.5 523 c 128,-1,54
 227 497 227 497 190 483 c 1,55,-1
 189 476 l 1,56,57
 269 450 269 450 269 395 c 128,-1,58
 269 340 269 340 202 296.5 c 128,-1,59
 135 253 135 253 58 253 c 0,60,61
 28 253 28 253 19 268 c 128,-1,62
 10 283 10 283 10 302 c 128,-1,63
 10 321 10 321 10 328 c 1,64,-1
 23 340 l 1,30,31
EndSplineSet
EndChar

StartChar: questiondown
Encoding: 191 191 128
Width: 358
GlyphClass: 2
Flags: W
LayerCount: 2
Fore
SplineSet
95 -42 m 0,0,1
 95 -127 95 -127 259 -137 c 1,2,-1
 265 -151 l 1,3,-1
 219 -235 l 1,4,-1
 203 -242 l 1,5,6
 102 -239 102 -239 36.5 -193.5 c 128,-1,7
 -29 -148 -29 -148 -29 -81 c 0,8,9
 -29 -15 -29 -15 18 30 c 0,10,11
 58 68 58 68 142 121 c 1,12,13
 148 126 148 126 155 129 c 1,14,-1
 158 136 l 1,15,-1
 155 219 l 1,16,-1
 162 230 l 1,17,-1
 252 248 l 1,18,-1
 263 242 l 1,19,-1
 271 116 l 1,20,-1
 266 102 l 1,21,-1
 155 39 l 2,22,23
 95 5 95 5 95 -42 c 0,0,1
175.5 447.5 m 128,-1,25
 201 474 201 474 236.5 474 c 128,-1,26
 272 474 272 474 289 456 c 128,-1,27
 306 438 306 438 306 403 c 128,-1,28
 306 368 306 368 280.5 342 c 128,-1,29
 255 316 255 316 219.5 316 c 128,-1,30
 184 316 184 316 167 333.5 c 128,-1,31
 150 351 150 351 150 386 c 128,-1,24
 150 421 150 421 175.5 447.5 c 128,-1,25
EndSplineSet
EndChar

StartChar: Agrave
Encoding: 192 192 129
Width: 607
GlyphClass: 2
Flags: W
LayerCount: 2
Fore
SplineSet
578 -3 m 1,0,1
 501 0 501 0 462 0 c 0,2,3
 386 0 386 0 294 -8 c 1,4,-1
 290 0 l 1,5,-1
 302 59 l 1,6,7
 350 63 350 63 365.5 71 c 128,-1,8
 381 79 381 79 381 101 c 0,9,10
 381 113 381 113 370 207 c 1,11,12
 344 209 344 209 290 209 c 128,-1,13
 236 209 236 209 190 202 c 1,14,-1
 158 125 l 2,15,16
 148 101 148 101 148 88 c 0,17,18
 148 62 148 62 187 62 c 2,19,-1
 229 62 l 1,20,-1
 232 56 l 1,21,-1
 218 -6 l 1,22,23
 139 0 139 0 78 0 c 1,24,-1
 -39 -3 l 1,25,-1
 -24 63 l 1,26,27
 19 70 19 70 47 130 c 2,28,-1
 277 636 l 1,29,-1
 434 653 l 1,30,-1
 445 648 l 1,31,32
 491 303 491 303 522 131 c 0,33,34
 528 95 528 95 542 80.5 c 128,-1,35
 556 66 556 66 588 62 c 1,36,-1
 592 55 l 1,37,-1
 578 -3 l 1,0,1
292 285 m 2,38,39
 319 285 319 285 363 289 c 1,40,-1
 335 512 l 1,41,-1
 321 512 l 1,42,-1
 225 285 l 1,43,-1
 292 285 l 2,38,39
229 762 m 1,44,-1
 224 775 l 1,45,-1
 249 852 l 1,46,-1
 262 857 l 1,47,48
 377 800 377 800 485 753 c 1,49,-1
 472 706 l 1,50,-1
 458 697 l 1,51,52
 336 735 336 735 229 762 c 1,44,-1
EndSplineSet
EndChar

StartChar: Aacute
Encoding: 193 193 130
Width: 607
GlyphClass: 2
Flags: W
LayerCount: 2
Fore
SplineSet
578 -3 m 1,0,1
 501 0 501 0 462 0 c 0,2,3
 386 0 386 0 294 -8 c 1,4,-1
 290 0 l 1,5,-1
 302 59 l 1,6,7
 350 63 350 63 365.5 71 c 128,-1,8
 381 79 381 79 381 101 c 0,9,10
 381 113 381 113 370 207 c 1,11,12
 344 209 344 209 290 209 c 128,-1,13
 236 209 236 209 190 202 c 1,14,-1
 158 125 l 2,15,16
 148 101 148 101 148 88 c 0,17,18
 148 62 148 62 187 62 c 2,19,-1
 229 62 l 1,20,-1
 232 56 l 1,21,-1
 218 -6 l 1,22,23
 139 0 139 0 78 0 c 1,24,-1
 -39 -3 l 1,25,-1
 -24 63 l 1,26,27
 19 70 19 70 47 130 c 2,28,-1
 277 636 l 1,29,-1
 434 653 l 1,30,-1
 445 648 l 1,31,32
 491 303 491 303 522 131 c 0,33,34
 528 95 528 95 542 80.5 c 128,-1,35
 556 66 556 66 588 62 c 1,36,-1
 592 55 l 1,37,-1
 578 -3 l 1,0,1
292 285 m 2,38,39
 319 285 319 285 363 289 c 1,40,-1
 335 512 l 1,41,-1
 321 512 l 1,42,-1
 225 285 l 1,43,-1
 292 285 l 2,38,39
530 775 m 1,44,-1
 525 762 l 1,45,46
 410 733 410 733 296 697 c 1,47,-1
 283 706 l 1,48,-1
 269 753 l 1,49,-1
 492 857 l 1,50,-1
 505 852 l 1,51,-1
 530 775 l 1,44,-1
EndSplineSet
EndChar

StartChar: Acircumflex
Encoding: 194 194 131
Width: 607
GlyphClass: 2
Flags: W
LayerCount: 2
Fore
SplineSet
578 -3 m 1,0,1
 501 0 501 0 462 0 c 0,2,3
 386 0 386 0 294 -8 c 1,4,-1
 290 0 l 1,5,-1
 302 59 l 1,6,7
 350 63 350 63 365.5 71 c 128,-1,8
 381 79 381 79 381 101 c 0,9,10
 381 113 381 113 370 207 c 1,11,12
 344 209 344 209 290 209 c 128,-1,13
 236 209 236 209 190 202 c 1,14,-1
 158 125 l 2,15,16
 148 101 148 101 148 88 c 0,17,18
 148 62 148 62 187 62 c 2,19,-1
 229 62 l 1,20,-1
 232 56 l 1,21,-1
 218 -6 l 1,22,23
 139 0 139 0 78 0 c 1,24,-1
 -39 -3 l 1,25,-1
 -24 63 l 1,26,27
 19 70 19 70 47 130 c 2,28,-1
 277 636 l 1,29,-1
 434 653 l 1,30,-1
 445 648 l 1,31,32
 491 303 491 303 522 131 c 0,33,34
 528 95 528 95 542 80.5 c 128,-1,35
 556 66 556 66 588 62 c 1,36,-1
 592 55 l 1,37,-1
 578 -3 l 1,0,1
292 285 m 2,38,39
 319 285 319 285 363 289 c 1,40,-1
 335 512 l 1,41,-1
 321 512 l 1,42,-1
 225 285 l 1,43,-1
 292 285 l 2,38,39
376 765 m 1,44,-1
 246 707 l 1,45,-1
 231 711 l 1,46,-1
 212 752 l 1,47,-1
 380 876 l 1,48,-1
 400 876 l 1,49,50
 400 877 400 877 426 853 c 0,51,52
 515 771 515 771 537 752 c 1,53,-1
 508 711 l 1,54,-1
 491 707 l 1,55,-1
 376 765 l 1,44,-1
EndSplineSet
EndChar

StartChar: Atilde
Encoding: 195 195 132
Width: 607
GlyphClass: 2
Flags: W
LayerCount: 2
Fore
SplineSet
578 -3 m 1,0,1
 501 0 501 0 462 0 c 0,2,3
 386 0 386 0 294 -8 c 1,4,-1
 290 0 l 1,5,-1
 302 59 l 1,6,7
 350 63 350 63 365.5 71 c 128,-1,8
 381 79 381 79 381 101 c 0,9,10
 381 113 381 113 370 207 c 1,11,12
 344 209 344 209 290 209 c 128,-1,13
 236 209 236 209 190 202 c 1,14,-1
 158 125 l 2,15,16
 148 101 148 101 148 88 c 0,17,18
 148 62 148 62 187 62 c 2,19,-1
 229 62 l 1,20,-1
 232 56 l 1,21,-1
 218 -6 l 1,22,23
 139 0 139 0 78 0 c 1,24,-1
 -39 -3 l 1,25,-1
 -24 63 l 1,26,27
 19 70 19 70 47 130 c 2,28,-1
 277 636 l 1,29,-1
 434 653 l 1,30,-1
 445 648 l 1,31,32
 491 303 491 303 522 131 c 0,33,34
 528 95 528 95 542 80.5 c 128,-1,35
 556 66 556 66 588 62 c 1,36,-1
 592 55 l 1,37,-1
 578 -3 l 1,0,1
292 285 m 2,38,39
 319 285 319 285 363 289 c 1,40,-1
 335 512 l 1,41,-1
 321 512 l 1,42,-1
 225 285 l 1,43,-1
 292 285 l 2,38,39
375.5 818 m 128,-1,45
 431 801 431 801 442.5 801 c 128,-1,46
 454 801 454 801 471.5 814 c 128,-1,47
 489 827 489 827 513 853 c 1,48,-1
 524 853 l 1,49,-1
 559 816 l 1,50,-1
 558 806 l 1,51,-1
 470 709 l 1,52,-1
 453 705 l 1,53,54
 437 705 437 705 381.5 722 c 128,-1,55
 326 739 326 739 314 739 c 0,56,57
 292 739 292 739 256 700 c 2,58,-1
 244 687 l 1,59,-1
 233 687 l 1,60,-1
 198 724 l 1,61,-1
 199 735 l 1,62,-1
 287 831 l 1,63,-1
 303 835 l 1,64,44
 320 835 320 835 375.5 818 c 128,-1,45
EndSplineSet
EndChar

StartChar: Adieresis
Encoding: 196 196 133
Width: 607
GlyphClass: 2
Flags: W
LayerCount: 2
Fore
SplineSet
578 -3 m 1,0,1
 501 0 501 0 462 0 c 0,2,3
 386 0 386 0 294 -8 c 1,4,-1
 290 0 l 1,5,-1
 302 59 l 1,6,7
 350 63 350 63 365.5 71 c 128,-1,8
 381 79 381 79 381 101 c 0,9,10
 381 113 381 113 370 207 c 1,11,12
 344 209 344 209 290 209 c 128,-1,13
 236 209 236 209 190 202 c 1,14,-1
 158 125 l 2,15,16
 148 101 148 101 148 88 c 0,17,18
 148 62 148 62 187 62 c 2,19,-1
 229 62 l 1,20,-1
 232 56 l 1,21,-1
 218 -6 l 1,22,23
 139 0 139 0 78 0 c 1,24,-1
 -39 -3 l 1,25,-1
 -24 63 l 1,26,27
 19 70 19 70 47 130 c 2,28,-1
 277 636 l 1,29,-1
 434 653 l 1,30,-1
 445 648 l 1,31,32
 491 303 491 303 522 131 c 0,33,34
 528 95 528 95 542 80.5 c 128,-1,35
 556 66 556 66 588 62 c 1,36,-1
 592 55 l 1,37,-1
 578 -3 l 1,0,1
292 285 m 2,38,39
 319 285 319 285 363 289 c 1,40,-1
 335 512 l 1,41,-1
 321 512 l 1,42,-1
 225 285 l 1,43,-1
 292 285 l 2,38,39
506 732.5 m 128,-1,45
 485 711 485 711 456 711 c 0,46,47
 400 711 400 711 400 763 c 0,48,49
 400 796 400 796 421.5 817.5 c 128,-1,50
 443 839 443 839 471.5 839 c 128,-1,51
 500 839 500 839 513.5 825 c 128,-1,52
 527 811 527 811 527 782.5 c 128,-1,44
 527 754 527 754 506 732.5 c 128,-1,45
279 711 m 0,53,54
 227 711 227 711 227 763 c 0,55,56
 227 796 227 796 248 817.5 c 128,-1,57
 269 839 269 839 298 839 c 0,58,59
 354 839 354 839 354 787 c 0,60,61
 354 754 354 754 333 732.5 c 128,-1,62
 312 711 312 711 279 711 c 0,53,54
EndSplineSet
EndChar

StartChar: Aring
Encoding: 197 197 134
Width: 607
GlyphClass: 2
Flags: W
LayerCount: 2
Fore
SplineSet
578 -3 m 1,0,1
 501 0 501 0 462 0 c 0,2,3
 386 0 386 0 294 -8 c 1,4,-1
 290 0 l 1,5,-1
 302 59 l 1,6,7
 350 63 350 63 365.5 71 c 128,-1,8
 381 79 381 79 381 101 c 0,9,10
 381 113 381 113 370 207 c 1,11,12
 344 209 344 209 290 209 c 128,-1,13
 236 209 236 209 190 202 c 1,14,-1
 158 125 l 2,15,16
 148 101 148 101 148 88 c 0,17,18
 148 62 148 62 187 62 c 2,19,-1
 229 62 l 1,20,-1
 232 56 l 1,21,-1
 218 -6 l 1,22,23
 139 0 139 0 78 0 c 1,24,-1
 -39 -3 l 1,25,-1
 -24 63 l 1,26,27
 19 70 19 70 47 130 c 2,28,-1
 277 636 l 1,29,-1
 434 653 l 1,30,-1
 445 648 l 1,31,32
 491 303 491 303 522 131 c 0,33,34
 528 95 528 95 542 80.5 c 128,-1,35
 556 66 556 66 588 62 c 1,36,-1
 592 55 l 1,37,-1
 578 -3 l 1,0,1
292 285 m 2,38,39
 319 285 319 285 363 289 c 1,40,-1
 335 512 l 1,41,-1
 321 512 l 1,42,-1
 225 285 l 1,43,-1
 292 285 l 2,38,39
375 731 m 0,44,45
 419 731 419 731 419 773 c 0,46,47
 419 809 419 809 379 809 c 0,48,49
 359 809 359 809 348 797.5 c 128,-1,50
 337 786 337 786 337 768 c 128,-1,51
 337 750 337 750 349 740.5 c 128,-1,52
 361 731 361 731 375 731 c 0,44,45
440 711.5 m 128,-1,54
 410 678 410 678 367.5 678 c 128,-1,55
 325 678 325 678 305.5 699.5 c 128,-1,56
 286 721 286 721 286 761.5 c 128,-1,57
 286 802 286 802 316.5 833 c 128,-1,58
 347 864 347 864 389.5 864 c 128,-1,59
 432 864 432 864 451 842.5 c 128,-1,60
 470 821 470 821 470 783 c 128,-1,53
 470 745 470 745 440 711.5 c 128,-1,54
EndSplineSet
EndChar

StartChar: AE
Encoding: 198 198 135
Width: 844
GlyphClass: 2
Flags: W
LayerCount: 2
Fore
SplineSet
376 157 m 2,0,-1
 376 249 l 1,1,-1
 291 239 l 1,2,-1
 208 223 l 1,3,-1
 155 125 l 2,4,5
 140 96 140 96 140 83.5 c 128,-1,6
 140 71 140 71 150.5 67 c 128,-1,7
 161 63 161 63 190 63 c 1,8,-1
 220 58 l 1,9,-1
 206 -6 l 1,10,11
 205 -5 205 -5 176.5 -4 c 128,-1,12
 148 -3 148 -3 108.5 -1.5 c 128,-1,13
 69 0 69 0 44 0 c 1,14,-1
 -28 -3 l 1,15,-1
 -25 56 l 1,16,17
 -14 58 -14 58 5 78.5 c 128,-1,18
 24 99 24 99 42 130 c 2,19,-1
 290 556 l 1,20,21
 287 578 287 578 268 578 c 1,22,-1
 238 576 l 1,23,-1
 232 585 l 1,24,-1
 248 645 l 2,25,26
 248 642 248 642 483.5 642 c 128,-1,27
 719 642 719 642 798 654 c 1,28,-1
 805 643 l 1,29,30
 777 555 777 555 760 462 c 1,31,-1
 669 455 l 1,32,33
 677 490 677 490 677 515.5 c 128,-1,34
 677 541 677 541 654.5 550 c 128,-1,35
 632 559 632 559 580.5 559 c 128,-1,36
 529 559 529 559 518.5 553 c 128,-1,37
 508 547 508 547 508 531 c 2,38,-1
 512 349 l 1,39,-1
 606 361 l 1,40,-1
 701 380 l 1,41,-1
 710 369 l 1,42,-1
 688 286 l 1,43,-1
 599 280 l 1,44,-1
 513 269 l 1,45,-1
 517 145 l 2,46,47
 518 110 518 110 531.5 94 c 128,-1,48
 545 78 545 78 576 78 c 0,49,50
 655 78 655 78 680.5 97.5 c 128,-1,51
 706 117 706 117 726 192 c 1,52,-1
 811 199 l 1,53,-1
 818 190 l 1,54,55
 789 100 789 100 768 4 c 1,56,-1
 757 -7 l 2,57,58
 759 -5 759 -5 630 -2.5 c 128,-1,59
 501 0 501 0 451 0 c 0,60,61
 365 0 365 0 281 -8 c 1,62,-1
 277 0 l 1,63,-1
 288 60 l 1,64,65
 373 67 373 67 374 123 c 1,66,67
 376 143 376 143 376 157 c 2,0,-1
257 317 m 1,68,-1
 317 321 l 1,69,-1
 378 329 l 1,70,-1
 379 510 l 1,71,-1
 364 510 l 1,72,-1
 257 317 l 1,68,-1
EndSplineSet
EndChar

StartChar: Ccedilla
Encoding: 199 199 136
Width: 594
GlyphClass: 2
Flags: W
LayerCount: 2
Fore
SplineSet
32 256 m 0,0,1
 32 437 32 437 132.5 545 c 128,-1,2
 233 653 233 653 402 653 c 0,3,4
 473 653 473 653 599 629 c 1,5,-1
 603 616 l 1,6,7
 573 533 573 533 554 428 c 1,8,-1
 457 422 l 1,9,10
 466 469 466 469 466 488 c 0,11,12
 466 559 466 559 367 559 c 0,13,14
 282 559 282 559 235 485.5 c 128,-1,15
 188 412 188 412 188 275 c 0,16,17
 188 180 188 180 221.5 130 c 128,-1,18
 255 80 255 80 313 80 c 128,-1,19
 371 80 371 80 403 112 c 128,-1,20
 435 144 435 144 457 218 c 1,21,-1
 554 225 l 1,22,23
 525 122 525 122 512 40 c 1,24,-1
 502 28 l 1,25,26
 425 -7 425 -7 317 -11 c 1,27,-1
 304 -44 l 1,28,29
 388 -95 388 -95 388 -135.5 c 128,-1,30
 388 -176 388 -176 343 -207 c 128,-1,31
 298 -238 298 -238 244 -238 c 0,32,33
 218 -238 218 -238 195 -226 c 128,-1,34
 172 -214 172 -214 172 -196.5 c 128,-1,35
 172 -179 172 -179 218 -130 c 1,36,-1
 226 -130 l 1,37,38
 226 -134 226 -134 226 -146.5 c 128,-1,39
 226 -159 226 -159 236.5 -172.5 c 128,-1,40
 247 -186 247 -186 267 -186 c 128,-1,41
 287 -186 287 -186 299 -177 c 128,-1,42
 311 -168 311 -168 311 -154 c 0,43,44
 311 -130 311 -130 236 -86 c 1,45,-1
 265 -11 l 1,46,47
 156 -3 156 -3 94 68 c 128,-1,48
 32 139 32 139 32 256 c 0,0,1
EndSplineSet
EndChar

StartChar: Egrave
Encoding: 200 200 137
Width: 577
GlyphClass: 2
Flags: W
LayerCount: 2
Fore
SplineSet
262 369 m 1,0,-1
 352 368 l 1,1,-1
 465 376 l 1,2,-1
 471 368 l 1,3,-1
 447 283 l 1,4,5
 370 286 370 286 334.5 286 c 128,-1,6
 299 286 299 286 248 280 c 1,7,8
 225 123 225 123 225 106.5 c 128,-1,9
 225 90 225 90 236 83.5 c 128,-1,10
 247 77 247 77 282 77 c 0,11,12
 371 77 371 77 398.5 96 c 128,-1,13
 426 115 426 115 446 191 c 1,14,-1
 529 198 l 1,15,-1
 535 188 l 1,16,17
 506 99 506 99 485 3 c 1,18,-1
 474 -7 l 1,19,20
 295 0 295 0 216 0 c 0,21,22
 99 0 99 0 5 -10 c 1,23,-1
 21 57 l 1,24,25
 62 63 62 63 78.5 81 c 128,-1,26
 95 99 95 99 100 142 c 0,27,28
 150 539 150 539 150 550.5 c 128,-1,29
 150 562 150 562 146.5 570 c 128,-1,30
 143 578 143 578 124 578 c 1,31,-1
 94 576 l 1,32,-1
 89 585 l 1,33,-1
 104 644 l 1,34,35
 210 641 210 641 349 641 c 128,-1,36
 488 641 488 641 578 653 c 1,37,-1
 584 643 l 1,38,39
 556 555 556 555 540 462 c 1,40,-1
 450 456 l 1,41,42
 458 491 458 491 458 517 c 128,-1,43
 458 543 458 543 436 551.5 c 128,-1,44
 414 560 414 560 361.5 560 c 128,-1,45
 309 560 309 560 300.5 555 c 128,-1,46
 292 550 292 550 288 527 c 2,47,-1
 262 369 l 1,0,-1
222 762 m 1,48,-1
 217 775 l 1,49,-1
 242 852 l 1,50,-1
 255 857 l 1,51,52
 370 800 370 800 478 753 c 1,53,-1
 465 706 l 1,54,-1
 451 697 l 1,55,56
 329 735 329 735 222 762 c 1,48,-1
EndSplineSet
EndChar

StartChar: Eacute
Encoding: 201 201 138
Width: 577
GlyphClass: 2
Flags: W
LayerCount: 2
Fore
SplineSet
262 369 m 1,0,-1
 352 368 l 1,1,-1
 465 376 l 1,2,-1
 471 368 l 1,3,-1
 447 283 l 1,4,5
 370 286 370 286 334.5 286 c 128,-1,6
 299 286 299 286 248 280 c 1,7,8
 225 123 225 123 225 106.5 c 128,-1,9
 225 90 225 90 236 83.5 c 128,-1,10
 247 77 247 77 282 77 c 0,11,12
 371 77 371 77 398.5 96 c 128,-1,13
 426 115 426 115 446 191 c 1,14,-1
 529 198 l 1,15,-1
 535 188 l 1,16,17
 506 99 506 99 485 3 c 1,18,-1
 474 -7 l 1,19,20
 295 0 295 0 216 0 c 0,21,22
 99 0 99 0 5 -10 c 1,23,-1
 21 57 l 1,24,25
 62 63 62 63 78.5 81 c 128,-1,26
 95 99 95 99 100 142 c 0,27,28
 150 539 150 539 150 550.5 c 128,-1,29
 150 562 150 562 146.5 570 c 128,-1,30
 143 578 143 578 124 578 c 1,31,-1
 94 576 l 1,32,-1
 89 585 l 1,33,-1
 104 644 l 1,34,35
 210 641 210 641 349 641 c 128,-1,36
 488 641 488 641 578 653 c 1,37,-1
 584 643 l 1,38,39
 556 555 556 555 540 462 c 1,40,-1
 450 456 l 1,41,42
 458 491 458 491 458 517 c 128,-1,43
 458 543 458 543 436 551.5 c 128,-1,44
 414 560 414 560 361.5 560 c 128,-1,45
 309 560 309 560 300.5 555 c 128,-1,46
 292 550 292 550 288 527 c 2,47,-1
 262 369 l 1,0,-1
500 775 m 1,48,-1
 495 762 l 1,49,50
 380 733 380 733 266 697 c 1,51,-1
 253 706 l 1,52,-1
 239 753 l 1,53,-1
 462 857 l 1,54,-1
 475 852 l 1,55,-1
 500 775 l 1,48,-1
EndSplineSet
EndChar

StartChar: Ecircumflex
Encoding: 202 202 139
Width: 577
GlyphClass: 2
Flags: W
LayerCount: 2
Fore
SplineSet
262 369 m 1,0,-1
 352 368 l 1,1,-1
 465 376 l 1,2,-1
 471 368 l 1,3,-1
 447 283 l 1,4,5
 370 286 370 286 334.5 286 c 128,-1,6
 299 286 299 286 248 280 c 1,7,8
 225 123 225 123 225 106.5 c 128,-1,9
 225 90 225 90 236 83.5 c 128,-1,10
 247 77 247 77 282 77 c 0,11,12
 371 77 371 77 398.5 96 c 128,-1,13
 426 115 426 115 446 191 c 1,14,-1
 529 198 l 1,15,-1
 535 188 l 1,16,17
 506 99 506 99 485 3 c 1,18,-1
 474 -7 l 1,19,20
 295 0 295 0 216 0 c 0,21,22
 99 0 99 0 5 -10 c 1,23,-1
 21 57 l 1,24,25
 62 63 62 63 78.5 81 c 128,-1,26
 95 99 95 99 100 142 c 0,27,28
 150 539 150 539 150 550.5 c 128,-1,29
 150 562 150 562 146.5 570 c 128,-1,30
 143 578 143 578 124 578 c 1,31,-1
 94 576 l 1,32,-1
 89 585 l 1,33,-1
 104 644 l 1,34,35
 210 641 210 641 349 641 c 128,-1,36
 488 641 488 641 578 653 c 1,37,-1
 584 643 l 1,38,39
 556 555 556 555 540 462 c 1,40,-1
 450 456 l 1,41,42
 458 491 458 491 458 517 c 128,-1,43
 458 543 458 543 436 551.5 c 128,-1,44
 414 560 414 560 361.5 560 c 128,-1,45
 309 560 309 560 300.5 555 c 128,-1,46
 292 550 292 550 288 527 c 2,47,-1
 262 369 l 1,0,-1
377 765 m 1,48,-1
 247 707 l 1,49,-1
 232 711 l 1,50,-1
 213 752 l 1,51,-1
 381 876 l 1,52,-1
 401 876 l 1,53,54
 401 877 401 877 427 853 c 0,55,56
 516 771 516 771 538 752 c 1,57,-1
 509 711 l 1,58,-1
 492 707 l 1,59,-1
 377 765 l 1,48,-1
EndSplineSet
EndChar

StartChar: Edieresis
Encoding: 203 203 140
Width: 577
GlyphClass: 2
Flags: W
LayerCount: 2
Fore
SplineSet
262 369 m 1,0,-1
 352 368 l 1,1,-1
 465 376 l 1,2,-1
 471 368 l 1,3,-1
 447 283 l 1,4,5
 370 286 370 286 334.5 286 c 128,-1,6
 299 286 299 286 248 280 c 1,7,8
 225 123 225 123 225 106.5 c 128,-1,9
 225 90 225 90 236 83.5 c 128,-1,10
 247 77 247 77 282 77 c 0,11,12
 371 77 371 77 398.5 96 c 128,-1,13
 426 115 426 115 446 191 c 1,14,-1
 529 198 l 1,15,-1
 535 188 l 1,16,17
 506 99 506 99 485 3 c 1,18,-1
 474 -7 l 1,19,20
 295 0 295 0 216 0 c 0,21,22
 99 0 99 0 5 -10 c 1,23,-1
 21 57 l 1,24,25
 62 63 62 63 78.5 81 c 128,-1,26
 95 99 95 99 100 142 c 0,27,28
 150 539 150 539 150 550.5 c 128,-1,29
 150 562 150 562 146.5 570 c 128,-1,30
 143 578 143 578 124 578 c 1,31,-1
 94 576 l 1,32,-1
 89 585 l 1,33,-1
 104 644 l 1,34,35
 210 641 210 641 349 641 c 128,-1,36
 488 641 488 641 578 653 c 1,37,-1
 584 643 l 1,38,39
 556 555 556 555 540 462 c 1,40,-1
 450 456 l 1,41,42
 458 491 458 491 458 517 c 128,-1,43
 458 543 458 543 436 551.5 c 128,-1,44
 414 560 414 560 361.5 560 c 128,-1,45
 309 560 309 560 300.5 555 c 128,-1,46
 292 550 292 550 288 527 c 2,47,-1
 262 369 l 1,0,-1
506 732.5 m 128,-1,49
 485 711 485 711 456 711 c 0,50,51
 400 711 400 711 400 763 c 0,52,53
 400 796 400 796 421.5 817.5 c 128,-1,54
 443 839 443 839 471.5 839 c 128,-1,55
 500 839 500 839 513.5 825 c 128,-1,56
 527 811 527 811 527 782.5 c 128,-1,48
 527 754 527 754 506 732.5 c 128,-1,49
279 711 m 0,57,58
 227 711 227 711 227 763 c 0,59,60
 227 796 227 796 248 817.5 c 128,-1,61
 269 839 269 839 298 839 c 0,62,63
 354 839 354 839 354 787 c 0,64,65
 354 754 354 754 333 732.5 c 128,-1,66
 312 711 312 711 279 711 c 0,57,58
EndSplineSet
EndChar

StartChar: Igrave
Encoding: 204 204 141
Width: 353
GlyphClass: 2
Flags: W
LayerCount: 2
Fore
SplineSet
97 643 m 1,0,-1
 232 641 l 1,1,-1
 371 649 l 1,2,-1
 357 583 l 1,3,4
 320 578 320 578 306.5 567.5 c 128,-1,5
 293 557 293 557 288 529 c 0,6,7
 225 164 225 164 225 104 c 0,8,9
 225 81 225 81 232 72.5 c 128,-1,10
 239 64 239 64 256 64 c 1,11,-1
 298 67 l 1,12,-1
 301 60 l 1,13,-1
 285 -3 l 1,14,15
 185 0 185 0 152 0 c 0,16,17
 84 0 84 0 5 -9 c 1,18,-1
 20 55 l 1,19,20
 63 64 63 64 79.5 81 c 128,-1,21
 96 98 96 98 101 139 c 0,22,23
 150 540 150 540 150 550.5 c 128,-1,24
 150 561 150 561 145.5 569.5 c 128,-1,25
 141 578 141 578 120 578 c 2,26,-1
 87 577 l 1,27,-1
 83 585 l 1,28,-1
 97 643 l 1,0,-1
93 762 m 1,29,-1
 88 775 l 1,30,-1
 113 852 l 1,31,-1
 126 857 l 1,32,33
 241 800 241 800 349 753 c 1,34,-1
 336 706 l 1,35,-1
 322 697 l 1,36,37
 200 735 200 735 93 762 c 1,29,-1
EndSplineSet
EndChar

StartChar: Iacute
Encoding: 205 205 142
Width: 353
GlyphClass: 2
Flags: W
LayerCount: 2
Fore
SplineSet
97 643 m 1,0,-1
 232 641 l 1,1,-1
 371 649 l 1,2,-1
 357 583 l 1,3,4
 320 578 320 578 306.5 567.5 c 128,-1,5
 293 557 293 557 288 529 c 0,6,7
 225 164 225 164 225 104 c 0,8,9
 225 81 225 81 232 72.5 c 128,-1,10
 239 64 239 64 256 64 c 1,11,-1
 298 67 l 1,12,-1
 301 60 l 1,13,-1
 285 -3 l 1,14,15
 185 0 185 0 152 0 c 0,16,17
 84 0 84 0 5 -9 c 1,18,-1
 20 55 l 1,19,20
 63 64 63 64 79.5 81 c 128,-1,21
 96 98 96 98 101 139 c 0,22,23
 150 540 150 540 150 550.5 c 128,-1,24
 150 561 150 561 145.5 569.5 c 128,-1,25
 141 578 141 578 120 578 c 2,26,-1
 87 577 l 1,27,-1
 83 585 l 1,28,-1
 97 643 l 1,0,-1
394 775 m 1,29,-1
 389 762 l 1,30,31
 274 733 274 733 160 697 c 1,32,-1
 147 706 l 1,33,-1
 133 753 l 1,34,-1
 356 857 l 1,35,-1
 369 852 l 1,36,-1
 394 775 l 1,29,-1
EndSplineSet
EndChar

StartChar: Icircumflex
Encoding: 206 206 143
Width: 353
GlyphClass: 2
Flags: W
LayerCount: 2
Fore
SplineSet
97 643 m 1,0,-1
 232 641 l 1,1,-1
 371 649 l 1,2,-1
 357 583 l 1,3,4
 320 578 320 578 306.5 567.5 c 128,-1,5
 293 557 293 557 288 529 c 0,6,7
 225 164 225 164 225 104 c 0,8,9
 225 81 225 81 232 72.5 c 128,-1,10
 239 64 239 64 256 64 c 1,11,-1
 298 67 l 1,12,-1
 301 60 l 1,13,-1
 285 -3 l 1,14,15
 185 0 185 0 152 0 c 0,16,17
 84 0 84 0 5 -9 c 1,18,-1
 20 55 l 1,19,20
 63 64 63 64 79.5 81 c 128,-1,21
 96 98 96 98 101 139 c 0,22,23
 150 540 150 540 150 550.5 c 128,-1,24
 150 561 150 561 145.5 569.5 c 128,-1,25
 141 578 141 578 120 578 c 2,26,-1
 87 577 l 1,27,-1
 83 585 l 1,28,-1
 97 643 l 1,0,-1
244 765 m 1,29,-1
 114 707 l 1,30,-1
 99 711 l 1,31,-1
 80 752 l 1,32,-1
 248 876 l 1,33,-1
 268 876 l 1,34,35
 268 877 268 877 294 853 c 0,36,37
 383 771 383 771 405 752 c 1,38,-1
 376 711 l 1,39,-1
 359 707 l 1,40,-1
 244 765 l 1,29,-1
EndSplineSet
EndChar

StartChar: Idieresis
Encoding: 207 207 144
Width: 353
GlyphClass: 2
Flags: W
LayerCount: 2
Fore
SplineSet
97 643 m 1,0,-1
 232 641 l 1,1,-1
 371 649 l 1,2,-1
 357 583 l 1,3,4
 320 578 320 578 306.5 567.5 c 128,-1,5
 293 557 293 557 288 529 c 0,6,7
 225 164 225 164 225 104 c 0,8,9
 225 81 225 81 232 72.5 c 128,-1,10
 239 64 239 64 256 64 c 1,11,-1
 298 67 l 1,12,-1
 301 60 l 1,13,-1
 285 -3 l 1,14,15
 185 0 185 0 152 0 c 0,16,17
 84 0 84 0 5 -9 c 1,18,-1
 20 55 l 1,19,20
 63 64 63 64 79.5 81 c 128,-1,21
 96 98 96 98 101 139 c 0,22,23
 150 540 150 540 150 550.5 c 128,-1,24
 150 561 150 561 145.5 569.5 c 128,-1,25
 141 578 141 578 120 578 c 2,26,-1
 87 577 l 1,27,-1
 83 585 l 1,28,-1
 97 643 l 1,0,-1
374 732.5 m 128,-1,30
 353 711 353 711 324 711 c 0,31,32
 268 711 268 711 268 763 c 0,33,34
 268 796 268 796 289.5 817.5 c 128,-1,35
 311 839 311 839 339.5 839 c 128,-1,36
 368 839 368 839 381.5 825 c 128,-1,37
 395 811 395 811 395 782.5 c 128,-1,29
 395 754 395 754 374 732.5 c 128,-1,30
147 711 m 0,38,39
 95 711 95 711 95 763 c 0,40,41
 95 796 95 796 116 817.5 c 128,-1,42
 137 839 137 839 166 839 c 0,43,44
 222 839 222 839 222 787 c 0,45,46
 222 754 222 754 201 732.5 c 128,-1,47
 180 711 180 711 147 711 c 0,38,39
EndSplineSet
EndChar

StartChar: Eth
Encoding: 208 208 145
Width: 682
GlyphClass: 2
Flags: W
LayerCount: 2
Fore
SplineSet
298 -12 m 1,0,1
 203 0 203 0 164 0 c 0,2,3
 102 0 102 0 22 -10 c 1,4,-1
 37 57 l 1,5,6
 78 64 78 64 94.5 81.5 c 128,-1,7
 111 99 111 99 117 141 c 2,8,-1
 135 286 l 1,9,-1
 23 286 l 1,10,-1
 16 293 l 1,11,-1
 33 353 l 1,12,-1
 143 353 l 1,13,14
 166 537 166 537 166 548.5 c 128,-1,15
 166 560 166 560 162 568.5 c 128,-1,16
 158 577 158 577 141 577 c 1,17,-1
 108 575 l 1,18,-1
 104 584 l 1,19,-1
 119 644 l 1,20,21
 204 641 204 641 242 641 c 1,22,-1
 387 646 l 1,23,24
 519 646 519 646 596.5 577.5 c 128,-1,25
 674 509 674 509 674 388 c 0,26,27
 674 216 674 216 567 102 c 128,-1,28
 460 -12 460 -12 298 -12 c 1,0,1
335 562 m 0,29,30
 319 562 319 562 313 557 c 128,-1,31
 307 552 307 552 305 539.5 c 128,-1,32
 303 527 303 527 275 353 c 1,33,-1
 392 355 l 1,34,-1
 398 346 l 1,35,-1
 384 286 l 1,36,-1
 264 286 l 1,37,38
 242 146 242 146 242 120 c 128,-1,39
 242 94 242 94 257.5 83 c 128,-1,40
 273 72 273 72 314 72 c 0,41,42
 409 72 409 72 464 153.5 c 128,-1,43
 519 235 519 235 519 376 c 0,44,45
 519 562 519 562 335 562 c 0,29,30
EndSplineSet
EndChar

StartChar: Ntilde
Encoding: 209 209 146
Width: 704
GlyphClass: 2
Flags: W
LayerCount: 2
Fore
SplineSet
520 578 m 2,0,-1
 487 577 l 1,1,-1
 484 585 l 1,2,-1
 498 645 l 1,3,4
 580 641 580 641 623 641 c 1,5,-1
 738 647 l 1,6,-1
 725 581 l 1,7,8
 693 576 693 576 677 562 c 128,-1,9
 661 548 661 548 657 518 c 2,10,-1
 579 -15 l 1,11,-1
 473 -28 l 1,12,13
 373 188 373 188 249 423 c 1,14,-1
 240 423 l 1,15,16
 199 100 199 100 199 90 c 128,-1,17
 199 80 199 80 204 71.5 c 128,-1,18
 209 63 209 63 228 63 c 2,19,-1
 269 65 l 1,20,-1
 274 59 l 1,21,-1
 257 -4 l 1,22,23
 174 0 174 0 142 0 c 0,24,25
 86 0 86 0 12 -8 c 1,26,-1
 28 58 l 1,27,28
 85 65 85 65 93 121 c 0,29,30
 155 524 155 524 155 538.5 c 128,-1,31
 155 553 155 553 142.5 564 c 128,-1,32
 130 575 130 575 83 580 c 1,33,-1
 77 590 l 1,34,-1
 90 646 l 1,35,36
 154 641 154 641 203 641 c 1,37,-1
 296 645 l 1,38,39
 380 464 380 464 501 230 c 1,40,-1
 511 230 l 1,41,42
 546 539 546 539 546 545 c 0,43,44
 546 578 546 578 520 578 c 2,0,-1
425.5 818 m 128,-1,46
 481 801 481 801 492.5 801 c 128,-1,47
 504 801 504 801 521.5 814 c 128,-1,48
 539 827 539 827 563 853 c 1,49,-1
 574 853 l 1,50,-1
 609 816 l 1,51,-1
 608 806 l 1,52,-1
 520 709 l 1,53,-1
 503 705 l 1,54,55
 486 705 486 705 431 722 c 128,-1,56
 376 739 376 739 364 739 c 0,57,58
 342 739 342 739 306 700 c 2,59,-1
 294 687 l 1,60,-1
 283 687 l 1,61,-1
 248 724 l 1,62,-1
 249 735 l 1,63,-1
 337 831 l 1,64,-1
 353 835 l 1,65,45
 370 835 370 835 425.5 818 c 128,-1,46
EndSplineSet
EndChar

StartChar: Ograve
Encoding: 210 210 147
Width: 649
GlyphClass: 2
Flags: W
LayerCount: 2
Fore
SplineSet
311 73 m 0,0,1
 391 73 391 73 438 151.5 c 128,-1,2
 485 230 485 230 485 371 c 0,3,4
 485 459 485 459 450.5 509 c 128,-1,5
 416 559 416 559 356 559 c 0,6,7
 277 559 277 559 231 480 c 128,-1,8
 185 401 185 401 185 261 c 0,9,10
 185 173 185 173 218.5 123 c 128,-1,11
 252 73 252 73 311 73 c 0,0,1
285 -12 m 0,12,13
 170 -12 170 -12 101 60 c 128,-1,14
 32 132 32 132 32 255 c 0,15,16
 32 433 32 433 129 543 c 128,-1,17
 226 653 226 653 385 653 c 0,18,19
 503 653 503 653 572 583 c 128,-1,20
 641 513 641 513 641 390 c 0,21,22
 641 212 641 212 542 100 c 128,-1,23
 443 -12 443 -12 285 -12 c 0,12,13
246 762 m 1,24,-1
 241 775 l 1,25,-1
 266 852 l 1,26,-1
 279 857 l 1,27,28
 394 800 394 800 502 753 c 1,29,-1
 489 706 l 1,30,-1
 475 697 l 1,31,32
 353 735 353 735 246 762 c 1,24,-1
EndSplineSet
EndChar

StartChar: Oacute
Encoding: 211 211 148
Width: 649
GlyphClass: 2
Flags: W
LayerCount: 2
Fore
SplineSet
311 73 m 0,0,1
 391 73 391 73 438 151.5 c 128,-1,2
 485 230 485 230 485 371 c 0,3,4
 485 459 485 459 450.5 509 c 128,-1,5
 416 559 416 559 356 559 c 0,6,7
 277 559 277 559 231 480 c 128,-1,8
 185 401 185 401 185 261 c 0,9,10
 185 173 185 173 218.5 123 c 128,-1,11
 252 73 252 73 311 73 c 0,0,1
285 -12 m 0,12,13
 170 -12 170 -12 101 60 c 128,-1,14
 32 132 32 132 32 255 c 0,15,16
 32 433 32 433 129 543 c 128,-1,17
 226 653 226 653 385 653 c 0,18,19
 503 653 503 653 572 583 c 128,-1,20
 641 513 641 513 641 390 c 0,21,22
 641 212 641 212 542 100 c 128,-1,23
 443 -12 443 -12 285 -12 c 0,12,13
528 775 m 1,24,-1
 523 762 l 1,25,26
 408 733 408 733 294 697 c 1,27,-1
 281 706 l 1,28,-1
 267 753 l 1,29,-1
 490 857 l 1,30,-1
 503 852 l 1,31,-1
 528 775 l 1,24,-1
EndSplineSet
EndChar

StartChar: Ocircumflex
Encoding: 212 212 149
Width: 649
GlyphClass: 2
Flags: W
LayerCount: 2
Fore
SplineSet
311 73 m 0,0,1
 391 73 391 73 438 151.5 c 128,-1,2
 485 230 485 230 485 371 c 0,3,4
 485 459 485 459 450.5 509 c 128,-1,5
 416 559 416 559 356 559 c 0,6,7
 277 559 277 559 231 480 c 128,-1,8
 185 401 185 401 185 261 c 0,9,10
 185 173 185 173 218.5 123 c 128,-1,11
 252 73 252 73 311 73 c 0,0,1
285 -12 m 0,12,13
 170 -12 170 -12 101 60 c 128,-1,14
 32 132 32 132 32 255 c 0,15,16
 32 433 32 433 129 543 c 128,-1,17
 226 653 226 653 385 653 c 0,18,19
 503 653 503 653 572 583 c 128,-1,20
 641 513 641 513 641 390 c 0,21,22
 641 212 641 212 542 100 c 128,-1,23
 443 -12 443 -12 285 -12 c 0,12,13
387 765 m 1,24,-1
 257 707 l 1,25,-1
 242 711 l 1,26,-1
 223 752 l 1,27,-1
 391 876 l 1,28,-1
 411 876 l 1,29,30
 411 877 411 877 437 853 c 0,31,32
 526 771 526 771 548 752 c 1,33,-1
 519 711 l 1,34,-1
 502 707 l 1,35,-1
 387 765 l 1,24,-1
EndSplineSet
EndChar

StartChar: Otilde
Encoding: 213 213 150
Width: 649
GlyphClass: 2
Flags: W
LayerCount: 2
Fore
SplineSet
311 73 m 0,0,1
 391 73 391 73 438 151.5 c 128,-1,2
 485 230 485 230 485 371 c 0,3,4
 485 459 485 459 450.5 509 c 128,-1,5
 416 559 416 559 356 559 c 0,6,7
 277 559 277 559 231 480 c 128,-1,8
 185 401 185 401 185 261 c 0,9,10
 185 173 185 173 218.5 123 c 128,-1,11
 252 73 252 73 311 73 c 0,0,1
285 -12 m 0,12,13
 170 -12 170 -12 101 60 c 128,-1,14
 32 132 32 132 32 255 c 0,15,16
 32 433 32 433 129 543 c 128,-1,17
 226 653 226 653 385 653 c 0,18,19
 503 653 503 653 572 583 c 128,-1,20
 641 513 641 513 641 390 c 0,21,22
 641 212 641 212 542 100 c 128,-1,23
 443 -12 443 -12 285 -12 c 0,12,13
391.5 818 m 128,-1,25
 447 801 447 801 458.5 801 c 128,-1,26
 470 801 470 801 487.5 814 c 128,-1,27
 505 827 505 827 529 853 c 1,28,-1
 540 853 l 1,29,-1
 575 816 l 1,30,-1
 574 806 l 1,31,-1
 486 709 l 1,32,-1
 469 705 l 1,33,34
 453 705 453 705 397.5 722 c 128,-1,35
 342 739 342 739 330 739 c 0,36,37
 308 739 308 739 272 700 c 2,38,-1
 260 687 l 1,39,-1
 249 687 l 1,40,-1
 214 724 l 1,41,-1
 215 735 l 1,42,-1
 303 831 l 1,43,-1
 319 835 l 1,44,24
 336 835 336 835 391.5 818 c 128,-1,25
EndSplineSet
EndChar

StartChar: Odieresis
Encoding: 214 214 151
Width: 649
GlyphClass: 2
Flags: W
LayerCount: 2
Fore
SplineSet
311 73 m 0,0,1
 391 73 391 73 438 151.5 c 128,-1,2
 485 230 485 230 485 371 c 0,3,4
 485 459 485 459 450.5 509 c 128,-1,5
 416 559 416 559 356 559 c 0,6,7
 277 559 277 559 231 480 c 128,-1,8
 185 401 185 401 185 261 c 0,9,10
 185 173 185 173 218.5 123 c 128,-1,11
 252 73 252 73 311 73 c 0,0,1
285 -12 m 0,12,13
 170 -12 170 -12 101 60 c 128,-1,14
 32 132 32 132 32 255 c 0,15,16
 32 433 32 433 129 543 c 128,-1,17
 226 653 226 653 385 653 c 0,18,19
 503 653 503 653 572 583 c 128,-1,20
 641 513 641 513 641 390 c 0,21,22
 641 212 641 212 542 100 c 128,-1,23
 443 -12 443 -12 285 -12 c 0,12,13
517 732.5 m 128,-1,25
 496 711 496 711 467 711 c 0,26,27
 411 711 411 711 411 763 c 0,28,29
 411 796 411 796 432.5 817.5 c 128,-1,30
 454 839 454 839 482.5 839 c 128,-1,31
 511 839 511 839 524.5 825 c 128,-1,32
 538 811 538 811 538 782.5 c 128,-1,24
 538 754 538 754 517 732.5 c 128,-1,25
290 711 m 0,33,34
 238 711 238 711 238 763 c 0,35,36
 238 796 238 796 259 817.5 c 128,-1,37
 280 839 280 839 309 839 c 0,38,39
 365 839 365 839 365 787 c 0,40,41
 365 754 365 754 344 732.5 c 128,-1,42
 323 711 323 711 290 711 c 0,33,34
EndSplineSet
EndChar

StartChar: multiply
Encoding: 215 215 152
Width: 488
GlyphClass: 2
Flags: W
LayerCount: 2
Fore
SplineSet
392 452 m 1,0,-1
 404 447 l 1,1,-1
 452 377 l 1,2,-1
 315 249 l 1,3,-1
 425 127 l 1,4,-1
 418 114 l 1,5,-1
 340 56 l 1,6,-1
 236 179 l 1,7,-1
 103 54 l 1,8,-1
 91 57 l 1,9,-1
 48 129 l 1,10,11
 115 191 115 191 176 247 c 1,12,-1
 67 376 l 1,13,-1
 71 390 l 1,14,-1
 152 443 l 1,15,16
 207 375 207 375 255 318 c 1,17,-1
 392 452 l 1,0,-1
EndSplineSet
EndChar

StartChar: Oslash
Encoding: 216 216 153
Width: 649
GlyphClass: 2
Flags: W
LayerCount: 2
Fore
SplineSet
32 255 m 0,0,1
 32 433 32 433 129 543 c 128,-1,2
 226 653 226 653 385 653 c 0,3,4
 434 653 434 653 478 639 c 1,5,-1
 532 729 l 1,6,-1
 593 700 l 1,7,-1
 596 687 l 1,8,-1
 546 605 l 1,9,10
 641 535 641 535 641 390 c 0,11,12
 641 212 641 212 542 100 c 128,-1,13
 443 -12 443 -12 285 -12 c 0,14,15
 234 -12 234 -12 190 3 c 1,16,-1
 123 -107 l 1,17,-1
 63 -78 l 1,18,-1
 60 -68 l 1,19,-1
 125 38 l 1,20,21
 32 109 32 109 32 255 c 0,0,1
311 73 m 0,22,23
 391 73 391 73 438 151.5 c 128,-1,24
 485 230 485 230 485 371 c 0,25,26
 485 431 485 431 468 476 c 1,27,-1
 245 94 l 1,28,29
 272 73 272 73 311 73 c 0,22,23
185 261 m 0,30,31
 185 205 185 205 199 161 c 1,32,-1
 419 540 l 1,33,34
 390 559 390 559 356 559 c 0,35,36
 277 559 277 559 231 480 c 128,-1,37
 185 401 185 401 185 261 c 0,30,31
EndSplineSet
EndChar

StartChar: Ugrave
Encoding: 217 217 154
Width: 629
GlyphClass: 2
Flags: W
LayerCount: 2
Fore
SplineSet
211 193 m 0,0,1
 211 137 211 137 236.5 107 c 128,-1,2
 262 77 262 77 312 77 c 0,3,4
 428 77 428 77 444 209 c 0,5,6
 481 534 481 534 481 547.5 c 128,-1,7
 481 561 481 561 477.5 569.5 c 128,-1,8
 474 578 474 578 456 578 c 1,9,-1
 424 576 l 1,10,-1
 422 580 l 1,11,-1
 438 644 l 1,12,13
 514 641 514 641 550 641 c 1,14,-1
 667 648 l 1,15,-1
 653 582 l 1,16,17
 616 575 616 575 605 566 c 128,-1,18
 594 557 594 557 591 532 c 2,19,-1
 552 219 l 2,20,21
 538 106 538 106 468.5 47 c 128,-1,22
 399 -12 399 -12 280 -12 c 0,23,24
 75 -12 75 -12 75 165 c 0,25,26
 75 181 75 181 97.5 360 c 128,-1,27
 120 539 120 539 120 550.5 c 128,-1,28
 120 562 120 562 116 570 c 128,-1,29
 112 578 112 578 92 578 c 1,30,-1
 62 576 l 1,31,-1
 60 580 l 1,32,-1
 77 644 l 1,33,34
 159 641 159 641 215 641 c 1,35,-1
 331 648 l 1,36,-1
 316 581 l 1,37,38
 285 577 285 577 272.5 565.5 c 128,-1,39
 260 554 260 554 256 528 c 2,40,-1
 213 237 l 1,41,42
 211 208 211 208 211 193 c 0,0,1
244 762 m 1,43,-1
 239 775 l 1,44,-1
 264 852 l 1,45,-1
 277 857 l 1,46,47
 392 800 392 800 500 753 c 1,48,-1
 487 706 l 1,49,-1
 473 697 l 1,50,51
 351 735 351 735 244 762 c 1,43,-1
EndSplineSet
EndChar

StartChar: Uacute
Encoding: 218 218 155
Width: 629
GlyphClass: 2
Flags: W
LayerCount: 2
Fore
SplineSet
211 193 m 0,0,1
 211 137 211 137 236.5 107 c 128,-1,2
 262 77 262 77 312 77 c 0,3,4
 428 77 428 77 444 209 c 0,5,6
 481 534 481 534 481 547.5 c 128,-1,7
 481 561 481 561 477.5 569.5 c 128,-1,8
 474 578 474 578 456 578 c 1,9,-1
 424 576 l 1,10,-1
 422 580 l 1,11,-1
 438 644 l 1,12,13
 514 641 514 641 550 641 c 1,14,-1
 667 648 l 1,15,-1
 653 582 l 1,16,17
 616 575 616 575 605 566 c 128,-1,18
 594 557 594 557 591 532 c 2,19,-1
 552 219 l 2,20,21
 538 106 538 106 468.5 47 c 128,-1,22
 399 -12 399 -12 280 -12 c 0,23,24
 75 -12 75 -12 75 165 c 0,25,26
 75 181 75 181 97.5 360 c 128,-1,27
 120 539 120 539 120 550.5 c 128,-1,28
 120 562 120 562 116 570 c 128,-1,29
 112 578 112 578 92 578 c 1,30,-1
 62 576 l 1,31,-1
 60 580 l 1,32,-1
 77 644 l 1,33,34
 159 641 159 641 215 641 c 1,35,-1
 331 648 l 1,36,-1
 316 581 l 1,37,38
 285 577 285 577 272.5 565.5 c 128,-1,39
 260 554 260 554 256 528 c 2,40,-1
 213 237 l 1,41,42
 211 208 211 208 211 193 c 0,0,1
544 775 m 1,43,-1
 539 762 l 1,44,45
 424 733 424 733 310 697 c 1,46,-1
 297 706 l 1,47,-1
 283 753 l 1,48,-1
 506 857 l 1,49,-1
 519 852 l 1,50,-1
 544 775 l 1,43,-1
EndSplineSet
EndChar

StartChar: Ucircumflex
Encoding: 219 219 156
Width: 629
GlyphClass: 2
Flags: W
LayerCount: 2
Fore
SplineSet
211 193 m 0,0,1
 211 137 211 137 236.5 107 c 128,-1,2
 262 77 262 77 312 77 c 0,3,4
 428 77 428 77 444 209 c 0,5,6
 481 534 481 534 481 547.5 c 128,-1,7
 481 561 481 561 477.5 569.5 c 128,-1,8
 474 578 474 578 456 578 c 1,9,-1
 424 576 l 1,10,-1
 422 580 l 1,11,-1
 438 644 l 1,12,13
 514 641 514 641 550 641 c 1,14,-1
 667 648 l 1,15,-1
 653 582 l 1,16,17
 616 575 616 575 605 566 c 128,-1,18
 594 557 594 557 591 532 c 2,19,-1
 552 219 l 2,20,21
 538 106 538 106 468.5 47 c 128,-1,22
 399 -12 399 -12 280 -12 c 0,23,24
 75 -12 75 -12 75 165 c 0,25,26
 75 181 75 181 97.5 360 c 128,-1,27
 120 539 120 539 120 550.5 c 128,-1,28
 120 562 120 562 116 570 c 128,-1,29
 112 578 112 578 92 578 c 1,30,-1
 62 576 l 1,31,-1
 60 580 l 1,32,-1
 77 644 l 1,33,34
 159 641 159 641 215 641 c 1,35,-1
 331 648 l 1,36,-1
 316 581 l 1,37,38
 285 577 285 577 272.5 565.5 c 128,-1,39
 260 554 260 554 256 528 c 2,40,-1
 213 237 l 1,41,42
 211 208 211 208 211 193 c 0,0,1
399 765 m 1,43,-1
 269 707 l 1,44,-1
 254 711 l 1,45,-1
 235 752 l 1,46,-1
 403 876 l 1,47,-1
 423 876 l 1,48,49
 423 877 423 877 449 853 c 0,50,51
 538 771 538 771 560 752 c 1,52,-1
 531 711 l 1,53,-1
 514 707 l 1,54,-1
 399 765 l 1,43,-1
EndSplineSet
EndChar

StartChar: Udieresis
Encoding: 220 220 157
Width: 629
GlyphClass: 2
Flags: W
LayerCount: 2
Fore
SplineSet
211 193 m 0,0,1
 211 137 211 137 236.5 107 c 128,-1,2
 262 77 262 77 312 77 c 0,3,4
 428 77 428 77 444 209 c 0,5,6
 481 534 481 534 481 547.5 c 128,-1,7
 481 561 481 561 477.5 569.5 c 128,-1,8
 474 578 474 578 456 578 c 1,9,-1
 424 576 l 1,10,-1
 422 580 l 1,11,-1
 438 644 l 1,12,13
 514 641 514 641 550 641 c 1,14,-1
 667 648 l 1,15,-1
 653 582 l 1,16,17
 616 575 616 575 605 566 c 128,-1,18
 594 557 594 557 591 532 c 2,19,-1
 552 219 l 2,20,21
 538 106 538 106 468.5 47 c 128,-1,22
 399 -12 399 -12 280 -12 c 0,23,24
 75 -12 75 -12 75 165 c 0,25,26
 75 181 75 181 97.5 360 c 128,-1,27
 120 539 120 539 120 550.5 c 128,-1,28
 120 562 120 562 116 570 c 128,-1,29
 112 578 112 578 92 578 c 1,30,-1
 62 576 l 1,31,-1
 60 580 l 1,32,-1
 77 644 l 1,33,34
 159 641 159 641 215 641 c 1,35,-1
 331 648 l 1,36,-1
 316 581 l 1,37,38
 285 577 285 577 272.5 565.5 c 128,-1,39
 260 554 260 554 256 528 c 2,40,-1
 213 237 l 1,41,42
 211 208 211 208 211 193 c 0,0,1
528 732.5 m 128,-1,44
 507 711 507 711 478 711 c 0,45,46
 422 711 422 711 422 763 c 0,47,48
 422 796 422 796 443.5 817.5 c 128,-1,49
 465 839 465 839 493.5 839 c 128,-1,50
 522 839 522 839 535.5 825 c 128,-1,51
 549 811 549 811 549 782.5 c 128,-1,43
 549 754 549 754 528 732.5 c 128,-1,44
301 711 m 0,52,53
 249 711 249 711 249 763 c 0,54,55
 249 796 249 796 270 817.5 c 128,-1,56
 291 839 291 839 320 839 c 0,57,58
 376 839 376 839 376 787 c 0,59,60
 376 754 376 754 355 732.5 c 128,-1,61
 334 711 334 711 301 711 c 0,52,53
EndSplineSet
EndChar

StartChar: Yacute
Encoding: 221 221 158
Width: 582
GlyphClass: 2
Flags: W
LayerCount: 2
Fore
SplineSet
408 645 m 1,0,-1
 536 641 l 1,1,-1
 636 645 l 1,2,-1
 639 638 l 1,3,-1
 624 578 l 1,4,5
 584 565 584 565 557.5 538.5 c 128,-1,6
 531 512 531 512 492 450 c 0,7,8
 376 268 376 268 372.5 261.5 c 128,-1,9
 369 255 369 255 366.5 250.5 c 128,-1,10
 364 246 364 246 362 239 c 128,-1,11
 360 232 360 232 358.5 228 c 128,-1,12
 357 224 357 224 355.5 215.5 c 128,-1,13
 354 207 354 207 353 202.5 c 128,-1,14
 352 198 352 198 350.5 187 c 128,-1,15
 349 176 349 176 348 171 c 0,16,17
 347 154 347 154 344 135 c 128,-1,18
 341 116 341 116 341 102 c 128,-1,19
 341 88 341 88 347 76.5 c 128,-1,20
 353 65 353 65 380 65 c 1,21,-1
 428 68 l 1,22,-1
 431 63 l 1,23,-1
 414 -4 l 1,24,25
 303 0 303 0 266 0 c 0,26,27
 215 0 215 0 101 -11 c 1,28,-1
 116 56 l 1,29,30
 173 64 173 64 191.5 82 c 128,-1,31
 210 100 210 100 215 151 c 0,32,33
 220 192 220 192 220 218 c 128,-1,34
 220 244 220 244 204 285 c 2,35,-1
 133 475 l 2,36,37
 115 525 115 525 96.5 546 c 128,-1,38
 78 567 78 567 37 576 c 1,39,-1
 34 581 l 1,40,-1
 50 644 l 1,41,42
 136 641 136 641 174 641 c 1,43,-1
 330 649 l 1,44,-1
 334 640 l 1,45,-1
 321 583 l 1,46,47
 286 581 286 581 273.5 574 c 128,-1,48
 261 567 261 567 261 543.5 c 128,-1,49
 261 520 261 520 317 344 c 1,50,-1
 325 344 l 1,51,-1
 422 512 l 2,52,53
 441 544 441 544 441 562 c 128,-1,54
 441 580 441 580 395 583 c 1,55,-1
 393 588 l 1,56,-1
 408 645 l 1,0,-1
527 775 m 1,57,-1
 522 762 l 1,58,59
 407 733 407 733 293 697 c 1,60,-1
 280 706 l 1,61,-1
 266 753 l 1,62,-1
 489 857 l 1,63,-1
 502 852 l 1,64,-1
 527 775 l 1,57,-1
EndSplineSet
EndChar

StartChar: Thorn
Encoding: 222 222 159
Width: 555
GlyphClass: 2
Flags: W
LayerCount: 2
Fore
SplineSet
96 643 m 1,0,-1
 232 642 l 1,1,-1
 372 649 l 1,2,-1
 359 582 l 1,3,4
 320 576 320 576 307.5 567.5 c 128,-1,5
 295 559 295 559 291 536 c 2,6,-1
 287 512 l 1,7,-1
 359 512 l 2,8,9
 560 512 560 512 560 360 c 0,10,11
 560 268 560 268 484 206 c 128,-1,12
 408 144 408 144 300 144 c 2,13,-1
 232 144 l 1,14,15
 226 102 226 102 226 91 c 128,-1,16
 226 80 226 80 231 72.5 c 128,-1,17
 236 65 236 65 258 65 c 1,18,-1
 304 68 l 1,19,-1
 308 61 l 1,20,-1
 292 -3 l 1,21,22
 187 0 187 0 152 0 c 0,23,24
 85 0 85 0 4 -9 c 1,25,-1
 19 56 l 1,26,27
 62 65 62 65 78 81.5 c 128,-1,28
 94 98 94 98 99 140 c 0,29,30
 149 538 149 538 149 549 c 128,-1,31
 149 560 149 560 144 568.5 c 128,-1,32
 139 577 139 577 118 577 c 2,33,-1
 86 576 l 1,34,-1
 81 584 l 1,35,-1
 96 643 l 1,0,-1
416 342 m 0,36,37
 416 388 416 388 386.5 409.5 c 128,-1,38
 357 431 357 431 295 431 c 0,39,40
 274 431 274 431 271 417 c 2,41,-1
 243 232 l 1,42,43
 291 218 291 218 321 218 c 1,44,45
 416 234 416 234 416 342 c 0,36,37
EndSplineSet
EndChar

StartChar: germandbls
Encoding: 223 223 160
Width: 610
GlyphClass: 2
Flags: W
LayerCount: 2
Fore
SplineSet
202.5 676.5 m 128,-1,1
 278 742 278 742 363 742 c 128,-1,2
 448 742 448 742 498.5 706.5 c 128,-1,3
 549 671 549 671 549 614 c 0,4,5
 549 555 549 555 504 508 c 0,6,7
 485 489 485 489 466 471 c 0,8,9
 420 427 420 427 420 398 c 128,-1,10
 420 369 420 369 448 345.5 c 128,-1,11
 476 322 476 322 509.5 304 c 128,-1,12
 543 286 543 286 571 251 c 128,-1,13
 599 216 599 216 599 171 c 0,14,15
 599 95 599 95 537 41.5 c 128,-1,16
 475 -12 475 -12 387 -12 c 0,17,18
 337 -12 337 -12 299.5 5 c 128,-1,19
 262 22 262 22 259 47 c 1,20,21
 263 69 263 69 280.5 103.5 c 128,-1,22
 298 138 298 138 315 157 c 1,23,-1
 335 156 l 1,24,25
 335 151 335 151 335 145 c 0,26,27
 335 113 335 113 352.5 90.5 c 128,-1,28
 370 68 370 68 400 68 c 128,-1,29
 430 68 430 68 449.5 88.5 c 128,-1,30
 469 109 469 109 469 133 c 128,-1,31
 469 157 469 157 451 176.5 c 128,-1,32
 433 196 433 196 407.5 212 c 128,-1,33
 382 228 382 228 356 246 c 0,34,35
 294 289 294 289 294 354 c 0,36,37
 294 390 294 390 314.5 422 c 128,-1,38
 335 454 335 454 359.5 474.5 c 128,-1,39
 384 495 384 495 404.5 522.5 c 128,-1,40
 425 550 425 550 425 580.5 c 128,-1,41
 425 611 425 611 400.5 633 c 128,-1,42
 376 655 376 655 332 655 c 0,43,44
 251 655 251 655 237 556 c 1,45,-1
 171 -42 l 2,46,47
 162 -123 162 -123 103.5 -182.5 c 128,-1,48
 45 -242 45 -242 -26 -242 c 0,49,50
 -65 -242 -65 -242 -97 -226.5 c 128,-1,51
 -129 -211 -129 -211 -137 -188 c 1,52,53
 -130 -166 -130 -166 -114 -132.5 c 128,-1,54
 -98 -99 -98 -99 -85 -81 c 1,55,-1
 -69 -81 l 1,56,57
 -66 -162 -66 -162 2 -162 c 0,58,59
 30 -162 30 -162 49.5 -140.5 c 128,-1,60
 69 -119 69 -119 71 -82 c 1,61,62
 70 -84 70 -84 68 -97.5 c 128,-1,63
 66 -111 66 -111 67 -96 c 256,64,65
 68 -81 68 -81 104 384 c 1,66,-1
 95 391 l 1,67,-1
 24 393 l 1,68,-1
 21 398 l 1,69,-1
 26 444 l 1,70,-1
 110 457 l 1,71,-1
 117 521 l 2,72,0
 127 611 127 611 202.5 676.5 c 128,-1,1
EndSplineSet
EndChar

StartChar: agrave
Encoding: 224 224 161
Width: 493
GlyphClass: 2
Flags: W
LayerCount: 2
Fore
SplineSet
313 -12 m 0,0,1
 270 -12 270 -12 270 26 c 0,2,3
 270 57 270 57 304 193 c 1,4,-1
 296 194 l 1,5,6
 211 41 211 41 135 -12 c 1,7,8
 81 -12 81 -12 51 26.5 c 128,-1,9
 21 65 21 65 21 139 c 128,-1,10
 21 213 21 213 56.5 290.5 c 128,-1,11
 92 368 92 368 148.5 417 c 128,-1,12
 205 466 205 466 262 466 c 1,13,-1
 349 448 l 1,14,-1
 356 470 l 1,15,-1
 367 477 l 1,16,-1
 448 463 l 1,17,-1
 456 446 l 1,18,19
 408 267 408 267 384 109 c 1,20,-1
 388 105 l 1,21,22
 397 105 397 105 454 155 c 1,23,-1
 471 153 l 1,24,-1
 487 118 l 1,25,26
 417 44 417 44 379.5 16 c 128,-1,27
 342 -12 342 -12 313 -12 c 0,0,1
167 105 m 0,28,29
 189 105 189 105 235 181.5 c 128,-1,30
 281 258 281 258 319 358 c 1,31,32
 271 387 271 387 231 387 c 0,33,34
 199 387 199 387 172 325 c 128,-1,35
 145 263 145 263 145 190 c 0,36,37
 145 154 145 154 151.5 129.5 c 128,-1,38
 158 105 158 105 167 105 c 0,28,29
160 652 m 1,39,-1
 158 666 l 1,40,-1
 213 736 l 1,41,-1
 226 737 l 1,42,43
 311 647 311 647 394 567 c 1,44,-1
 364 528 l 1,45,-1
 348 524 l 1,46,47
 266 586 266 586 160 652 c 1,39,-1
EndSplineSet
EndChar

StartChar: aacute
Encoding: 225 225 162
Width: 493
GlyphClass: 2
Flags: W
LayerCount: 2
Fore
SplineSet
313 -12 m 0,0,1
 270 -12 270 -12 270 26 c 0,2,3
 270 57 270 57 304 193 c 1,4,-1
 296 194 l 1,5,6
 211 41 211 41 135 -12 c 1,7,8
 81 -12 81 -12 51 26.5 c 128,-1,9
 21 65 21 65 21 139 c 128,-1,10
 21 213 21 213 56.5 290.5 c 128,-1,11
 92 368 92 368 148.5 417 c 128,-1,12
 205 466 205 466 262 466 c 1,13,-1
 349 448 l 1,14,-1
 356 470 l 1,15,-1
 367 477 l 1,16,-1
 448 463 l 1,17,-1
 456 446 l 1,18,19
 408 267 408 267 384 109 c 1,20,-1
 388 105 l 1,21,22
 397 105 397 105 454 155 c 1,23,-1
 471 153 l 1,24,-1
 487 118 l 1,25,26
 417 44 417 44 379.5 16 c 128,-1,27
 342 -12 342 -12 313 -12 c 0,0,1
167 105 m 0,28,29
 189 105 189 105 235 181.5 c 128,-1,30
 281 258 281 258 319 358 c 1,31,32
 271 387 271 387 231 387 c 0,33,34
 199 387 199 387 172 325 c 128,-1,35
 145 263 145 263 145 190 c 0,36,37
 145 154 145 154 151.5 129.5 c 128,-1,38
 158 105 158 105 167 105 c 0,28,29
432 666 m 1,39,-1
 431 652 l 1,40,41
 335 592 335 592 242 523 c 1,42,-1
 227 527 l 1,43,-1
 197 566 l 1,44,45
 282 649 282 649 365 737 c 1,46,-1
 378 736 l 1,47,-1
 432 666 l 1,39,-1
EndSplineSet
EndChar

StartChar: acircumflex
Encoding: 226 226 163
Width: 493
GlyphClass: 2
Flags: W
LayerCount: 2
Fore
SplineSet
313 -12 m 0,0,1
 270 -12 270 -12 270 26 c 0,2,3
 270 57 270 57 304 193 c 1,4,-1
 296 194 l 1,5,6
 211 41 211 41 135 -12 c 1,7,8
 81 -12 81 -12 51 26.5 c 128,-1,9
 21 65 21 65 21 139 c 128,-1,10
 21 213 21 213 56.5 290.5 c 128,-1,11
 92 368 92 368 148.5 417 c 128,-1,12
 205 466 205 466 262 466 c 1,13,-1
 349 448 l 1,14,-1
 356 470 l 1,15,-1
 367 477 l 1,16,-1
 448 463 l 1,17,-1
 456 446 l 1,18,19
 408 267 408 267 384 109 c 1,20,-1
 388 105 l 1,21,22
 397 105 397 105 454 155 c 1,23,-1
 471 153 l 1,24,-1
 487 118 l 1,25,26
 417 44 417 44 379.5 16 c 128,-1,27
 342 -12 342 -12 313 -12 c 0,0,1
167 105 m 0,28,29
 189 105 189 105 235 181.5 c 128,-1,30
 281 258 281 258 319 358 c 1,31,32
 271 387 271 387 231 387 c 0,33,34
 199 387 199 387 172 325 c 128,-1,35
 145 263 145 263 145 190 c 0,36,37
 145 154 145 154 151.5 129.5 c 128,-1,38
 158 105 158 105 167 105 c 0,28,29
402 531 m 1,39,40
 316 603 316 603 299 614 c 1,41,42
 296 612 296 612 177 531 c 1,43,-1
 161 535 l 1,44,-1
 137 576 l 1,45,46
 173 606 173 606 303 730 c 1,47,-1
 323 730 l 1,48,49
 420 609 420 609 452 576 c 1,50,-1
 418 535 l 1,51,-1
 402 531 l 1,39,40
EndSplineSet
EndChar

StartChar: atilde
Encoding: 227 227 164
Width: 493
GlyphClass: 2
Flags: W
LayerCount: 2
Fore
SplineSet
313 -12 m 0,0,1
 270 -12 270 -12 270 26 c 0,2,3
 270 57 270 57 304 193 c 1,4,-1
 296 194 l 1,5,6
 211 41 211 41 135 -12 c 1,7,8
 81 -12 81 -12 51 26.5 c 128,-1,9
 21 65 21 65 21 139 c 128,-1,10
 21 213 21 213 56.5 290.5 c 128,-1,11
 92 368 92 368 148.5 417 c 128,-1,12
 205 466 205 466 262 466 c 1,13,-1
 349 448 l 1,14,-1
 356 470 l 1,15,-1
 367 477 l 1,16,-1
 448 463 l 1,17,-1
 456 446 l 1,18,19
 408 267 408 267 384 109 c 1,20,-1
 388 105 l 1,21,22
 397 105 397 105 454 155 c 1,23,-1
 471 153 l 1,24,-1
 487 118 l 1,25,26
 417 44 417 44 379.5 16 c 128,-1,27
 342 -12 342 -12 313 -12 c 0,0,1
167 105 m 0,28,29
 189 105 189 105 235 181.5 c 128,-1,30
 281 258 281 258 319 358 c 1,31,32
 271 387 271 387 231 387 c 0,33,34
 199 387 199 387 172 325 c 128,-1,35
 145 263 145 263 145 190 c 0,36,37
 145 154 145 154 151.5 129.5 c 128,-1,38
 158 105 158 105 167 105 c 0,28,29
294 675.5 m 128,-1,40
 350 659 350 659 362 659 c 0,41,42
 382 659 382 659 420 701 c 1,43,-1
 432 715 l 1,44,-1
 443 715 l 1,45,-1
 479 678 l 1,46,-1
 477 668 l 1,47,-1
 389 566 l 1,48,-1
 373 562 l 1,49,50
 356 562 356 562 300.5 579 c 128,-1,51
 245 596 245 596 233 596 c 128,-1,52
 221 596 221 596 203.5 582 c 128,-1,53
 186 568 186 568 162 540 c 1,54,-1
 151 540 l 1,55,-1
 116 576 l 1,56,-1
 117 587 l 1,57,-1
 205 688 l 1,58,-1
 221 692 l 1,59,39
 238 692 238 692 294 675.5 c 128,-1,40
EndSplineSet
EndChar

StartChar: adieresis
Encoding: 228 228 165
Width: 493
GlyphClass: 2
Flags: W
LayerCount: 2
Fore
SplineSet
313 -12 m 0,0,1
 270 -12 270 -12 270 26 c 0,2,3
 270 57 270 57 304 193 c 1,4,-1
 296 194 l 1,5,6
 211 41 211 41 135 -12 c 1,7,8
 81 -12 81 -12 51 26.5 c 128,-1,9
 21 65 21 65 21 139 c 128,-1,10
 21 213 21 213 56.5 290.5 c 128,-1,11
 92 368 92 368 148.5 417 c 128,-1,12
 205 466 205 466 262 466 c 1,13,-1
 349 448 l 1,14,-1
 356 470 l 1,15,-1
 367 477 l 1,16,-1
 448 463 l 1,17,-1
 456 446 l 1,18,19
 408 267 408 267 384 109 c 1,20,-1
 388 105 l 1,21,22
 397 105 397 105 454 155 c 1,23,-1
 471 153 l 1,24,-1
 487 118 l 1,25,26
 417 44 417 44 379.5 16 c 128,-1,27
 342 -12 342 -12 313 -12 c 0,0,1
167 105 m 0,28,29
 189 105 189 105 235 181.5 c 128,-1,30
 281 258 281 258 319 358 c 1,31,32
 271 387 271 387 231 387 c 0,33,34
 199 387 199 387 172 325 c 128,-1,35
 145 263 145 263 145 190 c 0,36,37
 145 154 145 154 151.5 129.5 c 128,-1,38
 158 105 158 105 167 105 c 0,28,29
438 585.5 m 128,-1,40
 417 564 417 564 388 564 c 0,41,42
 331 564 331 564 331 616 c 0,43,44
 331 648 331 648 352.5 670 c 128,-1,45
 374 692 374 692 403 692 c 0,46,47
 459 692 459 692 459 640 c 0,48,39
 459 607 459 607 438 585.5 c 128,-1,40
264 585.5 m 128,-1,50
 243 564 243 564 214 564 c 0,51,52
 158 564 158 564 158 616 c 0,53,54
 158 648 158 648 179.5 670 c 128,-1,55
 201 692 201 692 230 692 c 0,56,57
 285 692 285 692 285 640 c 0,58,49
 285 607 285 607 264 585.5 c 128,-1,50
EndSplineSet
EndChar

StartChar: aring
Encoding: 229 229 166
Width: 493
GlyphClass: 2
Flags: W
LayerCount: 2
Fore
SplineSet
313 -12 m 0,0,1
 270 -12 270 -12 270 26 c 0,2,3
 270 57 270 57 304 193 c 1,4,-1
 296 194 l 1,5,6
 211 41 211 41 135 -12 c 1,7,8
 81 -12 81 -12 51 26.5 c 128,-1,9
 21 65 21 65 21 139 c 128,-1,10
 21 213 21 213 56.5 290.5 c 128,-1,11
 92 368 92 368 148.5 417 c 128,-1,12
 205 466 205 466 262 466 c 1,13,-1
 349 448 l 1,14,-1
 356 470 l 1,15,-1
 367 477 l 1,16,-1
 448 463 l 1,17,-1
 456 446 l 1,18,19
 408 267 408 267 384 109 c 1,20,-1
 388 105 l 1,21,22
 397 105 397 105 454 155 c 1,23,-1
 471 153 l 1,24,-1
 487 118 l 1,25,26
 417 44 417 44 379.5 16 c 128,-1,27
 342 -12 342 -12 313 -12 c 0,0,1
167 105 m 0,28,29
 189 105 189 105 235 181.5 c 128,-1,30
 281 258 281 258 319 358 c 1,31,32
 271 387 271 387 231 387 c 0,33,34
 199 387 199 387 172 325 c 128,-1,35
 145 263 145 263 145 190 c 0,36,37
 145 154 145 154 151.5 129.5 c 128,-1,38
 158 105 158 105 167 105 c 0,28,29
279 596 m 0,39,40
 322 596 322 596 322 638 c 0,41,42
 322 674 322 674 283 674 c 0,43,44
 241 674 241 674 241 633 c 0,45,46
 241 615 241 615 253 605.5 c 128,-1,47
 265 596 265 596 279 596 c 0,39,40
344 576.5 m 128,-1,49
 314 543 314 543 271.5 543 c 128,-1,50
 229 543 229 543 209.5 564.5 c 128,-1,51
 190 586 190 586 190 626.5 c 128,-1,52
 190 667 190 667 220.5 698 c 128,-1,53
 251 729 251 729 293.5 729 c 128,-1,54
 336 729 336 729 355 707.5 c 128,-1,55
 374 686 374 686 374 648 c 128,-1,48
 374 610 374 610 344 576.5 c 128,-1,49
EndSplineSet
EndChar

StartChar: ae
Encoding: 230 230 167
Width: 635
GlyphClass: 2
Flags: W
LayerCount: 2
Fore
SplineSet
627 379 m 0,0,1
 627 313 627 313 571.5 269 c 128,-1,2
 516 225 516 225 384 183 c 1,3,4
 384 138 384 138 400.5 111.5 c 128,-1,5
 417 85 417 85 447 85 c 0,6,7
 504 85 504 85 547 164 c 1,8,-1
 565 162 l 1,9,-1
 598 122 l 1,10,11
 571 64 571 64 516 26 c 128,-1,12
 461 -12 461 -12 403 -12 c 128,-1,13
 345 -12 345 -12 308.5 29.5 c 128,-1,14
 272 71 272 71 267 143 c 1,15,16
 199 32 199 32 135 -12 c 1,17,18
 81 -12 81 -12 51 26.5 c 128,-1,19
 21 65 21 65 21 139 c 128,-1,20
 21 213 21 213 56.5 290.5 c 128,-1,21
 92 368 92 368 148.5 417 c 128,-1,22
 205 466 205 466 262 466 c 1,23,-1
 416 442 l 1,24,25
 466 473 466 473 518 473 c 128,-1,26
 570 473 570 473 598.5 448 c 128,-1,27
 627 423 627 423 627 379 c 0,0,1
167 105 m 0,28,29
 189 105 189 105 235 184.5 c 128,-1,30
 281 264 281 264 319 368 c 1,31,32
 272 387 272 387 231 387 c 0,33,34
 199 387 199 387 172 325 c 128,-1,35
 145 263 145 263 145 190 c 0,36,37
 145 154 145 154 151.5 129.5 c 128,-1,38
 158 105 158 105 167 105 c 0,28,29
485 385 m 128,-1,40
 452 385 452 385 424.5 345.5 c 128,-1,41
 397 306 397 306 387 244 c 1,42,43
 518 287 518 287 518 350 c 0,44,39
 518 385 518 385 485 385 c 128,-1,40
EndSplineSet
EndChar

StartChar: ccedilla
Encoding: 231 231 168
Width: 368
GlyphClass: 2
Flags: W
LayerCount: 2
Fore
SplineSet
24 160 m 0,0,1
 24 284 24 284 100 378.5 c 128,-1,2
 176 473 176 473 276 473 c 0,3,4
 337 473 337 473 373 451 c 1,5,-1
 377 436 l 1,6,-1
 335 340 l 1,7,-1
 307 338 l 1,8,9
 279 385 279 385 241 385 c 128,-1,10
 203 385 203 385 173.5 327.5 c 128,-1,11
 144 270 144 270 144 206 c 0,12,13
 144 86 144 86 203 86 c 0,14,15
 229 86 229 86 254 108 c 128,-1,16
 279 130 279 130 296 167 c 1,17,-1
 313 165 l 1,18,-1
 346 124 l 1,19,20
 324 77 324 77 284.5 41.5 c 128,-1,21
 245 6 245 6 201 -6 c 1,22,-1
 186 -44 l 1,23,24
 270 -95 270 -95 270 -135.5 c 128,-1,25
 270 -176 270 -176 225 -207 c 128,-1,26
 180 -238 180 -238 126 -238 c 0,27,28
 100 -238 100 -238 77 -226 c 128,-1,29
 54 -214 54 -214 54 -196.5 c 128,-1,30
 54 -179 54 -179 100 -130 c 1,31,-1
 108 -130 l 1,32,33
 108 -134 108 -134 108 -146.5 c 128,-1,34
 108 -159 108 -159 118.5 -172.5 c 128,-1,35
 129 -186 129 -186 149 -186 c 128,-1,36
 169 -186 169 -186 181 -177 c 128,-1,37
 193 -168 193 -168 193 -154 c 0,38,39
 193 -130 193 -130 118 -86 c 1,40,-1
 147 -11 l 1,41,42
 90 -6 90 -6 57 39.5 c 128,-1,43
 24 85 24 85 24 160 c 0,0,1
EndSplineSet
EndChar

StartChar: egrave
Encoding: 232 232 169
Width: 393
GlyphClass: 2
Flags: W
LayerCount: 2
Fore
SplineSet
385 379 m 0,0,1
 385 313 385 313 329.5 269 c 128,-1,2
 274 225 274 225 142 183 c 1,3,4
 142 138 142 138 158.5 111.5 c 128,-1,5
 175 85 175 85 205 85 c 0,6,7
 262 85 262 85 306 164 c 1,8,-1
 323 162 l 1,9,-1
 356 122 l 1,10,11
 329 64 329 64 274 26 c 128,-1,12
 219 -12 219 -12 159 -12 c 128,-1,13
 99 -12 99 -12 61.5 35.5 c 128,-1,14
 24 83 24 83 24 163 c 0,15,16
 24 284 24 284 101.5 378.5 c 128,-1,17
 179 473 179 473 278 473 c 0,18,19
 328 473 328 473 356.5 448 c 128,-1,20
 385 423 385 423 385 379 c 0,0,1
243 385 m 128,-1,22
 210 385 210 385 182.5 345.5 c 128,-1,23
 155 306 155 306 145 244 c 1,24,25
 276 287 276 287 276 350 c 0,26,21
 276 385 276 385 243 385 c 128,-1,22
132 651 m 1,27,-1
 130 665 l 1,28,-1
 185 735 l 1,29,-1
 198 736 l 1,30,31
 283 646 283 646 366 566 c 1,32,-1
 336 527 l 1,33,-1
 320 523 l 1,34,35
 238 585 238 585 132 651 c 1,27,-1
EndSplineSet
EndChar

StartChar: eacute
Encoding: 233 233 170
Width: 393
GlyphClass: 2
Flags: W
LayerCount: 2
Fore
SplineSet
385 379 m 0,0,1
 385 313 385 313 329.5 269 c 128,-1,2
 274 225 274 225 142 183 c 1,3,4
 142 138 142 138 158.5 111.5 c 128,-1,5
 175 85 175 85 205 85 c 0,6,7
 262 85 262 85 306 164 c 1,8,-1
 323 162 l 1,9,-1
 356 122 l 1,10,11
 329 64 329 64 274 26 c 128,-1,12
 219 -12 219 -12 159 -12 c 128,-1,13
 99 -12 99 -12 61.5 35.5 c 128,-1,14
 24 83 24 83 24 163 c 0,15,16
 24 284 24 284 101.5 378.5 c 128,-1,17
 179 473 179 473 278 473 c 0,18,19
 328 473 328 473 356.5 448 c 128,-1,20
 385 423 385 423 385 379 c 0,0,1
243 385 m 128,-1,22
 210 385 210 385 182.5 345.5 c 128,-1,23
 155 306 155 306 145 244 c 1,24,25
 276 287 276 287 276 350 c 0,26,21
 276 385 276 385 243 385 c 128,-1,22
384 667 m 1,27,-1
 383 653 l 1,28,29
 287 593 287 593 194 524 c 1,30,-1
 179 528 l 1,31,-1
 149 567 l 1,32,33
 234 650 234 650 317 738 c 1,34,-1
 330 737 l 1,35,-1
 384 667 l 1,27,-1
EndSplineSet
EndChar

StartChar: ecircumflex
Encoding: 234 234 171
Width: 393
GlyphClass: 2
Flags: W
LayerCount: 2
Fore
SplineSet
385 379 m 0,0,1
 385 313 385 313 329.5 269 c 128,-1,2
 274 225 274 225 142 183 c 1,3,4
 142 138 142 138 158.5 111.5 c 128,-1,5
 175 85 175 85 205 85 c 0,6,7
 262 85 262 85 306 164 c 1,8,-1
 323 162 l 1,9,-1
 356 122 l 1,10,11
 329 64 329 64 274 26 c 128,-1,12
 219 -12 219 -12 159 -12 c 128,-1,13
 99 -12 99 -12 61.5 35.5 c 128,-1,14
 24 83 24 83 24 163 c 0,15,16
 24 284 24 284 101.5 378.5 c 128,-1,17
 179 473 179 473 278 473 c 0,18,19
 328 473 328 473 356.5 448 c 128,-1,20
 385 423 385 423 385 379 c 0,0,1
243 385 m 128,-1,22
 210 385 210 385 182.5 345.5 c 128,-1,23
 155 306 155 306 145 244 c 1,24,25
 276 287 276 287 276 350 c 0,26,21
 276 385 276 385 243 385 c 128,-1,22
379 531 m 1,27,28
 293 603 293 603 276 614 c 1,29,30
 273 612 273 612 154 531 c 1,31,-1
 138 535 l 1,32,-1
 114 576 l 1,33,34
 150 606 150 606 280 730 c 1,35,-1
 300 730 l 1,36,37
 397 609 397 609 429 576 c 1,38,-1
 395 535 l 1,39,-1
 379 531 l 1,27,28
EndSplineSet
EndChar

StartChar: edieresis
Encoding: 235 235 172
Width: 393
GlyphClass: 2
Flags: W
LayerCount: 2
Fore
SplineSet
385 379 m 0,0,1
 385 313 385 313 329.5 269 c 128,-1,2
 274 225 274 225 142 183 c 1,3,4
 142 138 142 138 158.5 111.5 c 128,-1,5
 175 85 175 85 205 85 c 0,6,7
 262 85 262 85 306 164 c 1,8,-1
 323 162 l 1,9,-1
 356 122 l 1,10,11
 329 64 329 64 274 26 c 128,-1,12
 219 -12 219 -12 159 -12 c 128,-1,13
 99 -12 99 -12 61.5 35.5 c 128,-1,14
 24 83 24 83 24 163 c 0,15,16
 24 284 24 284 101.5 378.5 c 128,-1,17
 179 473 179 473 278 473 c 0,18,19
 328 473 328 473 356.5 448 c 128,-1,20
 385 423 385 423 385 379 c 0,0,1
243 385 m 128,-1,22
 210 385 210 385 182.5 345.5 c 128,-1,23
 155 306 155 306 145 244 c 1,24,25
 276 287 276 287 276 350 c 0,26,21
 276 385 276 385 243 385 c 128,-1,22
403 584.5 m 128,-1,28
 382 563 382 563 352 563 c 0,29,30
 296 563 296 563 296 615 c 0,31,32
 296 647 296 647 317.5 669 c 128,-1,33
 339 691 339 691 368 691 c 0,34,35
 424 691 424 691 424 639 c 0,36,27
 424 606 424 606 403 584.5 c 128,-1,28
229 584.5 m 128,-1,38
 208 563 208 563 179 563 c 0,39,40
 123 563 123 563 123 615 c 0,41,42
 123 647 123 647 144.5 669 c 128,-1,43
 166 691 166 691 195 691 c 0,44,45
 250 691 250 691 250 639 c 0,46,37
 250 606 250 606 229 584.5 c 128,-1,38
EndSplineSet
EndChar

StartChar: igrave
Encoding: 236 236 173
Width: 293
GlyphClass: 2
Flags: W
LayerCount: 2
Fore
SplineSet
45 651 m 1,0,-1
 43 665 l 1,1,-1
 98 735 l 1,2,-1
 111 736 l 1,3,4
 196 646 196 646 279 566 c 1,5,-1
 249 527 l 1,6,-1
 233 523 l 1,7,8
 151 585 151 585 45 651 c 1,0,-1
273 118 m 1,9,10
 153 -12 153 -12 102.5 -12 c 128,-1,11
 52 -12 52 -12 52 38 c 1,12,13
 100 324 100 324 100 350 c 128,-1,14
 100 376 100 376 91 385 c 128,-1,15
 82 394 82 394 62 394 c 2,16,-1
 27 394 l 1,17,-1
 37 453 l 1,18,19
 86 453 86 453 228 462 c 1,20,-1
 240 446 l 1,21,22
 193 278 193 278 169 109 c 1,23,-1
 173 105 l 1,24,25
 182 105 182 105 239 155 c 1,26,-1
 256 153 l 1,27,-1
 273 118 l 1,9,10
EndSplineSet
EndChar

StartChar: iacute
Encoding: 237 237 174
Width: 293
GlyphClass: 2
Flags: W
LayerCount: 2
Fore
SplineSet
308 666 m 1,0,-1
 307 652 l 1,1,2
 211 592 211 592 118 523 c 1,3,-1
 103 527 l 1,4,-1
 73 566 l 1,5,6
 158 649 158 649 241 737 c 1,7,-1
 254 736 l 1,8,-1
 308 666 l 1,0,-1
273 118 m 1,9,10
 153 -12 153 -12 102.5 -12 c 128,-1,11
 52 -12 52 -12 52 38 c 1,12,13
 100 324 100 324 100 350 c 128,-1,14
 100 376 100 376 91 385 c 128,-1,15
 82 394 82 394 62 394 c 2,16,-1
 27 394 l 1,17,-1
 37 453 l 1,18,19
 86 453 86 453 228 462 c 1,20,-1
 240 446 l 1,21,22
 193 278 193 278 169 109 c 1,23,-1
 173 105 l 1,24,25
 182 105 182 105 239 155 c 1,26,-1
 256 153 l 1,27,-1
 273 118 l 1,9,10
EndSplineSet
EndChar

StartChar: icircumflex
Encoding: 238 238 175
Width: 293
GlyphClass: 2
Flags: W
LayerCount: 2
Fore
SplineSet
273 118 m 1,0,1
 153 -12 153 -12 102.5 -12 c 128,-1,2
 52 -12 52 -12 52 38 c 1,3,4
 100 324 100 324 100 350 c 128,-1,5
 100 376 100 376 91 385 c 128,-1,6
 82 394 82 394 62 394 c 2,7,-1
 27 394 l 1,8,-1
 37 453 l 1,9,10
 86 453 86 453 228 462 c 1,11,-1
 240 446 l 1,12,13
 193 278 193 278 169 109 c 1,14,-1
 173 105 l 1,15,16
 182 105 182 105 239 155 c 1,17,-1
 256 153 l 1,18,-1
 273 118 l 1,0,1
292 530 m 1,19,20
 206 602 206 602 189 613 c 1,21,22
 186 611 186 611 67 530 c 1,23,-1
 51 534 l 1,24,-1
 27 575 l 1,25,26
 63 605 63 605 193 729 c 1,27,-1
 213 729 l 1,28,29
 310 608 310 608 342 575 c 1,30,-1
 308 534 l 1,31,-1
 292 530 l 1,19,20
EndSplineSet
EndChar

StartChar: idieresis
Encoding: 239 239 176
Width: 293
GlyphClass: 2
Flags: W
LayerCount: 2
Fore
SplineSet
317 584.5 m 128,-1,1
 296 563 296 563 266 563 c 0,2,3
 210 563 210 563 210 615 c 0,4,5
 210 647 210 647 231.5 669 c 128,-1,6
 253 691 253 691 282 691 c 0,7,8
 338 691 338 691 338 639 c 0,9,0
 338 606 338 606 317 584.5 c 128,-1,1
143 584.5 m 128,-1,11
 122 563 122 563 93 563 c 0,12,13
 37 563 37 563 37 615 c 0,14,15
 37 647 37 647 58.5 669 c 128,-1,16
 80 691 80 691 109 691 c 0,17,18
 164 691 164 691 164 639 c 0,19,10
 164 606 164 606 143 584.5 c 128,-1,11
273 118 m 1,20,21
 153 -12 153 -12 102.5 -12 c 128,-1,22
 52 -12 52 -12 52 38 c 1,23,24
 100 324 100 324 100 350 c 128,-1,25
 100 376 100 376 91 385 c 128,-1,26
 82 394 82 394 62 394 c 2,27,-1
 27 394 l 1,28,-1
 37 453 l 1,29,30
 86 453 86 453 228 462 c 1,31,-1
 240 446 l 1,32,33
 193 278 193 278 169 109 c 1,34,-1
 173 105 l 1,35,36
 182 105 182 105 239 155 c 1,37,-1
 256 153 l 1,38,-1
 273 118 l 1,20,21
EndSplineSet
EndChar

StartChar: eth
Encoding: 240 240 177
Width: 490
GlyphClass: 2
Flags: W
LayerCount: 2
Fore
SplineSet
470 292 m 0,0,1
 470 158 470 158 395.5 73 c 128,-1,2
 321 -12 321 -12 206 -12 c 0,3,4
 120 -12 120 -12 71 39 c 128,-1,5
 22 90 22 90 22 178 c 0,6,7
 22 294 22 294 90.5 378.5 c 128,-1,8
 159 463 159 463 250 463 c 1,9,10
 265 460 265 460 301 439 c 1,11,-1
 305 444 l 1,12,13
 285 502 285 502 246 550 c 1,14,-1
 113 486 l 1,15,-1
 105 489 l 1,16,-1
 95 550 l 1,17,-1
 194 599 l 1,18,19
 152 642 152 642 89 680 c 1,20,-1
 129 736 l 1,21,-1
 142 741 l 1,22,23
 228 701 228 701 292 646 c 1,24,-1
 437 716 l 1,25,-1
 445 711 l 1,26,-1
 455 652 l 1,27,-1
 347 599 l 1,28,29
 470 468 470 468 470 292 c 0,0,1
331 280 m 0,30,31
 331 332 331 332 329 349 c 1,32,33
 303 375 303 375 258 375 c 128,-1,34
 213 375 213 375 184.5 323 c 128,-1,35
 156 271 156 271 156 200 c 0,36,37
 156 65 156 65 236 65 c 0,38,39
 276 65 276 65 303.5 127.5 c 128,-1,40
 331 190 331 190 331 280 c 0,30,31
EndSplineSet
EndChar

StartChar: ntilde
Encoding: 241 241 178
Width: 519
GlyphClass: 2
Flags: W
LayerCount: 2
Fore
SplineSet
329 -11 m 0,0,1
 281 -11 281 -11 281 33 c 0,2,3
 281 59 281 59 315.5 171.5 c 128,-1,4
 350 284 350 284 350 315 c 128,-1,5
 350 346 350 346 324.5 346 c 128,-1,6
 299 346 299 346 257.5 278 c 128,-1,7
 216 210 216 210 173 100 c 1,8,-1
 164 29 l 2,9,10
 162 16 162 16 128 4 c 128,-1,11
 94 -8 94 -8 60 -8 c 1,12,-1
 47 8 l 1,13,14
 96 308 96 308 101 353 c 1,15,16
 102 375 102 375 93.5 384.5 c 128,-1,17
 85 394 85 394 63 394 c 2,18,-1
 28 394 l 1,19,-1
 38 453 l 1,20,21
 87 453 87 453 229 462 c 1,22,-1
 240 446 l 1,23,24
 208 346 208 346 193 250 c 1,25,-1
 199 249 l 1,26,27
 285 428 285 428 361 474 c 1,28,29
 411 474 411 474 441.5 446 c 128,-1,30
 472 418 472 418 472 379.5 c 128,-1,31
 472 341 472 341 438 236 c 128,-1,32
 404 131 404 131 400 110 c 1,33,-1
 403 107 l 1,34,35
 412 107 412 107 469 157 c 1,36,-1
 487 154 l 1,37,-1
 503 119 l 1,38,39
 437 48 437 48 397.5 18.5 c 128,-1,40
 358 -11 358 -11 329 -11 c 0,0,1
316 674.5 m 128,-1,42
 372 658 372 658 384 658 c 0,43,44
 404 658 404 658 442 700 c 1,45,-1
 454 714 l 1,46,-1
 465 714 l 1,47,-1
 501 677 l 1,48,-1
 499 667 l 1,49,-1
 411 565 l 1,50,-1
 395 561 l 1,51,52
 378 561 378 561 322.5 578 c 128,-1,53
 267 595 267 595 255 595 c 128,-1,54
 243 595 243 595 225.5 581 c 128,-1,55
 208 567 208 567 184 539 c 1,56,-1
 173 539 l 1,57,-1
 138 575 l 1,58,-1
 139 586 l 1,59,-1
 227 687 l 1,60,-1
 243 691 l 1,61,41
 260 691 260 691 316 674.5 c 128,-1,42
EndSplineSet
EndChar

StartChar: ograve
Encoding: 242 242 179
Width: 444
GlyphClass: 2
Flags: W
LayerCount: 2
Fore
SplineSet
210 68 m 0,0,1
 249 68 249 68 271.5 119.5 c 128,-1,2
 294 171 294 171 294 263 c 0,3,4
 294 385 294 385 233 385 c 0,5,6
 196 385 196 385 173 333 c 128,-1,7
 150 281 150 281 150 209.5 c 128,-1,8
 150 138 150 138 166 103 c 128,-1,9
 182 68 182 68 210 68 c 0,0,1
171 -12 m 0,10,11
 104 -12 104 -12 65.5 35.5 c 128,-1,12
 27 83 27 83 27 167 c 0,13,14
 27 297 27 297 98 385.5 c 128,-1,15
 169 474 169 474 274 474 c 0,16,17
 344 474 344 474 382 430 c 128,-1,18
 420 386 420 386 420 305 c 0,19,20
 420 170 420 170 349 79 c 128,-1,21
 278 -12 278 -12 171 -12 c 0,10,11
126 651 m 1,22,-1
 124 665 l 1,23,-1
 179 735 l 1,24,-1
 192 736 l 1,25,26
 277 646 277 646 360 566 c 1,27,-1
 330 527 l 1,28,-1
 314 523 l 1,29,30
 232 585 232 585 126 651 c 1,22,-1
EndSplineSet
EndChar

StartChar: oacute
Encoding: 243 243 180
Width: 444
GlyphClass: 2
Flags: W
LayerCount: 2
Fore
SplineSet
210 68 m 0,0,1
 249 68 249 68 271.5 119.5 c 128,-1,2
 294 171 294 171 294 263 c 0,3,4
 294 385 294 385 233 385 c 0,5,6
 196 385 196 385 173 333 c 128,-1,7
 150 281 150 281 150 209.5 c 128,-1,8
 150 138 150 138 166 103 c 128,-1,9
 182 68 182 68 210 68 c 0,0,1
171 -12 m 0,10,11
 104 -12 104 -12 65.5 35.5 c 128,-1,12
 27 83 27 83 27 167 c 0,13,14
 27 297 27 297 98 385.5 c 128,-1,15
 169 474 169 474 274 474 c 0,16,17
 344 474 344 474 382 430 c 128,-1,18
 420 386 420 386 420 305 c 0,19,20
 420 170 420 170 349 79 c 128,-1,21
 278 -12 278 -12 171 -12 c 0,10,11
410 666 m 1,22,-1
 409 652 l 1,23,24
 313 592 313 592 220 523 c 1,25,-1
 205 527 l 1,26,-1
 175 566 l 1,27,28
 260 649 260 649 343 737 c 1,29,-1
 356 736 l 1,30,-1
 410 666 l 1,22,-1
EndSplineSet
EndChar

StartChar: ocircumflex
Encoding: 244 244 181
Width: 444
GlyphClass: 2
Flags: W
LayerCount: 2
Fore
SplineSet
210 68 m 0,0,1
 249 68 249 68 271.5 119.5 c 128,-1,2
 294 171 294 171 294 263 c 0,3,4
 294 385 294 385 233 385 c 0,5,6
 196 385 196 385 173 333 c 128,-1,7
 150 281 150 281 150 209.5 c 128,-1,8
 150 138 150 138 166 103 c 128,-1,9
 182 68 182 68 210 68 c 0,0,1
171 -12 m 0,10,11
 104 -12 104 -12 65.5 35.5 c 128,-1,12
 27 83 27 83 27 167 c 0,13,14
 27 297 27 297 98 385.5 c 128,-1,15
 169 474 169 474 274 474 c 0,16,17
 344 474 344 474 382 430 c 128,-1,18
 420 386 420 386 420 305 c 0,19,20
 420 170 420 170 349 79 c 128,-1,21
 278 -12 278 -12 171 -12 c 0,10,11
378 531 m 1,22,23
 292 603 292 603 275 614 c 1,24,25
 272 612 272 612 153 531 c 1,26,-1
 137 535 l 1,27,-1
 113 576 l 1,28,29
 149 606 149 606 279 730 c 1,30,-1
 299 730 l 1,31,32
 396 609 396 609 428 576 c 1,33,-1
 394 535 l 1,34,-1
 378 531 l 1,22,23
EndSplineSet
EndChar

StartChar: otilde
Encoding: 245 245 182
Width: 444
GlyphClass: 2
Flags: W
LayerCount: 2
Fore
SplineSet
210 68 m 0,0,1
 249 68 249 68 271.5 119.5 c 128,-1,2
 294 171 294 171 294 263 c 0,3,4
 294 385 294 385 233 385 c 0,5,6
 196 385 196 385 173 333 c 128,-1,7
 150 281 150 281 150 209.5 c 128,-1,8
 150 138 150 138 166 103 c 128,-1,9
 182 68 182 68 210 68 c 0,0,1
171 -12 m 0,10,11
 104 -12 104 -12 65.5 35.5 c 128,-1,12
 27 83 27 83 27 167 c 0,13,14
 27 297 27 297 98 385.5 c 128,-1,15
 169 474 169 474 274 474 c 0,16,17
 344 474 344 474 382 430 c 128,-1,18
 420 386 420 386 420 305 c 0,19,20
 420 170 420 170 349 79 c 128,-1,21
 278 -12 278 -12 171 -12 c 0,10,11
275 674.5 m 128,-1,23
 331 658 331 658 342 658 c 0,24,25
 363 658 363 658 400 700 c 1,26,-1
 413 714 l 1,27,-1
 424 714 l 1,28,-1
 460 677 l 1,29,-1
 458 667 l 1,30,-1
 370 565 l 1,31,-1
 354 561 l 1,32,33
 337 561 337 561 281.5 578 c 128,-1,34
 226 595 226 595 214 595 c 128,-1,35
 202 595 202 595 184.5 581 c 128,-1,36
 167 567 167 567 143 539 c 1,37,-1
 132 539 l 1,38,-1
 97 575 l 1,39,-1
 98 586 l 1,40,-1
 186 687 l 1,41,-1
 202 691 l 1,42,22
 219 691 219 691 275 674.5 c 128,-1,23
EndSplineSet
EndChar

StartChar: odieresis
Encoding: 246 246 183
Width: 444
GlyphClass: 2
Flags: W
LayerCount: 2
Fore
SplineSet
210 68 m 0,0,1
 249 68 249 68 271.5 119.5 c 128,-1,2
 294 171 294 171 294 263 c 0,3,4
 294 385 294 385 233 385 c 0,5,6
 196 385 196 385 173 333 c 128,-1,7
 150 281 150 281 150 209.5 c 128,-1,8
 150 138 150 138 166 103 c 128,-1,9
 182 68 182 68 210 68 c 0,0,1
171 -12 m 0,10,11
 104 -12 104 -12 65.5 35.5 c 128,-1,12
 27 83 27 83 27 167 c 0,13,14
 27 297 27 297 98 385.5 c 128,-1,15
 169 474 169 474 274 474 c 0,16,17
 344 474 344 474 382 430 c 128,-1,18
 420 386 420 386 420 305 c 0,19,20
 420 170 420 170 349 79 c 128,-1,21
 278 -12 278 -12 171 -12 c 0,10,11
405 584.5 m 128,-1,23
 384 563 384 563 354 563 c 0,24,25
 298 563 298 563 298 615 c 0,26,27
 298 647 298 647 319.5 669 c 128,-1,28
 341 691 341 691 370 691 c 0,29,30
 426 691 426 691 426 639 c 0,31,22
 426 606 426 606 405 584.5 c 128,-1,23
231 584.5 m 128,-1,33
 210 563 210 563 181 563 c 0,34,35
 125 563 125 563 125 615 c 0,36,37
 125 647 125 647 146.5 669 c 128,-1,38
 168 691 168 691 197 691 c 0,39,40
 252 691 252 691 252 639 c 0,41,32
 252 606 252 606 231 584.5 c 128,-1,33
EndSplineSet
EndChar

StartChar: divide
Encoding: 247 247 184
Width: 488
GlyphClass: 2
Flags: W
LayerCount: 2
Fore
SplineSet
476 312 m 1,0,-1
 481 300 l 1,1,-1
 459 208 l 1,2,-1
 21 206 l 1,3,-1
 15 217 l 1,4,-1
 40 307 l 1,5,6
 179 306 179 306 265 306 c 1,7,-1
 476 312 l 1,0,-1
269 31 m 128,-1,9
 246 7 246 7 213.5 7 c 128,-1,10
 181 7 181 7 166 23 c 128,-1,11
 151 39 151 39 151 71 c 128,-1,12
 151 103 151 103 174 127 c 128,-1,13
 197 151 197 151 229.5 151 c 128,-1,14
 262 151 262 151 277 135 c 128,-1,15
 292 119 292 119 292 87 c 128,-1,8
 292 55 292 55 269 31 c 128,-1,9
313 386 m 128,-1,17
 290 362 290 362 257 362 c 0,18,19
 195 362 195 362 195 421 c 0,20,21
 195 458 195 458 217.5 482 c 128,-1,22
 240 506 240 506 273 506 c 128,-1,23
 306 506 306 506 321 490 c 128,-1,24
 336 474 336 474 336 442 c 128,-1,16
 336 410 336 410 313 386 c 128,-1,17
EndSplineSet
EndChar

StartChar: oslash
Encoding: 248 248 185
Width: 444
GlyphClass: 2
Flags: W
LayerCount: 2
Fore
SplineSet
27 167 m 0,0,1
 27 297 27 297 98 385.5 c 128,-1,2
 169 474 169 474 274 474 c 0,3,4
 298 474 298 474 321 468 c 1,5,-1
 383 572 l 1,6,-1
 445 542 l 1,7,-1
 448 530 l 1,8,-1
 385 426 l 1,9,10
 420 383 420 383 420 305 c 0,11,12
 420 170 420 170 349 79 c 128,-1,13
 278 -12 278 -12 171 -12 c 0,14,15
 148 -12 148 -12 128 -6 c 1,16,-1
 60 -117 l 1,17,-1
 0 -88 l 1,18,-1
 -2 -78 l 1,19,-1
 66 34 l 1,20,21
 27 82 27 82 27 167 c 0,0,1
150 199 m 2,22,-1
 150 175 l 1,23,-1
 265 373 l 1,24,25
 252 385 252 385 233 385 c 0,26,27
 196 385 196 385 173 333 c 128,-1,28
 150 281 150 281 150 199 c 2,22,-1
210 68 m 0,29,30
 249 68 249 68 271.5 119.5 c 128,-1,31
 294 171 294 171 294 263 c 2,32,-1
 294 273 l 1,33,-1
 181 80 l 1,34,35
 193 68 193 68 210 68 c 0,29,30
EndSplineSet
EndChar

StartChar: ugrave
Encoding: 249 249 186
Width: 508
GlyphClass: 2
Flags: W
LayerCount: 2
Fore
SplineSet
74.5 14.5 m 128,-1,1
 43 40 43 40 43 76.5 c 128,-1,2
 43 113 43 113 76 225.5 c 128,-1,3
 109 338 109 338 109 360 c 0,4,5
 109 394 109 394 71 394 c 2,6,-1
 37 394 l 1,7,-1
 47 453 l 1,8,9
 96 453 96 453 238 462 c 1,10,-1
 250 446 l 1,11,12
 164 186 164 186 164 139 c 0,13,14
 164 110 164 110 187 110 c 128,-1,15
 210 110 210 110 254 181 c 128,-1,16
 298 252 298 252 345 365 c 1,17,-1
 359 457 l 1,18,-1
 374 465 l 1,19,-1
 456 459 l 1,20,-1
 469 444 l 1,21,22
 422 267 422 267 398 109 c 1,23,-1
 402 105 l 1,24,25
 408 105 408 105 416.5 111.5 c 128,-1,26
 425 118 425 118 468 155 c 1,27,-1
 485 153 l 1,28,-1
 501 118 l 1,29,30
 428 42 428 42 392 15 c 128,-1,31
 356 -12 356 -12 327 -12 c 0,32,33
 284 -12 284 -12 284 26 c 0,34,35
 284 49 284 49 320 201 c 1,36,-1
 311 202 l 1,37,38
 236 44 236 44 161 -11 c 1,39,0
 106 -11 106 -11 74.5 14.5 c 128,-1,1
163 651 m 1,40,-1
 161 665 l 1,41,-1
 216 735 l 1,42,-1
 229 736 l 1,43,44
 314 646 314 646 397 566 c 1,45,-1
 367 527 l 1,46,-1
 351 523 l 1,47,48
 269 585 269 585 163 651 c 1,40,-1
EndSplineSet
EndChar

StartChar: uacute
Encoding: 250 250 187
Width: 508
GlyphClass: 2
Flags: W
LayerCount: 2
Fore
SplineSet
74.5 14.5 m 128,-1,1
 43 40 43 40 43 76.5 c 128,-1,2
 43 113 43 113 76 225.5 c 128,-1,3
 109 338 109 338 109 360 c 0,4,5
 109 394 109 394 71 394 c 2,6,-1
 37 394 l 1,7,-1
 47 453 l 1,8,9
 96 453 96 453 238 462 c 1,10,-1
 250 446 l 1,11,12
 164 186 164 186 164 139 c 0,13,14
 164 110 164 110 187 110 c 128,-1,15
 210 110 210 110 254 181 c 128,-1,16
 298 252 298 252 345 365 c 1,17,-1
 359 457 l 1,18,-1
 374 465 l 1,19,-1
 456 459 l 1,20,-1
 469 444 l 1,21,22
 422 267 422 267 398 109 c 1,23,-1
 402 105 l 1,24,25
 408 105 408 105 416.5 111.5 c 128,-1,26
 425 118 425 118 468 155 c 1,27,-1
 485 153 l 1,28,-1
 501 118 l 1,29,30
 428 42 428 42 392 15 c 128,-1,31
 356 -12 356 -12 327 -12 c 0,32,33
 284 -12 284 -12 284 26 c 0,34,35
 284 49 284 49 320 201 c 1,36,-1
 311 202 l 1,37,38
 236 44 236 44 161 -11 c 1,39,0
 106 -11 106 -11 74.5 14.5 c 128,-1,1
441 666 m 1,40,-1
 440 652 l 1,41,42
 344 592 344 592 251 523 c 1,43,-1
 236 527 l 1,44,-1
 206 566 l 1,45,46
 291 649 291 649 374 737 c 1,47,-1
 387 736 l 1,48,-1
 441 666 l 1,40,-1
EndSplineSet
EndChar

StartChar: ucircumflex
Encoding: 251 251 188
Width: 508
GlyphClass: 2
Flags: W
LayerCount: 2
Fore
SplineSet
74.5 14.5 m 128,-1,1
 43 40 43 40 43 76.5 c 128,-1,2
 43 113 43 113 76 225.5 c 128,-1,3
 109 338 109 338 109 360 c 0,4,5
 109 394 109 394 71 394 c 2,6,-1
 37 394 l 1,7,-1
 47 453 l 1,8,9
 96 453 96 453 238 462 c 1,10,-1
 250 446 l 1,11,12
 164 186 164 186 164 139 c 0,13,14
 164 110 164 110 187 110 c 128,-1,15
 210 110 210 110 254 181 c 128,-1,16
 298 252 298 252 345 365 c 1,17,-1
 359 457 l 1,18,-1
 374 465 l 1,19,-1
 456 459 l 1,20,-1
 469 444 l 1,21,22
 422 267 422 267 398 109 c 1,23,-1
 402 105 l 1,24,25
 408 105 408 105 416.5 111.5 c 128,-1,26
 425 118 425 118 468 155 c 1,27,-1
 485 153 l 1,28,-1
 501 118 l 1,29,30
 428 42 428 42 392 15 c 128,-1,31
 356 -12 356 -12 327 -12 c 0,32,33
 284 -12 284 -12 284 26 c 0,34,35
 284 49 284 49 320 201 c 1,36,-1
 311 202 l 1,37,38
 236 44 236 44 161 -11 c 1,39,0
 106 -11 106 -11 74.5 14.5 c 128,-1,1
409 531 m 1,40,41
 323 603 323 603 306 614 c 1,42,43
 303 612 303 612 184 531 c 1,44,-1
 168 535 l 1,45,-1
 144 576 l 1,46,47
 180 606 180 606 310 730 c 1,48,-1
 330 730 l 1,49,50
 427 609 427 609 459 576 c 1,51,-1
 425 535 l 1,52,-1
 409 531 l 1,40,41
EndSplineSet
EndChar

StartChar: udieresis
Encoding: 252 252 189
Width: 508
GlyphClass: 2
Flags: W
LayerCount: 2
Fore
SplineSet
74.5 14.5 m 128,-1,1
 43 40 43 40 43 76.5 c 128,-1,2
 43 113 43 113 76 225.5 c 128,-1,3
 109 338 109 338 109 360 c 0,4,5
 109 394 109 394 71 394 c 2,6,-1
 37 394 l 1,7,-1
 47 453 l 1,8,9
 96 453 96 453 238 462 c 1,10,-1
 250 446 l 1,11,12
 164 186 164 186 164 139 c 0,13,14
 164 110 164 110 187 110 c 128,-1,15
 210 110 210 110 254 181 c 128,-1,16
 298 252 298 252 345 365 c 1,17,-1
 359 457 l 1,18,-1
 374 465 l 1,19,-1
 456 459 l 1,20,-1
 469 444 l 1,21,22
 422 267 422 267 398 109 c 1,23,-1
 402 105 l 1,24,25
 408 105 408 105 416.5 111.5 c 128,-1,26
 425 118 425 118 468 155 c 1,27,-1
 485 153 l 1,28,-1
 501 118 l 1,29,30
 428 42 428 42 392 15 c 128,-1,31
 356 -12 356 -12 327 -12 c 0,32,33
 284 -12 284 -12 284 26 c 0,34,35
 284 49 284 49 320 201 c 1,36,-1
 311 202 l 1,37,38
 236 44 236 44 161 -11 c 1,39,0
 106 -11 106 -11 74.5 14.5 c 128,-1,1
435 584.5 m 128,-1,41
 414 563 414 563 384 563 c 0,42,43
 328 563 328 563 328 615 c 0,44,45
 328 647 328 647 349.5 669 c 128,-1,46
 371 691 371 691 400 691 c 0,47,48
 456 691 456 691 456 639 c 0,49,40
 456 606 456 606 435 584.5 c 128,-1,41
261 584.5 m 128,-1,51
 240 563 240 563 211 563 c 0,52,53
 155 563 155 563 155 615 c 0,54,55
 155 647 155 647 176.5 669 c 128,-1,56
 198 691 198 691 227 691 c 0,57,58
 282 691 282 691 282 639 c 0,59,50
 282 606 282 606 261 584.5 c 128,-1,51
EndSplineSet
EndChar

StartChar: yacute
Encoding: 253 253 190
Width: 462
GlyphClass: 2
Flags: W
LayerCount: 2
Fore
SplineSet
457 387 m 0,0,1
 457 282 457 282 268 11 c 0,2,3
 172 -125 172 -125 103.5 -184 c 128,-1,4
 35 -243 35 -243 -28 -243 c 0,5,6
 -64 -243 -64 -243 -93 -228 c 128,-1,7
 -122 -213 -122 -213 -128 -192 c 1,8,9
 -121 -147 -121 -147 -87 -83 c 1,10,-1
 -67 -84 l 1,11,12
 -61 -111 -61 -111 -41 -128 c 128,-1,13
 -21 -145 -21 -145 7.5 -145 c 128,-1,14
 36 -145 36 -145 66 -123.5 c 128,-1,15
 96 -102 96 -102 138 -49 c 1,16,17
 116 187 116 187 89 357 c 0,18,19
 85 377 85 377 77 384.5 c 128,-1,20
 69 392 69 392 53 392 c 1,21,-1
 13 389 l 1,22,-1
 17 447 l 1,23,-1
 194 467 l 1,24,-1
 205 458 l 1,25,26
 220 312 220 312 220 89 c 1,27,-1
 232 89 l 1,28,29
 336 270 336 270 336 343 c 0,30,31
 336 391 336 391 286 417 c 1,32,-1
 293 449 l 1,33,-1
 425 474 l 1,34,35
 457 447 457 447 457 387 c 0,0,1
416 666 m 1,36,-1
 415 652 l 1,37,38
 319 592 319 592 226 523 c 1,39,-1
 211 527 l 1,40,-1
 181 566 l 1,41,42
 266 649 266 649 349 737 c 1,43,-1
 362 736 l 1,44,-1
 416 666 l 1,36,-1
EndSplineSet
EndChar

StartChar: thorn
Encoding: 254 254 191
Width: 488
GlyphClass: 2
Flags: W
LayerCount: 2
Fore
SplineSet
202 -168 m 1,0,-1
 203 -174 l 1,1,-1
 193 -229 l 1,2,3
 68 -229 68 -229 -56 -236 c 1,4,-1
 -46 -178 l 1,5,6
 -19 -175 -19 -175 -6.5 -161.5 c 128,-1,7
 6 -148 6 -148 12 -112 c 0,8,9
 126 605 126 605 126 633 c 0,10,11
 126 669 126 669 88 669 c 2,12,-1
 54 669 l 1,13,-1
 62 728 l 1,14,15
 142 728 142 728 255 737 c 1,16,-1
 267 721 l 1,17,18
 211 467 211 467 176 250 c 1,19,-1
 182 249 l 1,20,21
 227 338 227 338 262 388 c 128,-1,22
 297 438 297 438 335 468 c 1,23,24
 395 468 395 468 430 424.5 c 128,-1,25
 465 381 465 381 465 307 c 0,26,27
 465 182 465 182 389.5 86 c 128,-1,28
 314 -10 314 -10 216 -10 c 0,29,30
 174 -10 174 -10 133 -1 c 1,31,32
 116 -128 116 -128 116 -139.5 c 128,-1,33
 116 -151 116 -151 123.5 -159.5 c 128,-1,34
 131 -168 131 -168 159 -168 c 2,35,-1
 202 -168 l 1,0,-1
312 358 m 0,36,37
 292 358 292 358 251 284 c 128,-1,38
 210 210 210 210 168 101 c 1,39,40
 236 77 236 77 254 77 c 0,41,42
 289 77 289 77 315.5 132.5 c 128,-1,43
 342 188 342 188 342 262 c 0,44,45
 342 301 342 301 333.5 329.5 c 128,-1,46
 325 358 325 358 312 358 c 0,36,37
EndSplineSet
EndChar

StartChar: ydieresis
Encoding: 255 255 192
Width: 462
GlyphClass: 2
Flags: W
LayerCount: 2
Fore
SplineSet
457 387 m 0,0,1
 457 282 457 282 268 11 c 0,2,3
 172 -125 172 -125 103.5 -184 c 128,-1,4
 35 -243 35 -243 -28 -243 c 0,5,6
 -64 -243 -64 -243 -93 -228 c 128,-1,7
 -122 -213 -122 -213 -128 -192 c 1,8,9
 -121 -147 -121 -147 -87 -83 c 1,10,-1
 -67 -84 l 1,11,12
 -61 -111 -61 -111 -41 -128 c 128,-1,13
 -21 -145 -21 -145 7.5 -145 c 128,-1,14
 36 -145 36 -145 66 -123.5 c 128,-1,15
 96 -102 96 -102 138 -49 c 1,16,17
 116 187 116 187 89 357 c 0,18,19
 85 377 85 377 77 384.5 c 128,-1,20
 69 392 69 392 53 392 c 1,21,-1
 13 389 l 1,22,-1
 17 447 l 1,23,-1
 194 467 l 1,24,-1
 205 458 l 1,25,26
 220 312 220 312 220 89 c 1,27,-1
 232 89 l 1,28,29
 336 270 336 270 336 343 c 0,30,31
 336 391 336 391 286 417 c 1,32,-1
 293 449 l 1,33,-1
 425 474 l 1,34,35
 457 447 457 447 457 387 c 0,0,1
405 584.5 m 128,-1,37
 384 563 384 563 354 563 c 0,38,39
 298 563 298 563 298 615 c 0,40,41
 298 647 298 647 319.5 669 c 128,-1,42
 341 691 341 691 370 691 c 0,43,44
 426 691 426 691 426 639 c 0,45,36
 426 606 426 606 405 584.5 c 128,-1,37
231 584.5 m 128,-1,47
 210 563 210 563 181 563 c 0,48,49
 125 563 125 563 125 615 c 0,50,51
 125 647 125 647 146.5 669 c 128,-1,52
 168 691 168 691 197 691 c 0,53,54
 252 691 252 691 252 639 c 0,55,46
 252 606 252 606 231 584.5 c 128,-1,47
EndSplineSet
EndChar

StartChar: Amacron
Encoding: 256 256 193
Width: 607
GlyphClass: 2
Flags: W
LayerCount: 2
Fore
SplineSet
578 -3 m 1,0,1
 501 0 501 0 462 0 c 0,2,3
 386 0 386 0 294 -8 c 1,4,-1
 290 0 l 1,5,-1
 302 59 l 1,6,7
 350 63 350 63 365.5 71 c 128,-1,8
 381 79 381 79 381 101 c 0,9,10
 381 113 381 113 370 207 c 1,11,12
 344 209 344 209 290 209 c 128,-1,13
 236 209 236 209 190 202 c 1,14,-1
 158 125 l 2,15,16
 148 101 148 101 148 88 c 0,17,18
 148 62 148 62 187 62 c 2,19,-1
 229 62 l 1,20,-1
 232 56 l 1,21,-1
 218 -6 l 1,22,23
 139 0 139 0 78 0 c 1,24,-1
 -39 -3 l 1,25,-1
 -24 63 l 1,26,27
 19 70 19 70 47 130 c 2,28,-1
 277 636 l 1,29,-1
 434 653 l 1,30,-1
 445 648 l 1,31,32
 491 303 491 303 522 131 c 0,33,34
 528 95 528 95 542 80.5 c 128,-1,35
 556 66 556 66 588 62 c 1,36,-1
 592 55 l 1,37,-1
 578 -3 l 1,0,1
292 285 m 2,38,39
 319 285 319 285 363 289 c 1,40,-1
 335 512 l 1,41,-1
 321 512 l 1,42,-1
 225 285 l 1,43,-1
 292 285 l 2,38,39
521 805 m 1,44,-1
 528 791 l 1,45,-1
 506 714 l 1,46,-1
 236 712 l 1,47,-1
 227 724 l 1,48,-1
 250 800 l 1,49,50
 342 799 342 799 398 799 c 1,51,-1
 521 805 l 1,44,-1
EndSplineSet
EndChar

StartChar: amacron
Encoding: 257 257 194
Width: 493
GlyphClass: 2
Flags: W
LayerCount: 2
Fore
SplineSet
313 -12 m 0,0,1
 270 -12 270 -12 270 26 c 0,2,3
 270 57 270 57 304 193 c 1,4,-1
 296 194 l 1,5,6
 211 41 211 41 135 -12 c 1,7,8
 81 -12 81 -12 51 26.5 c 128,-1,9
 21 65 21 65 21 139 c 128,-1,10
 21 213 21 213 56.5 290.5 c 128,-1,11
 92 368 92 368 148.5 417 c 128,-1,12
 205 466 205 466 262 466 c 1,13,-1
 349 448 l 1,14,-1
 356 470 l 1,15,-1
 367 477 l 1,16,-1
 448 463 l 1,17,-1
 456 446 l 1,18,19
 408 267 408 267 384 109 c 1,20,-1
 388 105 l 1,21,22
 397 105 397 105 454 155 c 1,23,-1
 471 153 l 1,24,-1
 487 118 l 1,25,26
 417 44 417 44 379.5 16 c 128,-1,27
 342 -12 342 -12 313 -12 c 0,0,1
167 105 m 0,28,29
 189 105 189 105 235 181.5 c 128,-1,30
 281 258 281 258 319 358 c 1,31,32
 271 387 271 387 231 387 c 0,33,34
 199 387 199 387 172 325 c 128,-1,35
 145 263 145 263 145 190 c 0,36,37
 145 154 145 154 151.5 129.5 c 128,-1,38
 158 105 158 105 167 105 c 0,28,29
439 673 m 1,39,-1
 445 659 l 1,40,-1
 423 583 l 1,41,-1
 153 581 l 1,42,-1
 144 592 l 1,43,-1
 167 668 l 1,44,45
 259 667 259 667 316 667 c 1,46,-1
 439 673 l 1,39,-1
EndSplineSet
EndChar

StartChar: Abreve
Encoding: 258 258 195
Width: 607
GlyphClass: 2
Flags: W
LayerCount: 2
Fore
SplineSet
578 -3 m 1,0,1
 501 0 501 0 462 0 c 0,2,3
 386 0 386 0 294 -8 c 1,4,-1
 290 0 l 1,5,-1
 302 59 l 1,6,7
 350 63 350 63 365.5 71 c 128,-1,8
 381 79 381 79 381 101 c 0,9,10
 381 113 381 113 370 207 c 1,11,12
 344 209 344 209 290 209 c 128,-1,13
 236 209 236 209 190 202 c 1,14,-1
 158 125 l 2,15,16
 148 101 148 101 148 88 c 0,17,18
 148 62 148 62 187 62 c 2,19,-1
 229 62 l 1,20,-1
 232 56 l 1,21,-1
 218 -6 l 1,22,23
 139 0 139 0 78 0 c 1,24,-1
 -39 -3 l 1,25,-1
 -24 63 l 1,26,27
 19 70 19 70 47 130 c 2,28,-1
 277 636 l 1,29,-1
 434 653 l 1,30,-1
 445 648 l 1,31,32
 491 303 491 303 522 131 c 0,33,34
 528 95 528 95 542 80.5 c 128,-1,35
 556 66 556 66 588 62 c 1,36,-1
 592 55 l 1,37,-1
 578 -3 l 1,0,1
292 285 m 2,38,39
 319 285 319 285 363 289 c 1,40,-1
 335 512 l 1,41,-1
 321 512 l 1,42,-1
 225 285 l 1,43,-1
 292 285 l 2,38,39
286 857 m 1,44,45
 305 798 305 798 379 798 c 128,-1,46
 453 798 453 798 487 857 c 1,47,-1
 503 854 l 1,48,-1
 526 819 l 1,49,50
 506 770 506 770 465.5 736.5 c 128,-1,51
 425 703 425 703 367 703 c 128,-1,52
 309 703 309 703 276.5 736.5 c 128,-1,53
 244 770 244 770 236 819 c 1,54,-1
 269 854 l 1,55,-1
 286 857 l 1,44,45
EndSplineSet
EndChar

StartChar: abreve
Encoding: 259 259 196
Width: 493
GlyphClass: 2
Flags: W
LayerCount: 2
Fore
SplineSet
313 -12 m 0,0,1
 270 -12 270 -12 270 26 c 0,2,3
 270 57 270 57 304 193 c 1,4,-1
 296 194 l 1,5,6
 211 41 211 41 135 -12 c 1,7,8
 81 -12 81 -12 51 26.5 c 128,-1,9
 21 65 21 65 21 139 c 128,-1,10
 21 213 21 213 56.5 290.5 c 128,-1,11
 92 368 92 368 148.5 417 c 128,-1,12
 205 466 205 466 262 466 c 1,13,-1
 349 448 l 1,14,-1
 356 470 l 1,15,-1
 367 477 l 1,16,-1
 448 463 l 1,17,-1
 456 446 l 1,18,19
 408 267 408 267 384 109 c 1,20,-1
 388 105 l 1,21,22
 397 105 397 105 454 155 c 1,23,-1
 471 153 l 1,24,-1
 487 118 l 1,25,26
 417 44 417 44 379.5 16 c 128,-1,27
 342 -12 342 -12 313 -12 c 0,0,1
167 105 m 0,28,29
 189 105 189 105 235 181.5 c 128,-1,30
 281 258 281 258 319 358 c 1,31,32
 271 387 271 387 231 387 c 0,33,34
 199 387 199 387 172 325 c 128,-1,35
 145 263 145 263 145 190 c 0,36,37
 145 154 145 154 151.5 129.5 c 128,-1,38
 158 105 158 105 167 105 c 0,28,29
301 638 m 128,-1,40
 375 638 375 638 409 706 c 1,41,-1
 427 702 l 1,42,-1
 449 668 l 1,43,44
 429 615 429 615 388 579 c 128,-1,45
 347 543 347 543 289.5 543 c 128,-1,46
 232 543 232 543 200 579 c 128,-1,47
 168 615 168 615 160 668 c 1,48,-1
 191 702 l 1,49,-1
 209 706 l 1,50,39
 227 638 227 638 301 638 c 128,-1,40
EndSplineSet
EndChar

StartChar: Aogonek
Encoding: 260 260 197
Width: 607
GlyphClass: 2
Flags: W
LayerCount: 2
Fore
SplineSet
393.5 -220.5 m 128,-1,1
 365 -199 365 -199 365 -163 c 128,-1,2
 365 -127 365 -127 390 -91 c 128,-1,3
 415 -55 415 -55 472 0 c 1,4,-1
 459 0 l 2,5,6
 386 0 386 0 294 -8 c 1,7,-1
 290 0 l 1,8,-1
 302 59 l 1,9,10
 350 63 350 63 365.5 71 c 128,-1,11
 381 79 381 79 381 101 c 0,12,13
 381 113 381 113 370 207 c 1,14,15
 344 209 344 209 290 209 c 128,-1,16
 236 209 236 209 190 202 c 1,17,-1
 158 125 l 2,18,19
 148 101 148 101 148 88 c 0,20,21
 148 62 148 62 187 62 c 2,22,-1
 229 62 l 1,23,-1
 232 56 l 1,24,-1
 218 -6 l 1,25,26
 139 0 139 0 78 0 c 1,27,-1
 -39 -3 l 1,28,-1
 -24 63 l 1,29,30
 19 70 19 70 47 130 c 2,31,-1
 277 636 l 1,32,-1
 434 653 l 1,33,-1
 445 648 l 1,34,35
 491 303 491 303 522 131 c 0,36,37
 528 95 528 95 542 80.5 c 128,-1,38
 556 66 556 66 588 62 c 1,39,-1
 592 55 l 1,40,-1
 578 -3 l 1,41,42
 556 -2 556 -2 531 -1 c 1,43,44
 483 -53 483 -53 466.5 -78.5 c 128,-1,45
 450 -104 450 -104 450 -125.5 c 128,-1,46
 450 -147 450 -147 461 -158.5 c 128,-1,47
 472 -170 472 -170 489 -170 c 0,48,49
 521 -170 521 -170 563 -146 c 1,50,-1
 578 -175 l 1,51,52
 521 -225 521 -225 471 -242 c 1,53,0
 422 -242 422 -242 393.5 -220.5 c 128,-1,1
292 285 m 2,54,55
 319 285 319 285 363 289 c 1,56,-1
 335 512 l 1,57,-1
 321 512 l 1,58,-1
 225 285 l 1,59,-1
 292 285 l 2,54,55
EndSplineSet
EndChar

StartChar: aogonek
Encoding: 261 261 198
Width: 493
GlyphClass: 2
Flags: W
LayerCount: 2
Fore
SplineSet
237.5 -219.5 m 128,-1,1
 209 -198 209 -198 209 -163 c 128,-1,2
 209 -128 209 -128 230.5 -94.5 c 128,-1,3
 252 -61 252 -61 301 -11 c 1,4,5
 270 -7 270 -7 270 25 c 128,-1,6
 270 57 270 57 304 193 c 1,7,-1
 296 194 l 1,8,9
 211 41 211 41 135 -12 c 1,10,11
 81 -12 81 -12 51 26.5 c 128,-1,12
 21 65 21 65 21 139 c 128,-1,13
 21 213 21 213 56.5 290.5 c 128,-1,14
 92 368 92 368 148.5 417 c 128,-1,15
 205 466 205 466 262 466 c 1,16,-1
 349 448 l 1,17,-1
 356 470 l 1,18,-1
 367 477 l 1,19,-1
 448 463 l 1,20,-1
 456 446 l 1,21,22
 408 267 408 267 384 109 c 1,23,-1
 388 105 l 1,24,25
 395 105 395 105 454 155 c 1,26,-1
 471 153 l 1,27,-1
 489 115 l 1,28,29
 375 9 375 9 334.5 -40.5 c 128,-1,30
 294 -90 294 -90 294 -127 c 0,31,32
 294 -145 294 -145 305.5 -157 c 128,-1,33
 317 -169 317 -169 334 -169 c 0,34,35
 365 -169 365 -169 407 -145 c 1,36,-1
 422 -174 l 1,37,38
 365 -224 365 -224 315 -241 c 1,39,0
 266 -241 266 -241 237.5 -219.5 c 128,-1,1
167 105 m 0,40,41
 189 105 189 105 235 181.5 c 128,-1,42
 281 258 281 258 319 358 c 1,43,44
 271 387 271 387 231 387 c 0,45,46
 199 387 199 387 172 325 c 128,-1,47
 145 263 145 263 145 190 c 0,48,49
 145 154 145 154 151.5 129.5 c 128,-1,50
 158 105 158 105 167 105 c 0,40,41
EndSplineSet
EndChar

StartChar: Cacute
Encoding: 262 262 199
Width: 594
GlyphClass: 2
Flags: W
LayerCount: 2
Fore
SplineSet
502 28 m 1,0,1
 414 -12 414 -12 293 -12 c 128,-1,2
 172 -12 172 -12 102 59.5 c 128,-1,3
 32 131 32 131 32 256 c 0,4,5
 32 437 32 437 132.5 545 c 128,-1,6
 233 653 233 653 402 653 c 0,7,8
 473 653 473 653 599 629 c 1,9,-1
 603 616 l 1,10,11
 573 533 573 533 554 428 c 1,12,-1
 457 422 l 1,13,14
 466 469 466 469 466 488 c 0,15,16
 466 559 466 559 367 559 c 0,17,18
 282 559 282 559 235 485.5 c 128,-1,19
 188 412 188 412 188 275 c 0,20,21
 188 180 188 180 221.5 130 c 128,-1,22
 255 80 255 80 313 80 c 128,-1,23
 371 80 371 80 403 112 c 128,-1,24
 435 144 435 144 457 218 c 1,25,-1
 554 225 l 1,26,27
 525 122 525 122 512 40 c 1,28,-1
 502 28 l 1,0,1
536 775 m 1,29,-1
 531 762 l 1,30,31
 416 733 416 733 302 697 c 1,32,-1
 289 706 l 1,33,-1
 275 753 l 1,34,-1
 498 857 l 1,35,-1
 511 852 l 1,36,-1
 536 775 l 1,29,-1
EndSplineSet
EndChar

StartChar: cacute
Encoding: 263 263 200
Width: 368
GlyphClass: 2
Flags: W
LayerCount: 2
Fore
SplineSet
241 385 m 128,-1,1
 203 385 203 385 173.5 327.5 c 128,-1,2
 144 270 144 270 144 206 c 0,3,4
 144 86 144 86 203 86 c 0,5,6
 229 86 229 86 254 108 c 128,-1,7
 279 130 279 130 296 167 c 1,8,-1
 313 165 l 1,9,-1
 346 124 l 1,10,11
 320 66 320 66 267 27 c 128,-1,12
 214 -12 214 -12 156 -12 c 128,-1,13
 98 -12 98 -12 61 34.5 c 128,-1,14
 24 81 24 81 24 160 c 0,15,16
 24 284 24 284 100 378.5 c 128,-1,17
 176 473 176 473 276 473 c 0,18,19
 337 473 337 473 373 451 c 1,20,-1
 377 436 l 1,21,-1
 335 340 l 1,22,-1
 307 338 l 1,23,0
 279 385 279 385 241 385 c 128,-1,1
410 666 m 1,24,-1
 409 652 l 1,25,26
 313 592 313 592 220 523 c 1,27,-1
 205 527 l 1,28,-1
 175 566 l 1,29,30
 260 649 260 649 343 737 c 1,31,-1
 356 736 l 1,32,-1
 410 666 l 1,24,-1
EndSplineSet
EndChar

StartChar: Ccircumflex
Encoding: 264 264 201
Width: 594
GlyphClass: 2
Flags: W
LayerCount: 2
Fore
SplineSet
502 28 m 1,0,1
 414 -12 414 -12 293 -12 c 128,-1,2
 172 -12 172 -12 102 59.5 c 128,-1,3
 32 131 32 131 32 256 c 0,4,5
 32 437 32 437 132.5 545 c 128,-1,6
 233 653 233 653 402 653 c 0,7,8
 473 653 473 653 599 629 c 1,9,-1
 603 616 l 1,10,11
 573 533 573 533 554 428 c 1,12,-1
 457 422 l 1,13,14
 466 469 466 469 466 488 c 0,15,16
 466 559 466 559 367 559 c 0,17,18
 282 559 282 559 235 485.5 c 128,-1,19
 188 412 188 412 188 275 c 0,20,21
 188 180 188 180 221.5 130 c 128,-1,22
 255 80 255 80 313 80 c 128,-1,23
 371 80 371 80 403 112 c 128,-1,24
 435 144 435 144 457 218 c 1,25,-1
 554 225 l 1,26,27
 525 122 525 122 512 40 c 1,28,-1
 502 28 l 1,0,1
494 705 m 1,29,30
 408 777 408 777 391 788 c 1,31,32
 388 786 388 786 269 705 c 1,33,-1
 253 709 l 1,34,-1
 229 750 l 1,35,36
 265 780 265 780 395 904 c 1,37,-1
 415 904 l 1,38,39
 512 783 512 783 544 750 c 1,40,-1
 510 709 l 1,41,-1
 494 705 l 1,29,30
EndSplineSet
EndChar

StartChar: ccircumflex
Encoding: 265 265 202
Width: 368
GlyphClass: 2
Flags: W
LayerCount: 2
Fore
SplineSet
241 385 m 128,-1,1
 203 385 203 385 173.5 327.5 c 128,-1,2
 144 270 144 270 144 206 c 0,3,4
 144 86 144 86 203 86 c 0,5,6
 229 86 229 86 254 108 c 128,-1,7
 279 130 279 130 296 167 c 1,8,-1
 313 165 l 1,9,-1
 346 124 l 1,10,11
 320 66 320 66 267 27 c 128,-1,12
 214 -12 214 -12 156 -12 c 128,-1,13
 98 -12 98 -12 61 34.5 c 128,-1,14
 24 81 24 81 24 160 c 0,15,16
 24 284 24 284 100 378.5 c 128,-1,17
 176 473 176 473 276 473 c 0,18,19
 337 473 337 473 373 451 c 1,20,-1
 377 436 l 1,21,-1
 335 340 l 1,22,-1
 307 338 l 1,23,0
 279 385 279 385 241 385 c 128,-1,1
379 530 m 1,24,25
 293 602 293 602 276 613 c 1,26,27
 273 611 273 611 154 530 c 1,28,-1
 138 534 l 1,29,-1
 114 575 l 1,30,31
 150 605 150 605 280 729 c 1,32,-1
 300 729 l 1,33,34
 397 608 397 608 429 575 c 1,35,-1
 395 534 l 1,36,-1
 379 530 l 1,24,25
EndSplineSet
EndChar

